<svg width="202" height="48" viewBox="0 0 202 48" fill="none" xmlns="http://www.w3.org/2000/svg">
<g clip-path="url(#clip0_7727_233)">
<path d="M34.7034 24.1706C35.4766 23.9614 36.3771 23.9068 37.1821 24.2388C37.4822 24.3616 37.7778 24.5026 38.0735 24.6572C38.3645 24.8119 38.642 24.9847 38.924 25.1711C39.4879 25.5486 39.9973 25.9852 40.493 26.4946C41.4572 27.5088 42.244 28.8005 42.7397 30.3104C43.2355 31.8203 43.431 33.5531 43.2355 35.3678C43.0354 37.1779 42.4441 39.0653 41.4481 40.8391C40.8569 41.8897 39.8654 42.7265 38.8284 43.1495C38.5692 43.2541 38.3054 43.3314 38.0462 43.3859C37.7869 43.4405 37.5323 43.4724 37.2821 43.4724C36.7818 43.4724 36.327 43.3814 35.9314 43.1722C35.1445 42.7538 34.7853 42.0215 34.7443 41.2347C34.7034 40.4388 34.9581 39.5747 35.4902 38.7925C36.1451 37.8101 36.5954 36.7277 36.8273 35.6407C37.0593 34.5537 37.0775 33.4667 36.9001 32.4571C36.8546 32.2024 36.7955 31.9522 36.7318 31.7112C36.7 31.5884 36.6636 31.4702 36.6272 31.3519C36.5863 31.2337 36.5453 31.1154 36.4999 30.9972C36.4089 30.7652 36.3134 30.5424 36.2088 30.324C36.0951 30.1057 35.9768 29.892 35.854 29.6919C35.3492 28.8778 34.7034 28.1819 33.9757 27.6134C33.3708 27.1313 32.9797 26.6265 32.8433 26.1808C32.6886 25.7306 32.7932 25.3349 33.1844 24.9528C33.3617 24.78 33.58 24.6299 33.8484 24.4935C34.094 24.3752 34.385 24.257 34.7034 24.1706Z" fill="white"/>
<path d="M29.4315 32.9616C29.9955 33.5164 30.4912 34.2714 30.614 35.1401C30.6595 35.4675 30.6822 35.7859 30.6959 36.1179C30.705 36.4453 30.705 36.7865 30.6777 37.1185C30.6549 37.4505 30.6095 37.787 30.5503 38.1236C30.4912 38.4647 30.4093 38.7921 30.3093 39.1332C29.9136 40.4749 29.1905 41.8075 28.1262 42.9899C27.0665 44.1724 25.6658 45.2048 24.0057 45.9416C22.3503 46.6784 20.4128 47.1241 18.3707 47.1423C17.1564 47.1559 15.9376 46.7057 15.0461 46.0235C14.1593 45.3276 13.609 44.4135 13.5771 43.5221C13.5453 42.6352 14.0001 41.9575 14.6641 41.5255C14.9961 41.3117 15.3872 41.148 15.8057 41.0525C16.2241 40.9615 16.6834 40.9161 17.1564 40.9524C18.3344 41.0298 19.4986 40.8797 20.5583 40.534C21.0859 40.3703 21.5907 40.1383 22.0546 39.8882C22.2911 39.7518 22.514 39.6153 22.7277 39.4698C22.9415 39.3288 23.1507 39.156 23.3463 38.9968C23.7374 38.6784 24.0921 38.2964 24.406 37.9235C24.5606 37.7324 24.7061 37.5278 24.8426 37.3277C24.979 37.123 25.1018 36.9274 25.2155 36.7091C25.6703 35.8587 25.9477 34.9536 26.0796 34.044C26.1342 33.6574 26.2297 33.3209 26.3434 33.0389C26.4025 32.8933 26.4617 32.7615 26.5344 32.6478C26.5708 32.5886 26.6027 32.5386 26.6436 32.4886C26.68 32.4385 26.7164 32.3885 26.7573 32.343C27.0756 32.0019 27.4622 31.87 27.9898 32.0292C28.108 32.0611 28.2263 32.1111 28.3491 32.1702C28.4719 32.2293 28.5901 32.293 28.7129 32.3749C28.954 32.5295 29.2041 32.7342 29.4315 32.9616Z" fill="white"/>
<path d="M19.1997 32.7934C18.9996 33.5574 18.5948 34.3624 17.899 34.9036C16.8711 35.6905 15.6477 36.3135 14.2924 36.6319C12.9325 36.9548 11.4181 36.9957 9.86263 36.6728C8.30721 36.3499 6.71086 35.6586 5.23275 34.5853C3.75465 33.5165 2.41753 32.0475 1.38058 30.292C0.77115 29.2505 0.525557 27.9679 0.693833 26.8582C0.712025 26.7172 0.734765 26.5853 0.766602 26.4489C0.798438 26.317 0.834822 26.1851 0.880302 26.0623C0.966714 25.8122 1.06677 25.5757 1.18502 25.3619C1.42606 24.9298 1.75352 24.5842 2.12646 24.3477C2.87233 23.8793 3.68643 23.9338 4.39592 24.2931C4.75521 24.4705 5.08267 24.7297 5.37374 25.0435C5.52383 25.2027 5.66482 25.3756 5.79216 25.562C5.9195 25.7485 6.02866 25.9486 6.14236 26.1624C6.66083 27.222 7.36577 28.1589 8.19806 28.9003C9.0258 29.6461 9.96269 30.201 10.9223 30.5512C11.4135 30.724 11.891 30.8559 12.3868 30.9241C12.8689 31.006 13.3646 31.0287 13.8421 31.0105C14.3151 30.9969 14.7972 30.9287 15.2475 30.8332C15.7068 30.7331 16.1571 30.5921 16.5801 30.4238C16.9348 30.2829 17.285 30.1874 17.5852 30.151C17.7353 30.1328 17.8853 30.1191 18.0172 30.1191C18.1537 30.1191 18.2719 30.1373 18.3947 30.1601C18.8586 30.2647 19.1679 30.5421 19.2907 31.0788C19.3953 31.5518 19.3634 32.1566 19.1997 32.7934Z" fill="white"/>
<path d="M14.2215 23.8294C13.4484 24.0386 12.5479 24.0931 11.7429 23.7611C11.4427 23.6383 11.1471 23.4974 10.8514 23.3427C10.5604 23.1881 10.2829 23.0153 10.001 22.8288C9.43701 22.4513 8.92764 22.0147 8.4319 21.5053C7.46772 20.4911 6.68092 19.1995 6.18518 17.6895C5.68945 16.1796 5.49388 14.4468 5.68945 12.6322C5.88956 10.822 6.4808 8.93461 7.47682 7.16089C8.06806 6.1103 9.05953 5.27346 10.0965 4.8505C10.3557 4.74589 10.6195 4.66858 10.8787 4.614C11.138 4.55942 11.3927 4.52759 11.6428 4.52759C12.1431 4.52759 12.5979 4.61855 12.9936 4.82776C13.7804 5.24617 14.1397 5.9784 14.1806 6.76521C14.2215 7.56111 13.9668 8.42524 13.4347 9.2075C12.7798 10.1899 12.3296 11.2723 12.0976 12.3593C11.8657 13.4462 11.8475 14.5332 12.0248 15.5429C12.0703 15.7976 12.1294 16.0477 12.1931 16.2888C12.2249 16.4115 12.2613 16.5298 12.2977 16.648C12.3386 16.7663 12.3796 16.8845 12.4251 17.0028C12.516 17.2347 12.6115 17.4576 12.7161 17.6759C12.8298 17.8942 12.9481 18.108 13.0709 18.3081C13.5757 19.1222 14.2215 19.818 14.9492 20.3865C15.5541 20.8686 15.9452 21.3734 16.0817 21.8191C16.2363 22.2694 16.1317 22.6651 15.7406 23.0471C15.5632 23.2199 15.3449 23.37 15.0766 23.5065C14.831 23.6293 14.5399 23.743 14.2215 23.8294Z" fill="white"/>
<path d="M19.4899 15.0426C18.9259 14.4877 18.4302 13.7328 18.3074 12.8641C18.2619 12.5366 18.2392 12.2183 18.2255 11.8863C18.2164 11.5588 18.2164 11.2177 18.2437 10.8857C18.2665 10.5537 18.3119 10.2171 18.3711 9.88059C18.4302 9.53949 18.5121 9.21203 18.6121 8.87093C19.0078 7.52926 19.7309 6.1967 20.7952 5.01421C21.8549 3.83173 23.2556 2.79933 24.9157 2.06255C26.5711 1.32577 28.5086 0.880066 30.5507 0.861874C31.765 0.84823 32.9838 1.29848 33.8753 1.98069C34.7621 2.67653 35.3124 3.59068 35.3443 4.48209C35.3761 5.36896 34.9213 6.04661 34.2573 6.47867C33.9253 6.69243 33.5342 6.85616 33.1157 6.95167C32.6973 7.04263 32.238 7.08811 31.765 7.05172C30.587 6.97441 29.4227 7.12449 28.3631 7.47014C27.8355 7.63387 27.3307 7.86582 26.8668 8.11596C26.6303 8.2524 26.4074 8.38884 26.1937 8.53438C25.9799 8.67536 25.7707 8.84819 25.5751 9.00737C25.184 9.32573 24.8293 9.70776 24.5154 10.0807C24.3608 10.2717 24.2153 10.4764 24.0788 10.6765C23.9424 10.8812 23.8196 11.0767 23.7059 11.295C23.2511 12.1455 22.9737 13.0506 22.8418 13.9602C22.7872 14.3467 22.6917 14.6833 22.578 14.9653C22.5189 15.1108 22.4597 15.2427 22.387 15.3564C22.3506 15.4155 22.3187 15.4655 22.2778 15.5156C22.2414 15.5656 22.205 15.6156 22.1641 15.6611C21.8458 16.0022 21.4592 16.1341 20.9316 15.9749C20.8134 15.9431 20.6951 15.8931 20.5723 15.8339C20.4495 15.7748 20.3313 15.7111 20.2085 15.6293C19.9674 15.4701 19.7173 15.2654 19.4899 15.0426Z" fill="white"/>
<path d="M29.725 15.2108C29.9251 14.4467 30.3299 13.6417 31.0257 13.1005C32.0536 12.3137 33.277 11.6906 34.6323 11.3723C35.9922 11.0494 37.5067 11.0084 39.0621 11.3313C40.6175 11.6542 42.2139 12.3455 43.692 13.4189C45.1701 14.4877 46.5072 15.9567 47.5441 17.7122C48.1536 18.7537 48.3992 20.0362 48.2309 21.1459C48.2127 21.2869 48.19 21.4188 48.1581 21.5553C48.1263 21.6872 48.0899 21.8191 48.0444 21.9418C47.958 22.192 47.8579 22.4285 47.7397 22.6422C47.4986 23.0743 47.1712 23.42 46.7983 23.6565C46.0524 24.1249 45.2383 24.0703 44.5288 23.711C44.1695 23.5337 43.842 23.2744 43.551 22.9606C43.4009 22.8014 43.2599 22.6286 43.1326 22.4421C43.0052 22.2557 42.8961 22.0555 42.7824 21.8418C42.2639 20.7821 41.5589 19.8452 40.7267 19.1039C39.8989 18.358 38.962 17.8032 38.0024 17.453C37.5112 17.2801 37.0337 17.1482 36.5379 17.08C36.0558 16.9982 35.5601 16.9754 35.0826 16.9936C34.6096 17.0073 34.1275 17.0755 33.6772 17.171C33.2179 17.271 32.7676 17.412 32.3447 17.5803C31.9899 17.7213 31.6397 17.8168 31.3396 17.8532C31.1895 17.8714 31.0394 17.885 30.9075 17.8805C30.7711 17.8805 30.6528 17.8623 30.53 17.8395C30.0661 17.7349 29.7568 17.4575 29.634 16.9208C29.5249 16.4524 29.5613 15.843 29.725 15.2108Z" fill="white"/>
</g>
<path d="M69.7171 35.0067C68.9484 35.0067 68.3544 34.8087 67.9352 34.4127C67.5392 33.9935 67.3412 33.3995 67.3412 32.6308V12.7501C67.3412 11.9815 67.5392 11.3991 67.9352 11.0032C68.3544 10.5839 68.9484 10.3742 69.7171 10.3742H78.1026C79.8263 10.3742 81.2938 10.6305 82.505 11.1429C83.7162 11.6554 84.6363 12.3891 85.2652 13.3441C85.9174 14.2991 86.2435 15.4405 86.2435 16.7682C86.2435 18.259 85.8126 19.5168 84.9508 20.5417C84.0889 21.5666 82.9126 22.2537 81.4219 22.6031V22.079C83.1456 22.3353 84.4849 22.9875 85.4399 24.0357C86.395 25.0838 86.8725 26.4465 86.8725 28.1236C86.8725 30.3132 86.1271 32.0136 84.6363 33.2248C83.1689 34.4127 81.1191 35.0067 78.4869 35.0067H69.7171ZM71.6388 31.6176H77.9279C79.5118 31.6176 80.6765 31.3148 81.4219 30.7091C82.1673 30.0802 82.5399 29.1485 82.5399 27.914C82.5399 26.6561 82.1673 25.7244 81.4219 25.1188C80.6765 24.5132 79.5118 24.2104 77.9279 24.2104H71.6388V31.6176ZM71.6388 20.8212H77.3339C78.8713 20.8212 80.0126 20.53 80.758 19.9477C81.5267 19.3421 81.911 18.457 81.911 17.2923C81.911 16.1276 81.5267 15.2542 80.758 14.6718C80.0126 14.0662 78.8713 13.7634 77.3339 13.7634H71.6388V20.8212Z" fill="white"/>
<path d="M93.7722 35.0067C93.0036 35.0067 92.4096 34.8087 91.9903 34.4127C91.5943 33.9935 91.3963 33.3995 91.3963 32.6308V12.7501C91.3963 11.9815 91.5943 11.3991 91.9903 11.0032C92.4096 10.5839 93.0036 10.3742 93.7722 10.3742H106.246C106.828 10.3742 107.271 10.5256 107.573 10.8285C107.9 11.1313 108.063 11.5622 108.063 12.1212C108.063 12.7036 107.9 13.1578 107.573 13.4839C107.271 13.7867 106.828 13.9381 106.246 13.9381H95.6939V20.7164H105.477C106.083 20.7164 106.537 20.8678 106.84 21.1706C107.142 21.4734 107.294 21.916 107.294 22.4983C107.294 23.0806 107.142 23.5232 106.84 23.826C106.537 24.1288 106.083 24.2802 105.477 24.2802H95.6939V31.4429H106.246C106.828 31.4429 107.271 31.5943 107.573 31.8971C107.9 32.1999 108.063 32.6425 108.063 33.2248C108.063 33.8071 107.9 34.2497 107.573 34.5525C107.271 34.8553 106.828 35.0067 106.246 35.0067H93.7722Z" fill="white"/>
<path d="M120.249 35.2862C119.527 35.2862 118.968 35.0882 118.572 34.6923C118.2 34.273 118.013 33.7023 118.013 32.9802V14.1128H111.2C110.594 14.1128 110.117 13.9497 109.768 13.6236C109.441 13.2742 109.278 12.8084 109.278 12.226C109.278 11.6204 109.441 11.1662 109.768 10.8634C110.117 10.5373 110.594 10.3742 111.2 10.3742H129.299C129.904 10.3742 130.37 10.5373 130.696 10.8634C131.046 11.1662 131.22 11.6204 131.22 12.226C131.22 12.8084 131.046 13.2742 130.696 13.6236C130.37 13.9497 129.904 14.1128 129.299 14.1128H122.486V32.9802C122.486 33.7023 122.299 34.273 121.927 34.6923C121.554 35.0882 120.995 35.2862 120.249 35.2862Z" fill="white"/>
<path d="M131.289 35.2862C130.73 35.2862 130.276 35.1581 129.927 34.9019C129.6 34.6457 129.403 34.3079 129.333 33.8886C129.263 33.4461 129.344 32.9569 129.577 32.4212L138.801 11.9815C139.104 11.306 139.465 10.8285 139.884 10.5489C140.327 10.2461 140.828 10.0947 141.387 10.0947C141.923 10.0947 142.4 10.2461 142.819 10.5489C143.262 10.8285 143.635 11.306 143.937 11.9815L153.196 32.4212C153.453 32.9569 153.546 33.4461 153.476 33.8886C153.406 34.3312 153.208 34.6806 152.882 34.9368C152.556 35.1698 152.125 35.2862 151.589 35.2862C150.937 35.2862 150.425 35.1348 150.052 34.832C149.702 34.5059 149.388 34.0168 149.108 33.3646L146.837 28.0887L148.724 29.3116H133.98L135.866 28.0887L133.63 33.3646C133.327 34.0401 133.013 34.5292 132.687 34.832C132.361 35.1348 131.895 35.2862 131.289 35.2862ZM141.317 15.2309L136.425 26.8658L135.517 25.7477H146.005L141.387 15.2309H141.317Z" fill="white"/>
<path d="M159.404 35.1814C158.612 35.1814 157.972 34.9368 157.483 34.4477C157.017 33.9585 156.784 33.3296 156.784 32.5609C156.784 31.8156 157.017 31.2099 157.483 30.7441C157.972 30.2549 158.612 30.0103 159.404 30.0103C160.219 30.0103 160.848 30.2549 161.291 30.7441C161.757 31.2099 161.99 31.8156 161.99 32.5609C161.99 33.3296 161.757 33.9585 161.291 34.4477C160.848 34.9368 160.219 35.1814 159.404 35.1814Z" fill="white"/>
<path d="M168.63 35.2862C167.908 35.2862 167.349 35.0882 166.953 34.6923C166.58 34.273 166.394 33.7023 166.394 32.9802V12.4007C166.394 11.6554 166.58 11.0847 166.953 10.6887C167.349 10.2927 167.908 10.0947 168.63 10.0947C169.352 10.0947 169.899 10.2927 170.272 10.6887C170.668 11.0847 170.866 11.6554 170.866 12.4007V32.9802C170.866 33.7023 170.68 34.273 170.307 34.6923C169.934 35.0882 169.375 35.2862 168.63 35.2862Z" fill="white"/>
<path d="M178.351 35.2862C177.699 35.2862 177.198 35.0999 176.849 34.7272C176.499 34.3545 176.325 33.8421 176.325 33.1899V12.1911C176.325 11.5156 176.511 11.0032 176.884 10.6538C177.256 10.2811 177.769 10.0947 178.421 10.0947C179.003 10.0947 179.457 10.2112 179.784 10.4441C180.133 10.6538 180.447 11.0265 180.727 11.5622L189.357 27.5296H188.239L196.869 11.5622C197.149 11.0265 197.451 10.6538 197.778 10.4441C198.104 10.2112 198.558 10.0947 199.14 10.0947C199.792 10.0947 200.293 10.2811 200.643 10.6538C200.992 11.0032 201.167 11.5156 201.167 12.1911V33.1899C201.167 33.8421 200.992 34.3545 200.643 34.7272C200.316 35.0999 199.816 35.2862 199.14 35.2862C198.488 35.2862 197.987 35.0999 197.638 34.7272C197.288 34.3545 197.114 33.8421 197.114 33.1899V17.0128H197.882L190.545 30.3947C190.312 30.7907 190.068 31.0818 189.811 31.2682C189.555 31.4545 189.206 31.5477 188.763 31.5477C188.321 31.5477 187.959 31.4545 187.68 31.2682C187.4 31.0585 187.156 30.7674 186.946 30.3947L179.539 16.9778H180.378V33.1899C180.378 33.8421 180.203 34.3545 179.853 34.7272C179.527 35.0999 179.027 35.2862 178.351 35.2862Z" fill="white"/>
<defs>
<clipPath id="clip0_7727_233">
<rect width="47.645" height="46.2761" fill="white" transform="translate(0.638062 0.862061)"/>
</clipPath>
</defs>
</svg>
