<svg width="202" height="47" viewBox="0 0 202 47" fill="none" xmlns="http://www.w3.org/2000/svg">
<g clip-path="url(#clip0_7993_5188)">
<path d="M34.6967 23.3095C35.4698 23.1003 36.3703 23.0457 37.1753 23.3777C37.4755 23.5005 37.7711 23.6415 38.0668 23.7961C38.3578 23.9508 38.6353 24.1236 38.9172 24.3101C39.4812 24.6876 39.9906 25.1242 40.4863 25.6335C41.4505 26.6477 42.2373 27.9394 42.733 29.4493C43.2288 30.9593 43.4243 32.6921 43.2288 34.5067C43.0286 36.3168 42.4374 38.2043 41.4414 39.978C40.8501 41.0286 39.8587 41.8654 38.8217 42.2884C38.5625 42.393 38.2987 42.4703 38.0395 42.5249C37.7802 42.5794 37.5255 42.6113 37.2754 42.6113C36.7751 42.6113 36.3203 42.5203 35.9246 42.3111C35.1378 41.8927 34.7785 41.1605 34.7376 40.3737C34.6967 39.5777 34.9514 38.7136 35.4835 37.9314C36.1384 36.949 36.5887 35.8666 36.8206 34.7796C37.0525 33.6926 37.0707 32.6056 36.8934 31.596C36.8479 31.3413 36.7888 31.0912 36.7251 30.8501C36.6933 30.7273 36.6569 30.6091 36.6205 30.4908C36.5796 30.3726 36.5386 30.2543 36.4931 30.1361C36.4022 29.9041 36.3067 29.6813 36.2021 29.463C36.0884 29.2447 35.9701 29.0309 35.8473 28.8308C35.3425 28.0167 34.6967 27.3209 33.969 26.7523C33.3641 26.2703 32.973 25.7654 32.8365 25.3197C32.6819 24.8695 32.7865 24.4738 33.1776 24.0918C33.355 23.9189 33.5733 23.7689 33.8416 23.6324C34.0872 23.5142 34.3783 23.3959 34.6967 23.3095Z" fill="#121215"/>
<path d="M29.4248 32.099C29.9888 32.6539 30.4845 33.4089 30.6073 34.2775C30.6528 34.605 30.6755 34.9233 30.6891 35.2553C30.6982 35.5828 30.6982 35.9239 30.671 36.2559C30.6482 36.5879 30.6027 36.9245 30.5436 37.261C30.4845 37.6021 30.4026 37.9296 30.3026 38.2707C29.9069 39.6123 29.1838 40.9449 28.1195 42.1274C27.0598 43.3099 25.659 44.3423 23.999 45.0791C22.3435 45.8158 20.4061 46.2615 18.364 46.2797C17.1497 46.2934 15.9308 45.8431 15.0394 45.1609C14.1526 44.4651 13.6023 43.5509 13.5704 42.6595C13.5386 41.7727 13.9934 41.095 14.6574 40.6629C14.9894 40.4492 15.3805 40.2855 15.7989 40.1899C16.2174 40.099 16.6767 40.0535 17.1497 40.0899C18.3276 40.1672 19.4919 40.0171 20.5516 39.6715C21.0792 39.5077 21.584 39.2758 22.0479 39.0256C22.2844 38.8892 22.5073 38.7528 22.721 38.6072C22.9348 38.4662 23.144 38.2934 23.3396 38.1342C23.7307 37.8159 24.0854 37.4338 24.3992 37.0609C24.5539 36.8699 24.6994 36.6652 24.8359 36.4651C24.9723 36.2605 25.0951 36.0649 25.2088 35.8466C25.6636 34.9961 25.941 34.0911 26.0729 33.1814C26.1275 32.7949 26.223 32.4583 26.3367 32.1763C26.3958 32.0308 26.4549 31.8989 26.5277 31.7852C26.5641 31.7261 26.5959 31.6761 26.6369 31.626C26.6733 31.576 26.7096 31.526 26.7506 31.4805C27.0689 31.1394 27.4555 31.0075 27.9831 31.1667C28.1013 31.1985 28.2196 31.2485 28.3424 31.3077C28.4652 31.3668 28.5834 31.4305 28.7062 31.5123C28.9473 31.667 29.1974 31.8716 29.4248 32.099Z" fill="#121215"/>
<path d="M19.1931 31.9318C18.993 32.6959 18.5882 33.5009 17.8924 34.0421C16.8645 34.8289 15.6411 35.452 14.2858 35.7703C12.926 36.0932 11.4115 36.1342 9.85604 35.8112C8.30062 35.4883 6.70427 34.797 5.22616 33.7237C3.74806 32.6549 2.41094 31.1859 1.37399 29.4304C0.764558 28.3889 0.518965 27.1063 0.687241 25.9966C0.705434 25.8556 0.728174 25.7238 0.76001 25.5873C0.791846 25.4554 0.82823 25.3235 0.87371 25.2007C0.960122 24.9506 1.06018 24.7141 1.17843 24.5003C1.41947 24.0683 1.74693 23.7226 2.11987 23.4861C2.86574 23.0177 3.67984 23.0723 4.38933 23.4316C4.74862 23.6089 5.07608 23.8682 5.36715 24.182C5.51723 24.3412 5.65822 24.514 5.78557 24.7004C5.91291 24.8869 6.02207 25.087 6.13577 25.3008C6.65424 26.3605 7.35918 27.2974 8.19147 28.0387C9.01921 28.7846 9.9561 29.3394 10.9157 29.6896C11.4069 29.8624 11.8845 29.9943 12.3802 30.0626C12.8623 30.1444 13.358 30.1672 13.8356 30.149C14.3086 30.1353 14.7906 30.0671 15.2409 29.9716C15.7002 29.8715 16.1505 29.7306 16.5735 29.5623C16.9282 29.4213 17.2784 29.3258 17.5786 29.2894C17.7287 29.2712 17.8787 29.2576 18.0106 29.2576C18.1471 29.2576 18.2653 29.2758 18.3881 29.2985C18.852 29.4031 19.1613 29.6805 19.2841 30.2172C19.3887 30.6902 19.3568 31.2951 19.1931 31.9318Z" fill="#121215"/>
<path d="M14.2148 22.9678C13.4417 23.177 12.5411 23.2316 11.7361 22.8996C11.436 22.7768 11.1404 22.6358 10.8447 22.4812C10.5537 22.3265 10.2762 22.1537 9.99425 21.9672C9.4303 21.5897 8.92092 21.1531 8.42519 20.6438C7.46101 19.6295 6.6742 18.3379 6.17847 16.828C5.68273 15.318 5.48717 13.5852 5.68273 11.7706C5.88285 9.96047 6.47409 8.07304 7.4701 6.29932C8.06135 5.24872 9.05282 4.41189 10.0898 3.98892C10.349 3.88432 10.6128 3.807 10.872 3.75243C11.1313 3.69785 11.3859 3.66602 11.6361 3.66602C12.1364 3.66602 12.5912 3.75698 12.9868 3.96618C13.7737 4.3846 14.1329 5.11683 14.1739 5.90364C14.2148 6.69954 13.9601 7.56366 13.428 8.34592C12.7731 9.32829 12.3228 10.4107 12.0909 11.4977C11.8589 12.5847 11.8407 13.6716 12.0181 14.6813C12.0636 14.936 12.1227 15.1861 12.1864 15.4272C12.2182 15.55 12.2546 15.6682 12.291 15.7865C12.3319 15.9047 12.3729 16.023 12.4183 16.1412C12.5093 16.3732 12.6048 16.596 12.7094 16.8143C12.8231 17.0326 12.9414 17.2464 13.0642 17.4465C13.569 18.2606 14.2148 18.9564 14.9425 19.5249C15.5474 20.007 15.9385 20.5119 16.075 20.9576C16.2296 21.4078 16.125 21.8035 15.7339 22.1855C15.5565 22.3584 15.3382 22.5084 15.0698 22.6449C14.8242 22.7677 14.5332 22.8814 14.2148 22.9678Z" fill="#121215"/>
<path d="M19.4832 14.181C18.9192 13.6262 18.4235 12.8712 18.3007 12.0025C18.2552 11.6751 18.2325 11.3567 18.2188 11.0247C18.2097 10.6972 18.2097 10.3561 18.237 10.0241C18.2598 9.69212 18.3052 9.35557 18.3644 9.01902C18.4235 8.67791 18.5053 8.35046 18.6054 8.00936C19.0011 6.66769 19.7242 5.33512 20.7884 4.15264C21.8481 2.97016 23.2489 1.93776 24.909 1.20098C26.5644 0.464199 28.5019 0.0184938 30.5439 0.000301713C31.7583 -0.0133423 32.9771 0.436911 33.8685 1.11911C34.7554 1.81496 35.3057 2.72911 35.3376 3.62052C35.3694 4.50738 34.9146 5.18504 34.2506 5.6171C33.9186 5.83086 33.5274 5.99459 33.109 6.09009C32.6906 6.18105 32.2313 6.22653 31.7583 6.19015C30.5803 6.11283 29.416 6.26292 28.3563 6.60857C27.8288 6.7723 27.3239 7.00424 26.86 7.25439C26.6236 7.39083 26.4007 7.52727 26.1869 7.6728C25.9732 7.81379 25.764 7.98662 25.5684 8.1458C25.1773 8.46416 24.8225 8.84619 24.5087 9.21913C24.3541 9.41014 24.2086 9.61481 24.0721 9.81492C23.9357 10.0196 23.8129 10.2151 23.6992 10.4334C23.2444 11.2839 22.9669 12.189 22.8351 13.0986C22.7805 13.4852 22.685 13.8217 22.5713 14.1037C22.5121 14.2492 22.453 14.3811 22.3803 14.4948C22.3439 14.5539 22.312 14.604 22.2711 14.654C22.2347 14.704 22.1983 14.7541 22.1574 14.7995C21.839 15.1406 21.4525 15.2725 20.9249 15.1134C20.8066 15.0815 20.6884 15.0315 20.5656 14.9724C20.4428 14.9132 20.3246 14.8496 20.2018 14.7677C19.9607 14.6085 19.7106 14.4039 19.4832 14.181Z" fill="#121215"/>
<path d="M29.7183 14.3502C29.9184 13.5861 30.3232 12.7811 31.019 12.2399C32.0469 11.4531 33.2703 10.83 34.6256 10.5117C35.9855 10.1888 37.4999 10.1478 39.0554 10.4707C40.6108 10.7936 42.2071 11.4849 43.6852 12.5583C45.1634 13.6271 46.5005 15.0961 47.5374 16.8516C48.1468 17.8931 48.3924 19.1756 48.2242 20.2853C48.206 20.4263 48.1832 20.5582 48.1514 20.6947C48.1196 20.8266 48.0832 20.9585 48.0377 21.0813C47.9513 21.3314 47.8512 21.5679 47.733 21.7816C47.4919 22.2137 47.1645 22.5594 46.7915 22.7959C46.0457 23.2643 45.2316 23.2097 44.5221 22.8504C44.1628 22.6731 43.8353 22.4138 43.5443 22.1C43.3942 21.9408 43.2532 21.768 43.1258 21.5815C42.9985 21.3951 42.8893 21.195 42.7756 20.9812C42.2572 19.9215 41.5522 18.9846 40.7199 18.2433C39.8922 17.4974 38.9553 16.9426 37.9957 16.5924C37.5045 16.4195 37.027 16.2876 36.5312 16.2194C36.0491 16.1376 35.5534 16.1148 35.0759 16.133C34.6029 16.1467 34.1208 16.2149 33.6705 16.3104C33.2112 16.4104 32.7609 16.5514 32.338 16.7197C31.9832 16.8607 31.633 16.9562 31.3328 16.9926C31.1828 17.0108 31.0327 17.0244 30.9008 17.0199C30.7643 17.0199 30.6461 17.0017 30.5233 16.9789C30.0594 16.8743 29.7501 16.5969 29.6273 16.0602C29.5182 15.5918 29.5546 14.9824 29.7183 14.3502Z" fill="#121215"/>
</g>
<path d="M69.7104 34.1447C68.9417 34.1447 68.3477 33.9467 67.9284 33.5507C67.5325 33.1314 67.3345 32.5374 67.3345 31.7688V11.8881C67.3345 11.1194 67.5325 10.5371 67.9284 10.1411C68.3477 9.72182 68.9417 9.51218 69.7104 9.51218H78.0959C79.8196 9.51218 81.287 9.76841 82.4983 10.2809C83.7095 10.7933 84.6296 11.527 85.2585 12.4821C85.9107 13.4371 86.2368 14.5784 86.2368 15.9061C86.2368 17.3969 85.8059 18.6547 84.9441 19.6796C84.0822 20.7045 82.9059 21.3917 81.4152 21.7411V21.217C83.1389 21.4732 84.4782 22.1254 85.4332 23.1736C86.3882 24.2218 86.8657 25.5844 86.8657 27.2615C86.8657 29.4511 86.1204 31.1515 84.6296 32.3627C83.1621 33.5507 81.1123 34.1447 78.4802 34.1447H69.7104ZM71.6321 30.7555H77.9212C79.5051 30.7555 80.6698 30.4527 81.4152 29.8471C82.1605 29.2182 82.5332 28.2864 82.5332 27.0519C82.5332 25.7941 82.1605 24.8623 81.4152 24.2567C80.6698 23.6511 79.5051 23.3483 77.9212 23.3483H71.6321V30.7555ZM71.6321 19.9591H77.3272C78.8646 19.9591 80.0059 19.668 80.7513 19.0857C81.52 18.48 81.9043 17.5949 81.9043 16.4302C81.9043 15.2656 81.52 14.3921 80.7513 13.8098C80.0059 13.2041 78.8646 12.9013 77.3272 12.9013H71.6321V19.9591Z" fill="#121215"/>
<path d="M93.7655 34.1447C92.9968 34.1447 92.4029 33.9467 91.9836 33.5507C91.5876 33.1314 91.3896 32.5374 91.3896 31.7688V11.8881C91.3896 11.1194 91.5876 10.5371 91.9836 10.1411C92.4029 9.72182 92.9968 9.51218 93.7655 9.51218H106.239C106.821 9.51218 107.264 9.66359 107.567 9.9664C107.893 10.2692 108.056 10.7001 108.056 11.2592C108.056 11.8415 107.893 12.2957 107.567 12.6218C107.264 12.9246 106.821 13.076 106.239 13.076H95.6872V19.8543H105.47C106.076 19.8543 106.53 20.0057 106.833 20.3085C107.136 20.6114 107.287 21.0539 107.287 21.6363C107.287 22.2186 107.136 22.6611 106.833 22.964C106.53 23.2668 106.076 23.4182 105.47 23.4182H95.6872V30.5808H106.239C106.821 30.5808 107.264 30.7322 107.567 31.035C107.893 31.3378 108.056 31.7804 108.056 32.3627C108.056 32.9451 107.893 33.3876 107.567 33.6904C107.264 33.9933 106.821 34.1447 106.239 34.1447H93.7655Z" fill="#121215"/>
<path d="M120.243 34.4242C119.521 34.4242 118.962 34.2262 118.566 33.8302C118.193 33.4109 118.007 32.8402 118.007 32.1182V13.2507H111.193C110.588 13.2507 110.11 13.0877 109.761 12.7616C109.435 12.4122 109.272 11.9463 109.272 11.364C109.272 10.7584 109.435 10.3042 109.761 10.0013C110.11 9.67524 110.588 9.51218 111.193 9.51218H129.292C129.898 9.51218 130.364 9.67524 130.69 10.0013C131.039 10.3042 131.214 10.7584 131.214 11.364C131.214 11.9463 131.039 12.4122 130.69 12.7616C130.364 13.0877 129.898 13.2507 129.292 13.2507H122.479V32.1182C122.479 32.8402 122.292 33.4109 121.92 33.8302C121.547 34.2262 120.988 34.4242 120.243 34.4242Z" fill="#121215"/>
<path d="M131.283 34.4242C130.723 34.4242 130.269 34.2961 129.92 34.0398C129.594 33.7836 129.396 33.4459 129.326 33.0266C129.256 32.584 129.338 32.0949 129.57 31.5591L138.795 11.1194C139.097 10.4439 139.458 9.9664 139.878 9.68688C140.32 9.38407 140.821 9.23267 141.38 9.23267C141.916 9.23267 142.393 9.38407 142.813 9.68688C143.255 9.9664 143.628 10.4439 143.931 11.1194L153.19 31.5591C153.446 32.0949 153.539 32.584 153.469 33.0266C153.399 33.4692 153.201 33.8186 152.875 34.0748C152.549 34.3077 152.118 34.4242 151.582 34.4242C150.93 34.4242 150.418 34.2728 150.045 33.97C149.696 33.6439 149.381 33.1547 149.102 32.5025L146.831 27.2266L148.717 28.4495H133.973L135.86 27.2266L133.623 32.5025C133.321 33.178 133.006 33.6671 132.68 33.97C132.354 34.2728 131.888 34.4242 131.283 34.4242ZM141.31 14.3688L136.419 26.0037L135.51 24.8856H145.999L141.38 14.3688H141.31Z" fill="#121215"/>
<path d="M159.397 34.3194C158.606 34.3194 157.965 34.0748 157.476 33.5856C157.01 33.0965 156.777 32.4676 156.777 31.6989C156.777 30.9535 157.01 30.3479 157.476 29.882C157.965 29.3929 158.606 29.1483 159.397 29.1483C160.213 29.1483 160.842 29.3929 161.284 29.882C161.75 30.3479 161.983 30.9535 161.983 31.6989C161.983 32.4676 161.75 33.0965 161.284 33.5856C160.842 34.0748 160.213 34.3194 159.397 34.3194Z" fill="#121215"/>
<path d="M168.623 34.4242C167.901 34.4242 167.342 34.2262 166.946 33.8302C166.573 33.4109 166.387 32.8402 166.387 32.1182V11.5387C166.387 10.7933 166.573 10.2226 166.946 9.82664C167.342 9.43066 167.901 9.23267 168.623 9.23267C169.345 9.23267 169.893 9.43066 170.265 9.82664C170.661 10.2226 170.859 10.7933 170.859 11.5387V32.1182C170.859 32.8402 170.673 33.4109 170.3 33.8302C169.928 34.2262 169.369 34.4242 168.623 34.4242Z" fill="#121215"/>
<path d="M178.344 34.4242C177.692 34.4242 177.191 34.2378 176.842 33.8651C176.493 33.4924 176.318 32.98 176.318 32.3278V11.329C176.318 10.6535 176.504 10.1411 176.877 9.7917C177.25 9.41901 177.762 9.23267 178.414 9.23267C178.997 9.23267 179.451 9.34913 179.777 9.58206C180.126 9.7917 180.441 10.1644 180.72 10.7001L189.35 26.6676H188.232L196.862 10.7001C197.142 10.1644 197.445 9.7917 197.771 9.58206C198.097 9.34913 198.551 9.23267 199.133 9.23267C199.786 9.23267 200.286 9.41901 200.636 9.7917C200.985 10.1411 201.16 10.6535 201.16 11.329V32.3278C201.16 32.98 200.985 33.4924 200.636 33.8651C200.31 34.2378 199.809 34.4242 199.133 34.4242C198.481 34.4242 197.98 34.2378 197.631 33.8651C197.282 33.4924 197.107 32.98 197.107 32.3278V16.1507H197.876L190.538 29.5326C190.305 29.9286 190.061 30.2198 189.805 30.4061C189.548 30.5925 189.199 30.6856 188.756 30.6856C188.314 30.6856 187.953 30.5925 187.673 30.4061C187.394 30.1965 187.149 29.9053 186.94 29.5326L179.532 16.1158H180.371V32.3278C180.371 32.98 180.196 33.4924 179.847 33.8651C179.521 34.2378 179.02 34.4242 178.344 34.4242Z" fill="#121215"/>
<defs>
<clipPath id="clip0_7993_5188">
<rect width="47.645" height="46.2761" fill="white" transform="translate(0.631348)"/>
</clipPath>
</defs>
</svg>
