<svg width="202" height="48" viewBox="0 0 202 48" fill="none" xmlns="http://www.w3.org/2000/svg">
<g clip-path="url(#clip0_7948_12994)">
<path d="M34.6967 24.1703C35.4698 23.9611 36.3703 23.9066 37.1753 24.2386C37.4755 24.3614 37.7711 24.5023 38.0668 24.657C38.3578 24.8116 38.6353 24.9844 38.9172 25.1709C39.4812 25.5484 39.9906 25.985 40.4863 26.4944C41.4505 27.5086 42.2373 28.8002 42.733 30.3102C43.2288 31.8201 43.4243 33.5529 43.2288 35.3676C43.0286 37.1777 42.4374 39.0651 41.4414 40.8388C40.8501 41.8894 39.8587 42.7262 38.8217 43.1492C38.5625 43.2538 38.2987 43.3311 38.0395 43.3857C37.7802 43.4403 37.5255 43.4721 37.2754 43.4721C36.7751 43.4721 36.3203 43.3812 35.9246 43.1719C35.1378 42.7535 34.7785 42.0213 34.7376 41.2345C34.6967 40.4386 34.9514 39.5745 35.4835 38.7922C36.1384 37.8098 36.5887 36.7274 36.8206 35.6404C37.0525 34.5535 37.0707 33.4665 36.8934 32.4568C36.8479 32.2021 36.7888 31.952 36.7251 31.711C36.6933 31.5882 36.6569 31.4699 36.6205 31.3517C36.5796 31.2334 36.5386 31.1152 36.4931 30.9969C36.4022 30.765 36.3067 30.5421 36.2021 30.3238C36.0884 30.1055 35.9701 29.8917 35.8473 29.6916C35.3425 28.8775 34.6967 28.1817 33.969 27.6132C33.3641 27.1311 32.973 26.6263 32.8365 26.1806C32.6819 25.7303 32.7865 25.3346 33.1776 24.9526C33.355 24.7798 33.5733 24.6297 33.8416 24.4933C34.0872 24.375 34.3783 24.2568 34.6967 24.1703Z" fill="#615F6F"/>
<path d="M29.4248 32.9608C29.9888 33.5157 30.4845 34.2707 30.6073 35.1393C30.6528 35.4668 30.6755 35.7852 30.6891 36.1172C30.6982 36.4446 30.6982 36.7857 30.671 37.1177C30.6482 37.4497 30.6027 37.7863 30.5436 38.1228C30.4845 38.4639 30.4026 38.7914 30.3026 39.1325C29.9069 40.4742 29.1838 41.8067 28.1195 42.9892C27.0598 44.1717 25.659 45.2041 23.999 45.9409C22.3435 46.6777 20.4061 47.1234 18.364 47.1416C17.1497 47.1552 15.9308 46.7049 15.0394 46.0227C14.1526 45.3269 13.6023 44.4127 13.5704 43.5213C13.5386 42.6345 13.9934 41.9568 14.6574 41.5248C14.9894 41.311 15.3805 41.1473 15.7989 41.0518C16.2174 40.9608 16.6767 40.9153 17.1497 40.9517C18.3276 41.029 19.4919 40.8789 20.5516 40.5333C21.0792 40.3696 21.584 40.1376 22.0479 39.8875C22.2844 39.751 22.5073 39.6146 22.721 39.469C22.9348 39.3281 23.144 39.1552 23.3396 38.9961C23.7307 38.6777 24.0854 38.2957 24.3992 37.9227C24.5539 37.7317 24.6994 37.527 24.8359 37.3269C24.9723 37.1223 25.0951 36.9267 25.2088 36.7084C25.6636 35.8579 25.941 34.9529 26.0729 34.0433C26.1275 33.6567 26.223 33.3201 26.3367 33.0382C26.3958 32.8926 26.4549 32.7607 26.5277 32.647C26.5641 32.5879 26.5959 32.5379 26.6369 32.4878C26.6733 32.4378 26.7096 32.3878 26.7506 32.3423C27.0689 32.0012 27.4555 31.8693 27.9831 32.0285C28.1013 32.0603 28.2196 32.1104 28.3424 32.1695C28.4652 32.2286 28.5834 32.2923 28.7062 32.3741C28.9473 32.5288 29.1974 32.7334 29.4248 32.9608Z" fill="#C1C1C1"/>
<path d="M19.193 32.7926C18.9929 33.5567 18.5881 34.3617 17.8923 34.9029C16.8644 35.6897 15.641 36.3128 14.2857 36.6312C12.9258 36.9541 11.4113 36.995 9.85592 36.6721C8.3005 36.3492 6.70415 35.6579 5.22604 34.5846C3.74793 33.5158 2.41082 32.0468 1.37387 30.2912C0.764436 29.2497 0.518843 27.9672 0.687119 26.8575C0.705311 26.7165 0.728052 26.5846 0.759888 26.4481C0.791724 26.3163 0.828108 26.1844 0.873588 26.0616C0.96 25.8114 1.06006 25.5749 1.17831 25.3612C1.41935 24.9291 1.74681 24.5835 2.11974 24.347C2.86562 23.8785 3.67971 23.9331 4.3892 24.2924C4.7485 24.4698 5.07596 24.729 5.36703 25.0428C5.51711 25.202 5.6581 25.3748 5.78545 25.5613C5.91279 25.7478 6.02194 25.9479 6.13564 26.1616C6.65412 27.2213 7.35906 28.1582 8.19135 28.8995C9.01909 29.6454 9.95598 30.2003 10.9156 30.5505C11.4068 30.7233 11.8843 30.8552 12.3801 30.9234C12.8622 31.0053 13.3579 31.028 13.8354 31.0098C14.3084 30.9962 14.7905 30.9279 15.2408 30.8324C15.7001 30.7324 16.1504 30.5914 16.5733 30.4231C16.9281 30.2821 17.2783 30.1866 17.5785 30.1502C17.7285 30.132 17.8786 30.1184 18.0105 30.1184C18.147 30.1184 18.2652 30.1366 18.388 30.1593C18.8519 30.2639 19.1612 30.5414 19.284 31.078C19.3886 31.551 19.3567 32.1559 19.193 32.7926Z" fill="#615F6F"/>
<path d="M14.2148 23.8286C13.4417 24.0378 12.5411 24.0924 11.7361 23.7604C11.436 23.6376 11.1404 23.4966 10.8447 23.342C10.5537 23.1874 10.2762 23.0145 9.99425 22.8281C9.4303 22.4506 8.92092 22.014 8.42519 21.5046C7.46101 20.4904 6.6742 19.1988 6.17847 17.6888C5.68273 16.1789 5.48717 14.4461 5.68273 12.6314C5.88285 10.8213 6.47409 8.93388 7.4701 7.16016C8.06135 6.10956 9.05282 5.27273 10.0898 4.84976C10.349 4.74516 10.6128 4.66784 10.872 4.61327C11.1313 4.55869 11.3859 4.52686 11.6361 4.52686C12.1364 4.52686 12.5912 4.61782 12.9868 4.82702C13.7737 5.24544 14.1329 5.97767 14.1739 6.76448C14.2148 7.56038 13.9601 8.4245 13.428 9.20676C12.7731 10.1891 12.3228 11.2716 12.0909 12.3585C11.8589 13.4455 11.8407 14.5325 12.0181 15.5421C12.0636 15.7968 12.1227 16.047 12.1864 16.288C12.2182 16.4108 12.2546 16.5291 12.291 16.6473C12.3319 16.7656 12.3729 16.8838 12.4183 17.0021C12.5093 17.234 12.6048 17.4569 12.7094 17.6752C12.8231 17.8935 12.9414 18.1072 13.0642 18.3073C13.569 19.1214 14.2148 19.8173 14.9425 20.3858C15.5474 20.8679 15.9385 21.3727 16.075 21.8184C16.2296 22.2687 16.125 22.6643 15.7339 23.0464C15.5565 23.2192 15.3382 23.3693 15.0698 23.5057C14.8242 23.6285 14.5332 23.7422 14.2148 23.8286Z" fill="#C1C1C1"/>
<path d="M19.4832 15.0419C18.9192 14.487 18.4235 13.732 18.3007 12.8634C18.2552 12.5359 18.2325 12.2175 18.2188 11.8855C18.2097 11.5581 18.2097 11.217 18.237 10.885C18.2598 10.553 18.3052 10.2164 18.3644 9.87986C18.4235 9.53875 18.5053 9.2113 18.6054 8.8702C19.0011 7.52853 19.7242 6.19596 20.7884 5.01348C21.8481 3.831 23.2489 2.7986 24.909 2.06182C26.5644 1.32504 28.5019 0.879334 30.5439 0.861142C31.7583 0.847498 32.9771 1.29775 33.8685 1.97995C34.7554 2.6758 35.3057 3.58995 35.3376 4.48136C35.3694 5.36822 34.9146 6.04588 34.2506 6.47794C33.9186 6.6917 33.5274 6.85543 33.109 6.95093C32.6906 7.04189 32.2313 7.08737 31.7583 7.05099C30.5803 6.97367 29.416 7.12376 28.3563 7.46941C27.8288 7.63314 27.3239 7.86508 26.86 8.11523C26.6236 8.25167 26.4007 8.38811 26.1869 8.53364C25.9732 8.67463 25.764 8.84746 25.5684 9.00664C25.1773 9.325 24.8225 9.70703 24.5087 10.08C24.3541 10.271 24.2086 10.4756 24.0721 10.6758C23.9357 10.8804 23.8129 11.076 23.6992 11.2943C23.2444 12.1448 22.9669 13.0498 22.8351 13.9594C22.7805 14.346 22.685 14.6826 22.5713 14.9645C22.5121 15.1101 22.453 15.242 22.3803 15.3557C22.3439 15.4148 22.312 15.4648 22.2711 15.5148C22.2347 15.5649 22.1983 15.6149 22.1574 15.6604C21.839 16.0015 21.4525 16.1334 20.9249 15.9742C20.8066 15.9424 20.6884 15.8923 20.5656 15.8332C20.4428 15.7741 20.3246 15.7104 20.2018 15.6285C19.9607 15.4694 19.7106 15.2647 19.4832 15.0419Z" fill="#615F6F"/>
<path d="M29.7183 15.2101C29.9184 14.446 30.3232 13.641 31.019 13.0998C32.0469 12.313 33.2703 11.6899 34.6256 11.3715C35.9855 11.0486 37.4999 11.0077 39.0554 11.3306C40.6108 11.6535 42.2071 12.3448 43.6852 13.4181C45.1634 14.4869 46.5005 15.9559 47.5374 17.7115C48.1468 18.753 48.3924 20.0355 48.2242 21.1452C48.206 21.2862 48.1832 21.4181 48.1514 21.5545C48.1196 21.6864 48.0832 21.8183 48.0377 21.9411C47.9513 22.1913 47.8512 22.4278 47.733 22.6415C47.4919 23.0736 47.1645 23.4192 46.7915 23.6557C46.0457 24.1242 45.2316 24.0696 44.5221 23.7103C44.1628 23.5329 43.8353 23.2737 43.5443 22.9599C43.3942 22.8007 43.2532 22.6279 43.1258 22.4414C42.9985 22.2549 42.8893 22.0548 42.7756 21.8411C42.2572 20.7814 41.5522 19.8445 40.7199 19.1032C39.8922 18.3573 38.9553 17.8024 37.9957 17.4522C37.5045 17.2794 37.027 17.1475 36.5312 17.0793C36.0491 16.9974 35.5534 16.9747 35.0759 16.9929C34.6029 17.0065 34.1208 17.0747 33.6705 17.1702C33.2112 17.2703 32.7609 17.4113 32.338 17.5796C31.9832 17.7206 31.633 17.8161 31.3328 17.8525C31.1828 17.8706 31.0327 17.8843 30.9008 17.8797C30.7643 17.8797 30.6461 17.8615 30.5233 17.8388C30.0594 17.7342 29.7501 17.4568 29.6273 16.9201C29.5182 16.4517 29.5546 15.8422 29.7183 15.2101Z" fill="#C1C1C1"/>
</g>
<path d="M69.7104 35.0067C68.9417 35.0067 68.3477 34.8087 67.9284 34.4127C67.5325 33.9935 67.3345 33.3995 67.3345 32.6308V12.7501C67.3345 11.9815 67.5325 11.3991 67.9284 11.0032C68.3477 10.5839 68.9417 10.3742 69.7104 10.3742H78.0959C79.8196 10.3742 81.287 10.6305 82.4983 11.1429C83.7095 11.6554 84.6296 12.3891 85.2585 13.3441C85.9107 14.2991 86.2368 15.4405 86.2368 16.7682C86.2368 18.259 85.8059 19.5168 84.9441 20.5417C84.0822 21.5666 82.9059 22.2537 81.4152 22.6031V22.079C83.1389 22.3353 84.4782 22.9875 85.4332 24.0357C86.3882 25.0838 86.8657 26.4465 86.8657 28.1236C86.8657 30.3132 86.1204 32.0136 84.6296 33.2248C83.1621 34.4127 81.1123 35.0067 78.4802 35.0067H69.7104ZM71.6321 31.6176H77.9212C79.5051 31.6176 80.6698 31.3148 81.4152 30.7091C82.1605 30.0802 82.5332 29.1485 82.5332 27.914C82.5332 26.6561 82.1605 25.7244 81.4152 25.1188C80.6698 24.5132 79.5051 24.2104 77.9212 24.2104H71.6321V31.6176ZM71.6321 20.8212H77.3272C78.8646 20.8212 80.0059 20.53 80.7513 19.9477C81.52 19.3421 81.9043 18.457 81.9043 17.2923C81.9043 16.1276 81.52 15.2542 80.7513 14.6718C80.0059 14.0662 78.8646 13.7634 77.3272 13.7634H71.6321V20.8212Z" fill="#C1C1C1"/>
<path d="M93.7655 35.0067C92.9968 35.0067 92.4029 34.8087 91.9836 34.4127C91.5876 33.9935 91.3896 33.3995 91.3896 32.6308V12.7501C91.3896 11.9815 91.5876 11.3991 91.9836 11.0032C92.4029 10.5839 92.9968 10.3742 93.7655 10.3742H106.239C106.821 10.3742 107.264 10.5256 107.567 10.8285C107.893 11.1313 108.056 11.5622 108.056 12.1212C108.056 12.7036 107.893 13.1578 107.567 13.4839C107.264 13.7867 106.821 13.9381 106.239 13.9381H95.6872V20.7164H105.47C106.076 20.7164 106.53 20.8678 106.833 21.1706C107.136 21.4734 107.287 21.916 107.287 22.4983C107.287 23.0806 107.136 23.5232 106.833 23.826C106.53 24.1288 106.076 24.2802 105.47 24.2802H95.6872V31.4429H106.239C106.821 31.4429 107.264 31.5943 107.567 31.8971C107.893 32.1999 108.056 32.6425 108.056 33.2248C108.056 33.8071 107.893 34.2497 107.567 34.5525C107.264 34.8553 106.821 35.0067 106.239 35.0067H93.7655Z" fill="#C1C1C1"/>
<path d="M120.243 35.2862C119.521 35.2862 118.962 35.0882 118.566 34.6923C118.193 34.273 118.007 33.7023 118.007 32.9802V14.1128H111.193C110.588 14.1128 110.11 13.9497 109.761 13.6236C109.435 13.2742 109.272 12.8084 109.272 12.226C109.272 11.6204 109.435 11.1662 109.761 10.8634C110.11 10.5373 110.588 10.3742 111.193 10.3742H129.292C129.898 10.3742 130.364 10.5373 130.69 10.8634C131.039 11.1662 131.214 11.6204 131.214 12.226C131.214 12.8084 131.039 13.2742 130.69 13.6236C130.364 13.9497 129.898 14.1128 129.292 14.1128H122.479V32.9802C122.479 33.7023 122.292 34.273 121.92 34.6923C121.547 35.0882 120.988 35.2862 120.243 35.2862Z" fill="#C1C1C1"/>
<path d="M131.283 35.2862C130.723 35.2862 130.269 35.1581 129.92 34.9019C129.594 34.6457 129.396 34.3079 129.326 33.8886C129.256 33.4461 129.338 32.9569 129.57 32.4212L138.795 11.9815C139.097 11.306 139.458 10.8285 139.878 10.5489C140.32 10.2461 140.821 10.0947 141.38 10.0947C141.916 10.0947 142.393 10.2461 142.813 10.5489C143.255 10.8285 143.628 11.306 143.931 11.9815L153.19 32.4212C153.446 32.9569 153.539 33.4461 153.469 33.8886C153.399 34.3312 153.201 34.6806 152.875 34.9368C152.549 35.1698 152.118 35.2862 151.582 35.2862C150.93 35.2862 150.418 35.1348 150.045 34.832C149.696 34.5059 149.381 34.0168 149.102 33.3646L146.831 28.0887L148.717 29.3116H133.973L135.86 28.0887L133.623 33.3646C133.321 34.0401 133.006 34.5292 132.68 34.832C132.354 35.1348 131.888 35.2862 131.283 35.2862ZM141.31 15.2309L136.419 26.8658L135.51 25.7477H145.999L141.38 15.2309H141.31Z" fill="#C1C1C1"/>
<path d="M159.397 35.1814C158.606 35.1814 157.965 34.9368 157.476 34.4477C157.01 33.9585 156.777 33.3296 156.777 32.5609C156.777 31.8156 157.01 31.2099 157.476 30.7441C157.965 30.2549 158.606 30.0103 159.397 30.0103C160.213 30.0103 160.842 30.2549 161.284 30.7441C161.75 31.2099 161.983 31.8156 161.983 32.5609C161.983 33.3296 161.75 33.9585 161.284 34.4477C160.842 34.9368 160.213 35.1814 159.397 35.1814Z" fill="#C1C1C1"/>
<path d="M168.623 35.2862C167.901 35.2862 167.342 35.0882 166.946 34.6923C166.573 34.273 166.387 33.7023 166.387 32.9802V12.4007C166.387 11.6554 166.573 11.0847 166.946 10.6887C167.342 10.2927 167.901 10.0947 168.623 10.0947C169.345 10.0947 169.893 10.2927 170.265 10.6887C170.661 11.0847 170.859 11.6554 170.859 12.4007V32.9802C170.859 33.7023 170.673 34.273 170.3 34.6923C169.928 35.0882 169.369 35.2862 168.623 35.2862Z" fill="#C1C1C1"/>
<path d="M178.344 35.2862C177.692 35.2862 177.191 35.0999 176.842 34.7272C176.493 34.3545 176.318 33.8421 176.318 33.1899V12.1911C176.318 11.5156 176.504 11.0032 176.877 10.6538C177.25 10.2811 177.762 10.0947 178.414 10.0947C178.997 10.0947 179.451 10.2112 179.777 10.4441C180.126 10.6538 180.441 11.0265 180.72 11.5622L189.35 27.5296H188.232L196.862 11.5622C197.142 11.0265 197.445 10.6538 197.771 10.4441C198.097 10.2112 198.551 10.0947 199.133 10.0947C199.786 10.0947 200.286 10.2811 200.636 10.6538C200.985 11.0032 201.16 11.5156 201.16 12.1911V33.1899C201.16 33.8421 200.985 34.3545 200.636 34.7272C200.31 35.0999 199.809 35.2862 199.133 35.2862C198.481 35.2862 197.98 35.0999 197.631 34.7272C197.282 34.3545 197.107 33.8421 197.107 33.1899V17.0128H197.876L190.538 30.3947C190.305 30.7907 190.061 31.0818 189.805 31.2682C189.548 31.4545 189.199 31.5477 188.756 31.5477C188.314 31.5477 187.953 31.4545 187.673 31.2682C187.394 31.0585 187.149 30.7674 186.94 30.3947L179.532 16.9778H180.371V33.1899C180.371 33.8421 180.196 34.3545 179.847 34.7272C179.521 35.0999 179.02 35.2862 178.344 35.2862Z" fill="#C1C1C1"/>
<defs>
<clipPath id="clip0_7948_12994">
<rect width="47.645" height="46.2761" fill="white" transform="translate(0.631348 0.861816)"/>
</clipPath>
</defs>
</svg>
