<svg width="163" height="44" viewBox="0 0 163 44" fill="none" xmlns="http://www.w3.org/2000/svg">
<g clip-path="url(#clip0_7727_275)">
<path d="M18.8348 32.7816C17.8574 33.6181 16.4327 33.6702 15.394 32.9103C15.394 32.9103 18.4732 35.291 19.5517 36.06C19.7631 36.2101 19.9715 36.3633 20.1829 36.5165C21.8925 37.7635 23.5715 38.9952 25.5477 38.9921C28.3389 38.9921 30.6001 36.7279 30.597 33.9367C30.597 31.1455 28.3328 28.8844 25.5416 28.8875C22.7473 28.8905 20.6884 31.1976 18.8348 32.7816Z" fill="white"/>
<path d="M20.1812 36.5165C19.4857 36.0294 18.5788 36.0906 17.9476 36.6575C15.6712 38.6949 11.7034 43.2142 7.23631 43.2172C3.30229 43.2172 0.115859 40.0339 0.112795 36.0998C0.109731 32.1689 3.29616 28.9794 7.23018 28.9763C10.7506 28.9733 14.0228 31.8502 16.817 33.9459C17.8067 34.6874 20.1812 36.5165 20.1812 36.5165Z" fill="white"/>
<path d="M20.536 19.6099C20.3031 18.3446 20.968 17.0853 22.1445 16.5645C22.1445 16.5645 18.5444 18.0412 17.3373 18.5897C17.1013 18.6969 16.8654 18.8011 16.6264 18.9083C14.6931 19.7662 12.7874 20.6026 11.8008 22.3154C10.4068 24.7327 11.2371 27.8211 13.6545 29.2152C16.0719 30.6093 19.1603 29.779 20.5543 27.3616C21.9484 24.9442 20.9802 22.009 20.536 19.6099Z" fill="white"/>
<path d="M16.6264 18.9084C17.3955 18.5499 17.7968 17.7318 17.6222 16.9015C16.9941 13.9112 15.0669 8.21545 17.2974 4.34577C19.2614 0.93874 23.6151 -0.228598 27.0222 1.73535C30.4292 3.69929 31.5965 8.05306 29.6326 11.4601C27.8739 14.5086 23.7469 15.9058 20.5359 17.2784C19.3962 17.7656 16.6264 18.9084 16.6264 18.9084Z" fill="white"/>
<path d="M31.0924 27.668C32.3057 28.0969 33.0625 29.3041 32.9246 30.5848C32.9246 30.5848 33.4455 26.7304 33.5742 25.4099C33.5987 25.1525 33.6262 24.8952 33.6538 24.6347C33.8775 22.5298 34.1042 20.4617 33.1176 18.7521C31.7205 16.3377 28.6321 15.5105 26.2147 16.9076C23.8004 18.3048 22.9731 21.3931 24.3703 23.8105C25.7674 26.2249 28.7945 26.853 31.0924 27.668Z" fill="white"/>
<path d="M33.6582 24.6345C33.5847 25.4802 34.0902 26.2339 34.8991 26.5004C37.8036 27.4533 43.6985 28.6298 45.9351 32.4964C47.9022 35.9004 46.7379 40.2542 43.3339 42.2242C39.9299 44.1912 35.5762 43.027 33.6061 39.623C31.8444 36.5744 32.6992 32.3034 33.1159 28.8351C33.2599 27.6034 33.6582 24.6345 33.6582 24.6345Z" fill="white"/>
<path opacity="0.2" d="M33.1102 28.8356C32.9386 30.2572 32.6966 31.8137 32.5894 33.364C32.954 30.9895 33.8946 28.4894 34.8076 26.4672C34.0508 26.1792 33.5821 25.45 33.6556 24.635C33.6556 24.635 33.2573 27.6039 33.1102 28.8356Z" fill="white"/>
<path opacity="0.2" d="M20.1812 36.5166C20.1812 36.5166 17.8067 34.6875 16.817 33.946C15.8366 33.2107 14.7979 32.3804 13.7103 31.6113C15.5333 32.9809 17.0223 35.1225 17.9445 36.6606C17.9476 36.6606 17.9476 36.6575 17.9507 36.6575C18.5788 36.0938 19.4857 36.0294 20.1812 36.5166Z" fill="white"/>
<path opacity="0.2" d="M17.6395 16.9934C17.7682 17.7931 17.3699 18.5621 16.6284 18.9083C16.6284 18.9083 19.3982 17.7655 20.5379 17.2814C21.451 16.8923 22.4345 16.5001 23.418 16.0681C21.5827 16.7391 19.3308 16.9444 17.6395 16.9934Z" fill="white"/>
</g>
<path d="M79.9574 34.6463C77.2819 34.6463 75.0181 34.1432 73.1659 33.1371C71.3365 32.1309 69.9417 30.7017 68.9813 28.8495C68.0209 26.9973 67.5406 24.8021 67.5406 22.2639C67.5406 20.3431 67.8151 18.6166 68.3639 17.0845C68.9355 15.5524 69.7473 14.249 70.7992 13.1743C71.8739 12.0767 73.1773 11.242 74.7094 10.6704C76.2415 10.0758 77.9794 9.77856 79.9231 9.77856C81.2036 9.77856 82.4841 9.93862 83.7647 10.2588C85.0681 10.556 86.2915 11.0705 87.4348 11.8023C87.8236 12.0538 88.0751 12.3625 88.1894 12.7284C88.3266 13.0943 88.3495 13.4716 88.258 13.8603C88.1666 14.2262 87.9951 14.5463 87.7435 14.8207C87.492 15.0951 87.1719 15.2666 86.7831 15.3352C86.4172 15.4038 86.0056 15.3123 85.5483 15.0608C84.6794 14.5577 83.799 14.1919 82.9072 13.9632C82.0154 13.7345 81.0207 13.6202 79.9231 13.6202C78.2309 13.6202 76.8017 13.9632 75.6355 14.6492C74.4693 15.3123 73.5889 16.2842 72.9944 17.5647C72.4227 18.8453 72.1369 20.4117 72.1369 22.2639C72.1369 25.0765 72.8115 27.2145 74.1606 28.678C75.5098 30.1415 77.5106 30.8732 80.1632 30.8732C81.0778 30.8732 82.0039 30.7818 82.9415 30.5988C83.879 30.4159 84.7937 30.1644 85.6855 29.8442L84.828 31.7994V24.4934H81.055C80.4833 24.4934 80.0374 24.3448 79.7173 24.0475C79.42 23.7502 79.2714 23.35 79.2714 22.847C79.2714 22.321 79.42 21.9209 79.7173 21.6465C80.0374 21.3721 80.4833 21.2349 81.055 21.2349H86.7145C87.2862 21.2349 87.7207 21.3949 88.0179 21.7151C88.3381 22.0123 88.4981 22.4468 88.4981 23.0185V31.3535C88.4981 31.8565 88.3952 32.2796 88.1894 32.6226C88.0065 32.9656 87.6978 33.2171 87.2633 33.3772C86.2572 33.743 85.1024 34.0517 83.799 34.3033C82.4956 34.5319 81.215 34.6463 79.9574 34.6463Z" fill="white"/>
<path d="M101.441 34.6463C99.5427 34.6463 97.9077 34.2918 96.5357 33.583C95.1636 32.8741 94.1003 31.868 93.3457 30.5645C92.614 29.2611 92.2481 27.7176 92.2481 25.934C92.2481 24.1961 92.6026 22.6755 93.3114 21.3721C94.0432 20.0686 95.0379 19.0511 96.2956 18.3193C97.5761 17.5647 99.0281 17.1874 100.652 17.1874C101.841 17.1874 102.904 17.3818 103.842 17.7705C104.802 18.1593 105.614 18.7195 106.277 19.4512C106.963 20.183 107.477 21.0748 107.82 22.1267C108.186 23.1557 108.369 24.3219 108.369 25.6253C108.369 26.0369 108.221 26.357 107.923 26.5857C107.649 26.7915 107.249 26.8944 106.723 26.8944H95.7125V24.4248H105.351L104.802 24.9393C104.802 23.8874 104.642 23.007 104.322 22.2982C104.025 21.5893 103.579 21.0519 102.984 20.6861C102.412 20.2973 101.692 20.1029 100.823 20.1029C99.8628 20.1029 99.0396 20.3316 98.3536 20.789C97.6904 21.2234 97.1759 21.8523 96.8101 22.6755C96.4671 23.4758 96.2956 24.4362 96.2956 25.5567V25.7968C96.2956 27.6719 96.73 29.0782 97.599 30.0157C98.4908 30.9304 99.7942 31.3878 101.509 31.3878C102.104 31.3878 102.767 31.3192 103.499 31.182C104.253 31.0219 104.962 30.7589 105.625 30.393C106.105 30.1186 106.528 30.0043 106.894 30.05C107.26 30.0729 107.546 30.1987 107.752 30.4273C107.981 30.656 108.118 30.9418 108.163 31.2849C108.209 31.605 108.141 31.9366 107.958 32.2796C107.798 32.6226 107.512 32.9198 107.1 33.1714C106.3 33.6744 105.374 34.0517 104.322 34.3033C103.293 34.5319 102.332 34.6463 101.441 34.6463Z" fill="white"/>
<path d="M113.891 34.5777C113.205 34.5777 112.679 34.3947 112.314 34.0289C111.948 33.6401 111.765 33.0913 111.765 32.3825V19.4169C111.765 18.7081 111.948 18.1707 112.314 17.8048C112.679 17.439 113.194 17.256 113.857 17.256C114.52 17.256 115.035 17.439 115.401 17.8048C115.766 18.1707 115.949 18.7081 115.949 19.4169V21.7494L115.572 20.8919C116.075 19.6799 116.853 18.7652 117.904 18.1478C118.979 17.5076 120.191 17.1874 121.54 17.1874C122.889 17.1874 123.998 17.439 124.867 17.942C125.736 18.4451 126.388 19.2111 126.823 20.2402C127.257 21.2463 127.474 22.5268 127.474 24.0818V32.3825C127.474 33.0913 127.291 33.6401 126.925 34.0289C126.56 34.3947 126.034 34.5777 125.348 34.5777C124.662 34.5777 124.124 34.3947 123.736 34.0289C123.37 33.6401 123.187 33.0913 123.187 32.3825V24.2876C123.187 22.9842 122.935 22.0352 122.432 21.4407C121.952 20.8461 121.197 20.5489 120.168 20.5489C118.911 20.5489 117.904 20.949 117.15 21.7494C116.418 22.5268 116.052 23.5673 116.052 24.8707V32.3825C116.052 33.8459 115.332 34.5777 113.891 34.5777Z" fill="white"/>
<path d="M141.845 34.5777C141.227 34.5777 140.713 34.4405 140.301 34.1661C139.912 33.8688 139.592 33.4343 139.341 32.8627L130.388 12.7627C130.137 12.191 130.068 11.6879 130.183 11.2535C130.297 10.819 130.537 10.476 130.903 10.2245C131.269 9.97292 131.703 9.84715 132.206 9.84715C132.87 9.84715 133.361 9.99579 133.681 10.2931C134.024 10.5675 134.31 10.9905 134.539 11.5622L142.668 30.393H141.193L149.288 11.5279C149.539 10.9791 149.837 10.5675 150.18 10.2931C150.523 9.99579 151.003 9.84715 151.62 9.84715C152.123 9.84715 152.535 9.97292 152.855 10.2245C153.198 10.476 153.415 10.819 153.507 11.2535C153.598 11.6879 153.518 12.191 153.267 12.7627L144.314 32.8627C144.063 33.4343 143.743 33.8688 143.354 34.1661C142.988 34.4405 142.485 34.5777 141.845 34.5777Z" fill="white"/>
<path d="M160.116 34.5434C159.43 34.5434 158.904 34.3376 158.539 33.926C158.173 33.5144 157.99 32.9427 157.99 32.211V19.6227C157.99 18.8681 158.173 18.2965 158.539 17.9077C158.904 17.4961 159.43 17.2903 160.116 17.2903C160.802 17.2903 161.328 17.4961 161.694 17.9077C162.083 18.2965 162.277 18.8681 162.277 19.6227V32.211C162.277 32.9427 162.094 33.5144 161.728 33.926C161.363 34.3376 160.825 34.5434 160.116 34.5434ZM160.116 14.1004C159.316 14.1004 158.687 13.906 158.23 13.5173C157.795 13.1057 157.578 12.5454 157.578 11.8366C157.578 11.1048 157.795 10.5446 158.23 10.1559C158.687 9.76712 159.316 9.57275 160.116 9.57275C160.94 9.57275 161.568 9.76712 162.003 10.1559C162.437 10.5446 162.655 11.1048 162.655 11.8366C162.655 12.5454 162.437 13.1057 162.003 13.5173C161.568 13.906 160.94 14.1004 160.116 14.1004Z" fill="white"/>
<defs>
<clipPath id="clip0_7727_275">
<rect width="46.7731" height="42.4347" fill="white" transform="translate(0.112793 0.782715)"/>
</clipPath>
</defs>
</svg>
