<svg width="163" height="44" viewBox="0 0 163 44" fill="none" xmlns="http://www.w3.org/2000/svg">
<g clip-path="url(#clip0_7948_13018)">
<path d="M19.18 32.7814C18.2026 33.6178 16.7779 33.6699 15.7393 32.9101C15.7393 32.9101 18.8185 35.2907 19.8969 36.0597C20.1083 36.2099 20.3167 36.3631 20.5281 36.5163C22.2377 37.7633 23.9167 38.9949 25.8929 38.9919C28.6841 38.9919 30.9453 36.7277 30.9422 33.9365C30.9422 31.1453 28.678 28.8841 25.8868 28.8872C23.0926 28.8903 21.0336 31.1974 19.18 32.7814Z" fill="#615F6F"/>
<path d="M20.5264 36.5163C19.8309 36.0291 18.924 36.0904 18.2928 36.6572C16.0164 38.6947 12.0487 43.2139 7.58152 43.217C3.6475 43.217 0.461074 40.0336 0.45801 36.0996C0.454946 32.1686 3.64138 28.9791 7.57539 28.9761C11.0958 28.973 14.368 31.85 17.1623 33.9457C18.1519 34.6871 20.5264 36.5163 20.5264 36.5163Z" fill="#C1C1C1"/>
<path d="M20.8812 19.6095C20.6483 18.3441 21.3132 17.0848 22.4897 16.564C22.4897 16.564 18.8896 18.0408 17.6825 18.5892C17.4466 18.6964 17.2106 18.8006 16.9717 18.9078C15.0384 19.7657 13.1326 20.6022 12.1461 22.3149C10.752 24.7323 11.5823 27.8207 13.9997 29.2147C16.4171 30.6088 19.5055 29.7785 20.8995 27.3611C22.2936 24.9437 21.3254 22.0085 20.8812 19.6095Z" fill="#615F6F"/>
<path d="M16.9717 18.9081C17.7407 18.5497 18.1421 17.7316 17.9674 16.9013C17.3393 13.9109 15.4122 8.2152 17.6427 4.34553C19.6066 0.938495 23.9604 -0.228842 27.3674 1.7351C30.7744 3.69905 31.9418 8.05282 29.9778 11.4598C28.2192 14.5084 24.0921 15.9055 20.8812 17.2782C19.7414 17.7653 16.9717 18.9081 16.9717 18.9081Z" fill="#C1C1C1"/>
<path d="M31.4376 27.6677C32.6509 28.0967 33.4077 29.3038 33.2698 30.5845C33.2698 30.5845 33.7907 26.7302 33.9194 25.4096C33.9439 25.1523 33.9715 24.8949 33.999 24.6345C34.2227 22.5296 34.4494 20.4615 33.4629 18.7518C32.0657 16.3375 28.9773 15.5103 26.5599 16.9074C24.1456 18.3045 23.3184 21.3929 24.7155 23.8103C26.1126 26.2246 29.1397 26.8527 31.4376 27.6677Z" fill="#615F6F"/>
<path d="M34.0034 24.6343C33.9299 25.4799 34.4354 26.2336 35.2443 26.5002C38.1488 27.453 44.0437 28.6296 46.2804 32.4962C48.2474 35.9002 47.0831 40.2539 43.6791 42.224C40.2752 44.191 35.9214 43.0267 33.9513 39.6228C32.1896 36.5742 33.0444 32.3032 33.4611 28.8349C33.6051 27.6032 34.0034 24.6343 34.0034 24.6343Z" fill="#C1C1C1"/>
<path opacity="0.2" d="M33.4554 28.8358C33.2839 30.2575 33.0418 31.8139 32.9346 33.3642C33.2992 30.9897 34.2398 28.4896 35.1528 26.4675C34.396 26.1794 33.9273 25.4502 34.0008 24.6353C34.0008 24.6353 33.6025 27.6041 33.4554 28.8358Z" fill="#C1C1C1"/>
<path opacity="0.2" d="M20.5266 36.5161C20.5266 36.5161 18.1521 34.687 17.1624 33.9455C16.182 33.2102 15.1433 32.3799 14.0557 31.6108C15.8787 32.9804 17.3677 35.122 18.2899 36.6601C18.293 36.6601 18.293 36.657 18.2961 36.657C18.9242 36.0933 19.8311 36.0289 20.5266 36.5161Z" fill="#C1C1C1"/>
<path opacity="0.2" d="M17.9847 16.9932C18.1134 17.7928 17.7151 18.5619 16.9736 18.9081C16.9736 18.9081 19.7434 17.7653 20.8831 17.2812C21.7962 16.8921 22.7797 16.4999 23.7632 16.0679C21.9279 16.7389 19.676 16.9441 17.9847 16.9932Z" fill="#C1C1C1"/>
</g>
<path d="M80.3026 34.6463C77.6272 34.6463 75.3633 34.1432 73.5111 33.1371C71.6818 32.1309 70.2869 30.7017 69.3265 28.8495C68.3661 26.9973 67.8859 24.8021 67.8859 22.2639C67.8859 20.3431 68.1603 18.6166 68.7091 17.0845C69.2807 15.5524 70.0925 14.249 71.1444 13.1743C72.2191 12.0767 73.5225 11.242 75.0546 10.6704C76.5867 10.0758 78.3246 9.77856 80.2683 9.77856C81.5488 9.77856 82.8294 9.93862 84.1099 10.2588C85.4133 10.556 86.6367 11.0705 87.78 11.8023C88.1688 12.0538 88.4203 12.3625 88.5346 12.7284C88.6718 13.0943 88.6947 13.4716 88.6032 13.8603C88.5118 14.2262 88.3403 14.5463 88.0887 14.8207C87.8372 15.0951 87.5171 15.2666 87.1283 15.3352C86.7625 15.4038 86.3509 15.3123 85.8935 15.0608C85.0246 14.5577 84.1442 14.1919 83.2524 13.9632C82.3606 13.7345 81.3659 13.6202 80.2683 13.6202C78.5761 13.6202 77.1469 13.9632 75.9807 14.6492C74.8145 15.3123 73.9342 16.2842 73.3396 17.5647C72.7679 18.8453 72.4821 20.4117 72.4821 22.2639C72.4821 25.0765 73.1567 27.2145 74.5058 28.678C75.855 30.1415 77.8558 30.8732 80.5084 30.8732C81.423 30.8732 82.3492 30.7818 83.2867 30.5988C84.2242 30.4159 85.1389 30.1644 86.0307 29.8442L85.1732 31.7994V24.4934H81.4002C80.8285 24.4934 80.3826 24.3448 80.0625 24.0475C79.7652 23.7502 79.6166 23.35 79.6166 22.847C79.6166 22.321 79.7652 21.9209 80.0625 21.6465C80.3826 21.3721 80.8285 21.2349 81.4002 21.2349H87.0597C87.6314 21.2349 88.0659 21.3949 88.3631 21.7151C88.6833 22.0123 88.8433 22.4468 88.8433 23.0185V31.3535C88.8433 31.8565 88.7404 32.2796 88.5346 32.6226C88.3517 32.9656 88.043 33.2171 87.6085 33.3772C86.6024 33.743 85.4476 34.0517 84.1442 34.3033C82.8408 34.5319 81.5603 34.6463 80.3026 34.6463Z" fill="#C1C1C1"/>
<path d="M101.786 34.6463C99.8879 34.6463 98.2529 34.2918 96.8809 33.583C95.5089 32.8741 94.4456 31.868 93.6909 30.5645C92.9592 29.2611 92.5933 27.7176 92.5933 25.934C92.5933 24.1961 92.9478 22.6755 93.6566 21.3721C94.3884 20.0686 95.3831 19.0511 96.6408 18.3193C97.9213 17.5647 99.3734 17.1874 100.997 17.1874C102.186 17.1874 103.249 17.3818 104.187 17.7705C105.147 18.1593 105.959 18.7195 106.622 19.4512C107.308 20.183 107.823 21.0748 108.166 22.1267C108.532 23.1557 108.714 24.3219 108.714 25.6253C108.714 26.0369 108.566 26.357 108.269 26.5857C107.994 26.7915 107.594 26.8944 107.068 26.8944H96.0577V24.4248H105.696L105.147 24.9393C105.147 23.8874 104.987 23.007 104.667 22.2982C104.37 21.5893 103.924 21.0519 103.329 20.6861C102.758 20.2973 102.037 20.1029 101.168 20.1029C100.208 20.1029 99.3848 20.3316 98.6988 20.789C98.0356 21.2234 97.5211 21.8523 97.1553 22.6755C96.8123 23.4758 96.6408 24.4362 96.6408 25.5567V25.7968C96.6408 27.6719 97.0752 29.0782 97.9442 30.0157C98.836 30.9304 100.139 31.3878 101.854 31.3878C102.449 31.3878 103.112 31.3192 103.844 31.182C104.598 31.0219 105.307 30.7589 105.97 30.393C106.451 30.1186 106.874 30.0043 107.24 30.05C107.605 30.0729 107.891 30.1987 108.097 30.4273C108.326 30.656 108.463 30.9418 108.509 31.2849C108.554 31.605 108.486 31.9366 108.303 32.2796C108.143 32.6226 107.857 32.9198 107.445 33.1714C106.645 33.6744 105.719 34.0517 104.667 34.3033C103.638 34.5319 102.678 34.6463 101.786 34.6463Z" fill="#C1C1C1"/>
<path d="M114.237 34.5777C113.551 34.5777 113.025 34.3947 112.659 34.0289C112.293 33.6401 112.11 33.0913 112.11 32.3825V19.4169C112.11 18.7081 112.293 18.1707 112.659 17.8048C113.025 17.439 113.539 17.256 114.202 17.256C114.865 17.256 115.38 17.439 115.746 17.8048C116.112 18.1707 116.295 18.7081 116.295 19.4169V21.7494L115.917 20.8919C116.42 19.6799 117.198 18.7652 118.25 18.1478C119.324 17.5076 120.536 17.1874 121.886 17.1874C123.235 17.1874 124.344 17.439 125.213 17.942C126.082 18.4451 126.733 19.2111 127.168 20.2402C127.602 21.2463 127.819 22.5268 127.819 24.0818V32.3825C127.819 33.0913 127.637 33.6401 127.271 34.0289C126.905 34.3947 126.379 34.5777 125.693 34.5777C125.007 34.5777 124.469 34.3947 124.081 34.0289C123.715 33.6401 123.532 33.0913 123.532 32.3825V24.2876C123.532 22.9842 123.28 22.0352 122.777 21.4407C122.297 20.8461 121.543 20.5489 120.514 20.5489C119.256 20.5489 118.25 20.949 117.495 21.7494C116.763 22.5268 116.397 23.5673 116.397 24.8707V32.3825C116.397 33.8459 115.677 34.5777 114.237 34.5777Z" fill="#C1C1C1"/>
<path d="M142.19 34.5777C141.573 34.5777 141.058 34.4405 140.646 34.1661C140.258 33.8688 139.938 33.4343 139.686 32.8627L130.734 12.7627C130.482 12.191 130.414 11.6879 130.528 11.2535C130.642 10.819 130.882 10.476 131.248 10.2245C131.614 9.97292 132.049 9.84715 132.552 9.84715C133.215 9.84715 133.706 9.99579 134.026 10.2931C134.369 10.5675 134.655 10.9905 134.884 11.5622L143.013 30.393H141.538L149.633 11.5279C149.885 10.9791 150.182 10.5675 150.525 10.2931C150.868 9.99579 151.348 9.84715 151.966 9.84715C152.469 9.84715 152.88 9.97292 153.2 10.2245C153.543 10.476 153.761 10.819 153.852 11.2535C153.944 11.6879 153.863 12.191 153.612 12.7627L144.66 32.8627C144.408 33.4343 144.088 33.8688 143.699 34.1661C143.333 34.4405 142.83 34.5777 142.19 34.5777Z" fill="#C1C1C1"/>
<path d="M160.462 34.5434C159.776 34.5434 159.25 34.3376 158.884 33.926C158.518 33.5144 158.335 32.9427 158.335 32.211V19.6227C158.335 18.8681 158.518 18.2965 158.884 17.9077C159.25 17.4961 159.776 17.2903 160.462 17.2903C161.148 17.2903 161.674 17.4961 162.039 17.9077C162.428 18.2965 162.622 18.8681 162.622 19.6227V32.211C162.622 32.9427 162.44 33.5144 162.074 33.926C161.708 34.3376 161.17 34.5434 160.462 34.5434ZM160.462 14.1004C159.661 14.1004 159.032 13.906 158.575 13.5173C158.141 13.1057 157.923 12.5454 157.923 11.8366C157.923 11.1048 158.141 10.5446 158.575 10.1559C159.032 9.76712 159.661 9.57275 160.462 9.57275C161.285 9.57275 161.914 9.76712 162.348 10.1559C162.783 10.5446 163 11.1048 163 11.8366C163 12.5454 162.783 13.1057 162.348 13.5173C161.914 13.906 161.285 14.1004 160.462 14.1004Z" fill="#C1C1C1"/>
<defs>
<clipPath id="clip0_7948_13018">
<rect width="46.7731" height="42.4347" fill="white" transform="translate(0.458008 0.782715)"/>
</clipPath>
</defs>
</svg>
