<svg width="163" height="43" viewBox="0 0 163 43" fill="none" xmlns="http://www.w3.org/2000/svg">
<g clip-path="url(#clip0_7993_5212)">
<path d="M19.1802 31.9997C18.2029 32.8361 16.7782 32.8882 15.7395 32.1283C15.7395 32.1283 18.8187 34.509 19.8972 35.278C20.1086 35.4281 20.3169 35.5813 20.5283 35.7345C22.238 36.9815 23.917 38.2132 25.8932 38.2101C28.6844 38.2101 30.9455 35.9459 30.9425 33.1547C30.9425 30.3635 28.6782 28.1024 25.8871 28.1055C23.0928 28.1085 21.0339 30.4156 19.1802 31.9997Z" fill="#121215"/>
<path d="M20.5266 35.7336C19.8311 35.2464 18.9242 35.3077 18.2931 35.8745C16.0166 37.912 12.0489 42.4312 7.58176 42.4343C3.64775 42.4343 0.461318 39.2509 0.458254 35.3169C0.45519 31.3859 3.64162 28.1964 7.57564 28.1934C11.096 28.1903 14.3682 31.0673 17.1625 33.163C18.1521 33.9044 20.5266 35.7336 20.5266 35.7336Z" fill="#121215"/>
<path d="M20.8814 18.8287C20.6486 17.5633 21.3134 16.3041 22.4899 15.7832C22.4899 15.7832 18.8899 17.26 17.6827 17.8084C17.4468 17.9157 17.2109 18.0198 16.9719 18.1271C15.0386 18.985 13.1329 19.8214 12.1463 21.5341C10.7522 23.9515 11.5825 27.0399 13.9999 28.434C16.4173 29.828 19.5057 28.9977 20.8998 26.5803C22.2939 24.1629 21.3257 21.2277 20.8814 18.8287Z" fill="#121215"/>
<path d="M16.9718 18.1264C17.7409 17.7679 18.1422 16.9499 17.9676 16.1196C17.3395 13.1292 15.4123 7.43347 17.6428 3.56379C19.6068 0.156757 23.9605 -1.01058 27.3676 0.953365C30.7746 2.91731 31.9419 7.27108 29.978 10.6781C28.2193 13.7267 24.0923 15.1238 20.8813 16.4964C19.7416 16.9836 16.9718 18.1264 16.9718 18.1264Z" fill="#121215"/>
<path d="M31.4379 26.887C32.6512 27.3159 33.408 28.5231 33.2701 29.8038C33.2701 29.8038 33.7909 25.9494 33.9196 24.6289C33.9441 24.3715 33.9717 24.1141 33.9993 23.8537C34.2229 21.7488 34.4497 19.6807 33.4631 17.9711C32.066 15.5567 28.9776 14.7295 26.5602 16.1266C24.1459 17.5237 23.3186 20.6121 24.7157 23.0295C26.1129 25.4439 29.14 26.072 31.4379 26.887Z" fill="#121215"/>
<path d="M34.0037 23.8535C33.9301 24.6991 34.4357 25.4529 35.2445 25.7194C38.1491 26.6723 44.044 27.8488 46.2806 31.7154C48.2476 35.1194 47.0833 39.4732 43.6794 41.4432C40.2754 43.4102 35.9216 42.246 33.9516 38.842C32.1898 35.7934 33.0447 31.5224 33.4613 28.0541C33.6053 26.8224 34.0037 23.8535 34.0037 23.8535Z" fill="#121215"/>
<path opacity="0.2" d="M33.4557 28.0541C33.2841 29.4757 33.0421 31.0322 32.9348 32.5825C33.2994 30.208 34.24 27.7079 35.1531 25.6857C34.3963 25.3977 33.9275 24.6685 34.001 23.8535C34.001 23.8535 33.6027 26.8224 33.4557 28.0541Z" fill="#121215"/>
<path opacity="0.2" d="M20.5268 35.7353C20.5268 35.7353 18.1523 33.9062 17.1627 33.1648C16.1822 32.4294 15.1436 31.5991 14.0559 30.8301C15.8789 32.1996 17.368 34.3413 18.2902 35.8793C18.2933 35.8793 18.2933 35.8763 18.2963 35.8763C18.9244 35.3125 19.8313 35.2482 20.5268 35.7353Z" fill="#121215"/>
<path opacity="0.2" d="M17.985 16.2124C18.1136 17.0121 17.7153 17.7811 16.9739 18.1273C16.9739 18.1273 19.7436 16.9845 20.8834 16.5004C21.7964 16.1113 22.7799 15.7191 23.7634 15.2871C21.9282 15.9581 19.6762 16.1634 17.985 16.2124Z" fill="#121215"/>
</g>
<path d="M80.3027 33.8636C77.6273 33.8636 75.3635 33.3605 73.5112 32.3544C71.6819 31.3482 70.287 29.919 69.3266 28.0668C68.3662 26.2146 67.886 24.0194 67.886 21.4812C67.886 19.5603 68.1604 17.8339 68.7092 16.3018C69.2809 14.7697 70.0926 13.4663 71.1445 12.3916C72.2193 11.294 73.5227 10.4593 75.0547 9.88765C76.5868 9.29311 78.3247 8.99584 80.2684 8.99584C81.5489 8.99584 82.8295 9.15591 84.11 9.47604C85.4134 9.77331 86.6368 10.2878 87.7802 11.0196C88.1689 11.2711 88.4204 11.5798 88.5348 11.9457C88.672 12.3115 88.6948 12.6888 88.6034 13.0776C88.5119 13.4434 88.3404 13.7636 88.0889 14.038C87.8373 14.3124 87.5172 14.4839 87.1285 14.5525C86.7626 14.6211 86.351 14.5296 85.8936 14.2781C85.0247 13.775 84.1443 13.4091 83.2525 13.1805C82.3607 12.9518 81.366 12.8375 80.2684 12.8375C78.5762 12.8375 77.1471 13.1805 75.9809 13.8665C74.8146 14.5296 73.9343 15.5015 73.3397 16.782C72.7681 18.0626 72.4822 19.6289 72.4822 21.4812C72.4822 24.2938 73.1568 26.4318 74.5059 27.8953C75.8551 29.3588 77.8559 30.0905 80.5085 30.0905C81.4232 30.0905 82.3493 29.9991 83.2868 29.8161C84.2244 29.6332 85.139 29.3817 86.0308 29.0615L85.1733 31.0166V23.7107H81.4003C80.8286 23.7107 80.3827 23.562 80.0626 23.2648C79.7653 22.9675 79.6167 22.5673 79.6167 22.0643C79.6167 21.5383 79.7653 21.1382 80.0626 20.8637C80.3827 20.5893 80.8286 20.4521 81.4003 20.4521H87.0599C87.6315 20.4521 88.066 20.6122 88.3633 20.9323C88.6834 21.2296 88.8435 21.6641 88.8435 22.2358V30.5707C88.8435 31.0738 88.7406 31.4968 88.5348 31.8398C88.3518 32.1829 88.0431 32.4344 87.6087 32.5945C86.6025 32.9603 85.4477 33.269 84.1443 33.5206C82.8409 33.7492 81.5604 33.8636 80.3027 33.8636Z" fill="#121215"/>
<path d="M101.786 33.8636C99.888 33.8636 98.253 33.5091 96.881 32.8003C95.509 32.0914 94.4457 31.0852 93.6911 29.7818C92.9593 28.4784 92.5935 26.9349 92.5935 25.1513C92.5935 23.4134 92.9479 21.8928 93.6568 20.5893C94.3885 19.2859 95.3832 18.2684 96.6409 17.5366C97.9214 16.782 99.3735 16.4047 100.997 16.4047C102.186 16.4047 103.249 16.5991 104.187 16.9878C105.147 17.3765 105.959 17.9368 106.622 18.6685C107.308 19.4003 107.823 20.2921 108.166 21.344C108.532 22.373 108.715 23.5392 108.715 24.8426C108.715 25.2542 108.566 25.5743 108.269 25.803C107.994 26.0088 107.594 26.1117 107.068 26.1117H96.0578V23.6421H105.696L105.147 24.1566C105.147 23.1047 104.987 22.2243 104.667 21.5155C104.37 20.8066 103.924 20.2692 103.329 19.9033C102.758 19.5146 102.037 19.3202 101.169 19.3202C100.208 19.3202 99.3849 19.5489 98.6989 20.0062C98.0358 20.4407 97.5213 21.0696 97.1554 21.8928C96.8124 22.6931 96.6409 23.6535 96.6409 24.774V25.0141C96.6409 26.8892 97.0754 28.2955 97.9443 29.233C98.8361 30.1477 100.14 30.605 101.855 30.605C102.449 30.605 103.112 30.5364 103.844 30.3992C104.599 30.2392 105.307 29.9762 105.971 29.6103C106.451 29.3359 106.874 29.2216 107.24 29.2673C107.606 29.2902 107.891 29.416 108.097 29.6446C108.326 29.8733 108.463 30.1591 108.509 30.5021C108.555 30.8223 108.486 31.1538 108.303 31.4968C108.143 31.8398 107.857 32.1371 107.445 32.3887C106.645 32.8917 105.719 33.269 104.667 33.5206C103.638 33.7492 102.678 33.8636 101.786 33.8636Z" fill="#121215"/>
<path d="M114.237 33.795C113.551 33.795 113.025 33.612 112.659 33.2462C112.293 32.8574 112.11 32.3086 112.11 31.5997V18.6342C112.11 17.9254 112.293 17.388 112.659 17.0221C113.025 16.6562 113.539 16.4733 114.202 16.4733C114.866 16.4733 115.38 16.6562 115.746 17.0221C116.112 17.388 116.295 17.9254 116.295 18.6342V20.9666L115.917 20.1091C116.42 18.8972 117.198 17.9825 118.25 17.3651C119.325 16.7248 120.537 16.4047 121.886 16.4047C123.235 16.4047 124.344 16.6562 125.213 17.1593C126.082 17.6624 126.733 18.4284 127.168 19.4574C127.602 20.4636 127.82 21.7441 127.82 23.2991V31.5997C127.82 32.3086 127.637 32.8574 127.271 33.2462C126.905 33.612 126.379 33.795 125.693 33.795C125.007 33.795 124.47 33.612 124.081 33.2462C123.715 32.8574 123.532 32.3086 123.532 31.5997V23.5049C123.532 22.2015 123.281 21.2525 122.777 20.6579C122.297 20.0634 121.543 19.7661 120.514 19.7661C119.256 19.7661 118.25 20.1663 117.495 20.9666C116.763 21.7441 116.398 22.7846 116.398 24.088V31.5997C116.398 33.0632 115.677 33.795 114.237 33.795Z" fill="#121215"/>
<path d="M142.19 33.795C141.573 33.795 141.058 33.6578 140.647 33.3834C140.258 33.0861 139.938 32.6516 139.686 32.08L130.734 11.98C130.482 11.4083 130.414 10.9052 130.528 10.4708C130.642 10.0363 130.882 9.69328 131.248 9.44174C131.614 9.19021 132.049 9.06444 132.552 9.06444C133.215 9.06444 133.706 9.21307 134.027 9.51034C134.37 9.78475 134.655 10.2078 134.884 10.7795L143.013 29.6103H141.538L149.633 10.7452C149.885 10.1964 150.182 9.78475 150.525 9.51034C150.868 9.21307 151.348 9.06444 151.966 9.06444C152.469 9.06444 152.88 9.19021 153.2 9.44174C153.543 9.69328 153.761 10.0363 153.852 10.4708C153.944 10.9052 153.864 11.4083 153.612 11.98L144.66 32.08C144.408 32.6516 144.088 33.0861 143.699 33.3834C143.333 33.6578 142.83 33.795 142.19 33.795Z" fill="#121215"/>
<path d="M160.462 33.7607C159.776 33.7607 159.25 33.5549 158.884 33.1433C158.518 32.7317 158.335 32.16 158.335 31.4282V18.84C158.335 18.0854 158.518 17.5138 158.884 17.125C159.25 16.7134 159.776 16.5076 160.462 16.5076C161.148 16.5076 161.674 16.7134 162.04 17.125C162.428 17.5138 162.623 18.0854 162.623 18.84V31.4282C162.623 32.16 162.44 32.7317 162.074 33.1433C161.708 33.5549 161.171 33.7607 160.462 33.7607ZM160.462 13.3177C159.661 13.3177 159.033 13.1233 158.575 12.7346C158.141 12.323 157.923 11.7627 157.923 11.0539C157.923 10.3221 158.141 9.76188 158.575 9.37314C159.033 8.98441 159.661 8.79004 160.462 8.79004C161.285 8.79004 161.914 8.98441 162.348 9.37314C162.783 9.76188 163 10.3221 163 11.0539C163 11.7627 162.783 12.323 162.348 12.7346C161.914 13.1233 161.285 13.3177 160.462 13.3177Z" fill="#121215"/>
<defs>
<clipPath id="clip0_7993_5212">
<rect width="46.7731" height="42.4347" fill="white" transform="translate(0.458252)"/>
</clipPath>
</defs>
</svg>
