<svg width="230" height="48" viewBox="0 0 230 48" fill="none" xmlns="http://www.w3.org/2000/svg">
<g clip-path="url(#clip0_8811_1662)">
<path d="M36.5829 5.1412L35.744 3.01061C35.744 3.01061 35.3992 2.01222 35.2294 1.70859C35.1522 1.56449 34.9721 1.35863 34.8125 1.1991C33.9891 0.375682 32.8312 0.020584 31.8019 0.34995C31.1638 0.555804 30.5565 0.838854 30.5565 0.838854C30.5565 0.838854 30.5514 0.833707 30.5514 0.838854L28.4259 1.77034C27.7312 2.07398 27.021 2.30042 26.2902 2.45481C24.772 2.77388 23.2075 2.77388 21.6996 2.45481C20.9689 2.30042 20.2535 2.07398 19.5588 1.77034L17.5671 0.90061C17.5671 0.90061 16.4452 0.355097 16.0489 0.236731C15.0608 -0.0566113 13.9544 0.380828 13.1721 1.16307C13.0383 1.29688 12.8222 1.58507 12.7347 1.74976C12.5546 2.09456 12.2355 3.05693 12.2355 3.05693L11.4121 5.1515C11.1342 5.85655 10.7894 6.52042 10.3828 7.14828C10.9695 7.02477 11.6231 7.10711 12.3384 7.42104L15.5086 8.8054L18.1847 9.97363L18.2876 10.0199L21.4835 11.4095C23.084 12.1094 24.9058 12.1094 26.5063 11.4146L29.7022 10.0199L29.8051 9.97363L32.4812 8.8054L35.6514 7.42104C36.3667 7.11225 37.0203 7.01962 37.607 7.14828C37.2056 6.51013 36.8608 5.84625 36.5829 5.1412Z" fill="white"/>
<path d="M42.8316 36.6058L44.9622 35.767L46.2643 35.2523H46.2694L46.2746 35.2472C46.4547 35.1237 46.6142 34.9899 46.7737 34.8355C47.5972 34.0121 47.8956 32.8593 47.6692 31.8043C47.6744 31.7991 47.6692 31.7991 47.6692 31.7991L47.6641 31.794L47.134 30.5795C47.134 30.5795 47.1391 30.5743 47.134 30.5743L46.2025 28.4489C45.8989 27.7541 45.6724 27.0439 45.518 26.3131C45.199 24.795 45.199 23.2305 45.518 21.7226C45.6724 20.9918 45.8989 20.2765 46.2025 19.5817L47.0722 17.5901L47.7361 16.0719C47.9008 15.0581 47.592 13.9773 46.8098 13.1951C46.676 13.0613 46.5267 12.9378 46.3775 12.8297L44.9211 12.2584L42.8265 11.435C42.1215 11.1571 41.4576 10.8123 40.8297 10.4058C40.9532 10.9924 40.8709 11.646 40.557 12.3614L39.1726 15.5315L38.0044 18.2076L37.9581 18.3106L36.5685 21.5064C35.8686 23.107 35.8686 24.9288 36.5634 26.5293L37.9581 29.7252L38.0044 29.8281L39.1726 32.5042L40.557 35.6743C40.8657 36.3897 40.9584 37.0433 40.8297 37.63C41.4576 37.2285 42.1266 36.8837 42.8316 36.6058Z" fill="white"/>
<path d="M11.3562 42.859L12.195 44.9896C12.195 44.9896 12.5398 45.988 12.7096 46.2916C12.7868 46.4357 12.967 46.6416 13.1265 46.8011C13.9499 47.6245 15.1078 47.9796 16.1371 47.6503C16.7753 47.4444 17.3825 47.1614 17.3825 47.1614C17.3825 47.1614 17.3877 47.1665 17.3877 47.1614L19.5131 46.2299C20.2079 45.9262 20.9181 45.6998 21.6489 45.5454C23.167 45.2263 24.7315 45.2263 26.2394 45.5454C26.9702 45.6998 27.6855 45.9262 28.3803 46.2299L30.3719 47.0996C30.3719 47.0996 31.4938 47.6451 31.8901 47.7635C32.8782 48.0568 33.9847 47.6194 34.7669 46.8371C34.9007 46.7033 35.1169 46.4151 35.2043 46.2505C35.3845 45.9057 35.7035 44.9433 35.7035 44.9433L36.527 42.8487C36.8049 42.1437 37.1497 41.4798 37.5562 40.8519C36.9695 40.9754 36.3159 40.8931 35.6006 40.5792L32.4305 39.1948L29.7544 38.0266L29.6514 37.9803L26.4555 36.5908C24.855 35.8909 23.0332 35.8909 21.4327 36.5856L18.2368 37.9803L18.1339 38.0266L15.4578 39.1948L12.2876 40.5792C11.5723 40.888 10.9187 40.9806 10.332 40.8519C10.7334 41.4901 11.0783 42.154 11.3562 42.859Z" fill="white"/>
<path d="M5.11457 11.394L2.98399 12.2329L1.68196 12.7475H1.67167L1.66652 12.7526C1.4864 12.8761 1.32686 13.01 1.16732 13.1643C0.343907 13.9878 0.045419 15.1405 0.271858 16.1955C0.266712 16.2007 0.271858 16.2007 0.271858 16.2007L0.277005 16.2058L0.807079 17.4204C0.807079 17.4204 0.801933 17.4255 0.807079 17.4255L1.73857 19.551C2.0422 20.2457 2.26864 20.9559 2.42303 21.6867C2.74211 23.2049 2.74211 24.7694 2.42303 26.2772C2.26864 27.008 2.0422 27.7234 1.73857 28.4181L0.868835 30.4098L0.204956 31.9279C0.0351263 32.9418 0.349054 34.0225 1.1313 34.8047C1.2651 34.9385 1.41435 35.0621 1.56359 35.1701L3.02001 35.7414L5.11457 36.5648C5.81962 36.8427 6.4835 37.1875 7.11136 37.5941C6.98785 37.0074 7.07019 36.3538 7.38412 35.6385L8.76848 32.4683L9.93671 29.7922L9.98302 29.6893L11.3725 26.4934C12.0724 24.8929 12.0724 23.0711 11.3777 21.4706L9.98302 18.2747L9.93671 18.1717L8.76848 15.4956L7.38412 12.3255C7.07533 11.6101 6.9827 10.9566 7.11136 10.3699C6.4835 10.7713 5.81448 11.1161 5.11457 11.394Z" fill="white"/>
<path d="M19.5407 1.5542L17.4255 0.627854C17.4255 0.627854 16.4683 0.159537 16.1287 0.0617562C15.9691 0.0205854 15.6912 0 15.4699 0C14.2914 0 13.2158 0.576391 12.7166 1.5439C12.4078 2.14603 12.1763 2.77903 12.1763 2.77903C12.1763 2.77903 12.1711 2.77903 12.1711 2.78417L11.3168 4.96108C11.0389 5.67127 10.6941 6.3403 10.2824 6.9733C9.42811 8.28562 8.31135 9.40238 7.00933 10.2464C6.38147 10.6581 5.70215 11.008 4.99196 11.2859L2.94886 12.0888C2.94886 12.0888 1.76005 12.5005 1.38951 12.696C0.47861 13.1901 0 14.2914 0 15.4082C0 15.5986 0.0514635 15.9588 0.108073 16.1338C0.226439 16.5095 0.679318 17.4204 0.679318 17.4204L1.59022 19.4995C1.83725 20.0656 2.03281 20.6471 2.18205 21.239C2.22322 21.3985 2.41878 21.4551 2.532 21.3316C2.85622 20.9765 3.30396 20.6832 3.87005 20.4619L7.1174 19.1856L9.8604 18.11L9.96848 18.0688L13.2364 16.7771C14.8781 16.1338 16.175 14.8318 16.8183 13.2004L18.1049 9.9273L18.146 9.81923L19.2216 7.07623L20.4979 3.82888C20.7243 3.26278 21.0125 2.81505 21.3728 2.49083C21.4963 2.37761 21.4397 2.18205 21.2802 2.14088C20.6883 1.99678 20.1068 1.80122 19.5407 1.5542Z" fill="white"/>
<path d="M46.4394 19.5407L47.3658 17.4255L47.9319 16.1287L47.937 16.1235V16.1184C47.9782 15.9074 47.9988 15.6912 47.9988 15.4699C47.9988 14.2914 47.3915 13.2621 46.4755 12.6652C46.4755 12.66 46.4703 12.66 46.4703 12.66H46.4652L45.2198 12.1711C45.2198 12.1711 45.2198 12.166 45.2146 12.166L43.0377 11.3117C42.3275 11.0338 41.6585 10.689 41.0255 10.2773C39.7132 9.42296 38.5964 8.30621 37.7524 7.00418C37.3407 6.37633 36.9907 5.69701 36.7128 4.98681L35.91 2.94371L35.313 1.41525C35.3079 1.39466 35.2976 1.37922 35.2822 1.35864C34.6697 0.53522 33.6868 0 32.5855 0C32.3951 0 32.1995 0.015439 32.0194 0.0514635L30.5681 0.679318L28.489 1.59022C27.9229 1.83725 27.3413 2.03281 26.7495 2.18205C26.59 2.22322 26.5334 2.41878 26.6569 2.532C27.012 2.85622 27.3053 3.30396 27.5266 3.87005L28.8029 7.1174L29.8785 9.8604L29.9197 9.96848L31.2114 13.2364C31.8547 14.8781 33.1567 16.175 34.7933 16.8183L38.0663 18.1049L38.1744 18.146L40.9174 19.2216L44.1648 20.4979C44.7309 20.7243 45.1786 21.0125 45.5028 21.3728C45.616 21.4963 45.8116 21.4397 45.8528 21.2802C45.9969 20.6883 46.1924 20.1068 46.4394 19.5407Z" fill="white"/>
<path d="M28.4487 46.4457L30.5638 47.3721C30.5638 47.3721 31.521 47.8404 31.8607 47.9382C32.0202 47.9845 32.2981 48.0051 32.5194 48.0051C33.698 48.0051 34.7735 47.4287 35.2727 46.4612C35.5815 45.8591 35.8131 45.2261 35.8131 45.2261C35.8131 45.2261 35.8182 45.2261 35.8182 45.2209L36.6725 43.044C36.9504 42.3338 37.2952 41.6648 37.707 41.0318C38.5613 39.7195 39.678 38.6027 40.98 37.7587C41.6079 37.347 42.2872 36.9971 42.9974 36.7192L45.0405 35.9163C45.0405 35.9163 46.2293 35.5046 46.5999 35.3091C47.5108 34.815 47.9894 33.7137 47.9894 32.5969C47.9894 32.4065 47.9379 32.0463 47.8813 31.8713C47.7629 31.4956 47.31 30.5847 47.31 30.5847L46.3991 28.5056C46.1521 27.9395 45.9566 27.3579 45.8073 26.7661C45.7661 26.6066 45.5706 26.55 45.4574 26.6735C45.1331 27.0286 44.6854 27.3219 44.1193 27.5432L40.872 28.8195L38.129 29.8951L38.0209 29.9363L34.753 31.228C33.1113 31.8713 31.8144 33.1733 31.1711 34.8047L29.8845 38.0778L29.8485 38.1756L28.7729 40.9186L27.4966 44.1659C27.2702 44.732 26.982 45.1797 26.6217 45.504C26.4982 45.6172 26.5548 45.8127 26.7144 45.8539C27.3062 46.0032 27.8877 46.1987 28.4487 46.4457Z" fill="white"/>
<path d="M1.5542 28.4594L0.627854 30.5746L0.0617562 31.8714L0.0566098 31.8766V31.8817C0.0205854 32.0927 0 32.3089 0 32.5302C0 33.7087 0.607269 34.738 1.52332 35.3349C1.52332 35.3401 1.52847 35.3401 1.52847 35.3401H1.53361L2.77903 35.829C2.77903 35.829 2.77903 35.8341 2.78417 35.8341L4.96108 36.6884C5.67127 36.9663 6.3403 37.3111 6.9733 37.7228C8.28562 38.5771 9.40238 39.6939 10.2464 40.9959C10.6581 41.6238 11.008 42.3031 11.2859 43.0133L12.0888 45.0564L12.6857 46.5849C12.6909 46.6054 12.7012 46.6209 12.7166 46.6415C13.3239 47.47 14.3017 48.0053 15.4082 48.0053C15.5986 48.0053 15.7941 47.9898 15.9743 47.9538L17.4204 47.3259L19.4995 46.415C20.0656 46.168 20.6471 45.9724 21.239 45.8232C21.3985 45.782 21.4551 45.5865 21.3316 45.4733C20.9765 45.149 20.6832 44.7013 20.4619 44.1352L19.1856 40.8879L18.11 38.1448L18.0688 38.0368L16.7771 34.7688C16.1338 33.1272 14.8318 31.8303 13.2004 31.187L9.9273 29.9004L9.81923 29.8592L7.07623 28.7836L3.82888 27.5073C3.26278 27.2809 2.81505 26.9927 2.49083 26.6325C2.37761 26.509 2.18205 26.5656 2.14088 26.7251C1.99678 27.3169 1.80122 27.8933 1.5542 28.4594Z" fill="white"/>
</g>
<path d="M72.401 35.4861C71.7439 35.4861 71.2394 35.2984 70.8874 34.9229C70.5354 34.5475 70.3594 34.0312 70.3594 33.3741V12.2189C70.3594 11.5384 70.5471 11.0221 70.9226 10.6701C71.298 10.2947 71.8143 10.1069 72.4714 10.1069C73.058 10.1069 73.5156 10.2243 73.8442 10.4589C74.1962 10.6701 74.513 11.0456 74.7946 11.5853L83.489 27.6717H82.3626L91.057 11.5853C91.3386 11.0456 91.6436 10.6701 91.9722 10.4589C92.3007 10.2243 92.7583 10.1069 93.345 10.1069C94.0021 10.1069 94.5066 10.2947 94.8586 10.6701C95.2106 11.0221 95.3866 11.5384 95.3866 12.2189V33.3741C95.3866 34.0312 95.2106 34.5475 94.8586 34.9229C94.53 35.2984 94.0255 35.4861 93.345 35.4861C92.6879 35.4861 92.1834 35.2984 91.8314 34.9229C91.4794 34.5475 91.3034 34.0312 91.3034 33.3741V17.0765H92.0778L84.6858 30.5581C84.4511 30.9571 84.2047 31.2504 83.9466 31.4381C83.6884 31.6259 83.3364 31.7197 82.8906 31.7197C82.4447 31.7197 82.081 31.6259 81.7994 31.4381C81.5178 31.2269 81.2714 30.9336 81.0602 30.5581L73.5978 17.0413H74.4426V33.3741C74.4426 34.0312 74.2666 34.5475 73.9146 34.9229C73.586 35.2984 73.0815 35.4861 72.401 35.4861Z" fill="white"/>
<path d="M108.909 35.5565C106.961 35.5565 105.284 35.1928 103.876 34.4653C102.468 33.7379 101.376 32.7053 100.602 31.3677C99.851 30.0301 99.4756 28.4461 99.4756 26.6157C99.4756 24.8323 99.8393 23.2717 100.567 21.9341C101.318 20.5965 102.338 19.5523 103.629 18.8013C104.943 18.0269 106.433 17.6397 108.1 17.6397C109.32 17.6397 110.411 17.8392 111.373 18.2381C112.359 18.6371 113.192 19.212 113.872 19.9629C114.576 20.7139 115.104 21.6291 115.456 22.7085C115.832 23.7645 116.02 24.9613 116.02 26.2989C116.02 26.7213 115.867 27.0499 115.562 27.2845C115.28 27.4957 114.87 27.6013 114.33 27.6013H103.031V25.0669H112.922L112.359 25.5949C112.359 24.5155 112.194 23.612 111.866 22.8845C111.561 22.1571 111.103 21.6056 110.493 21.2301C109.906 20.8312 109.167 20.6317 108.276 20.6317C107.29 20.6317 106.445 20.8664 105.741 21.3357C105.061 21.7816 104.533 22.4269 104.157 23.2717C103.805 24.0931 103.629 25.0787 103.629 26.2285V26.4749C103.629 28.3992 104.075 29.8424 104.967 30.8045C105.882 31.7432 107.22 32.2125 108.98 32.2125C109.59 32.2125 110.27 32.1421 111.021 32.0013C111.796 31.8371 112.523 31.5672 113.204 31.1917C113.696 30.9101 114.13 30.7928 114.506 30.8397C114.881 30.8632 115.175 30.9923 115.386 31.2269C115.621 31.4616 115.761 31.7549 115.808 32.1069C115.855 32.4355 115.785 32.7757 115.597 33.1277C115.433 33.4797 115.14 33.7848 114.717 34.0429C113.896 34.5592 112.945 34.9464 111.866 35.2045C110.81 35.4392 109.824 35.5565 108.909 35.5565Z" fill="white"/>
<path d="M127.53 41.8925C126.262 41.8925 125.03 41.7752 123.834 41.5405C122.66 41.3059 121.593 40.9421 120.63 40.4493C120.185 40.2147 119.88 39.9331 119.715 39.6045C119.574 39.276 119.528 38.9357 119.574 38.5837C119.645 38.2552 119.786 37.9619 119.997 37.7037C120.232 37.4456 120.513 37.2696 120.842 37.1757C121.17 37.0819 121.51 37.1288 121.862 37.3165C122.895 37.8328 123.869 38.1613 124.784 38.3021C125.723 38.4664 126.521 38.5485 127.178 38.5485C128.75 38.5485 129.923 38.1613 130.698 37.3869C131.496 36.636 131.894 35.5096 131.894 34.0077V30.8397H132.211C131.859 32.0365 131.12 32.9987 129.994 33.7261C128.891 34.4301 127.635 34.7821 126.227 34.7821C124.678 34.7821 123.329 34.4301 122.179 33.7261C121.029 32.9987 120.138 31.9896 119.504 30.6989C118.87 29.4083 118.554 27.9064 118.554 26.1933C118.554 24.9027 118.73 23.7411 119.082 22.7085C119.457 21.6525 119.973 20.7491 120.63 19.9981C121.311 19.2472 122.121 18.6723 123.059 18.2733C124.021 17.8509 125.077 17.6397 126.227 17.6397C127.682 17.6397 128.949 18.0035 130.029 18.7309C131.132 19.4349 131.848 20.3736 132.176 21.5469L131.824 22.4269V19.9277C131.824 19.2003 132.012 18.6488 132.387 18.2733C132.786 17.8979 133.326 17.7101 134.006 17.7101C134.71 17.7101 135.25 17.8979 135.626 18.2733C136.001 18.6488 136.189 19.2003 136.189 19.9277V33.4797C136.189 36.2723 135.45 38.3725 133.971 39.7805C132.493 41.1885 130.346 41.8925 127.53 41.8925ZM127.424 31.4381C128.339 31.4381 129.125 31.2269 129.782 30.8045C130.44 30.3821 130.944 29.7837 131.296 29.0093C131.672 28.2115 131.859 27.2728 131.859 26.1933C131.859 24.5741 131.46 23.3069 130.662 22.3917C129.865 21.4531 128.785 20.9837 127.424 20.9837C126.509 20.9837 125.723 21.1949 125.066 21.6173C124.409 22.0397 123.892 22.6381 123.517 23.4125C123.165 24.1869 122.989 25.1139 122.989 26.1933C122.989 27.8125 123.388 29.0915 124.186 30.0301C124.984 30.9688 126.063 31.4381 127.424 31.4381Z" fill="white"/>
<path d="M146.415 35.5565C145.171 35.5565 144.057 35.3219 143.071 34.8525C142.109 34.3597 141.346 33.7027 140.783 32.8813C140.243 32.06 139.973 31.1331 139.973 30.1005C139.973 28.8333 140.302 27.836 140.959 27.1085C141.616 26.3576 142.684 25.8179 144.162 25.4893C145.641 25.1608 147.624 24.9965 150.111 24.9965H151.871V27.5309H150.146C148.691 27.5309 147.53 27.6013 146.661 27.7421C145.793 27.8829 145.171 28.1293 144.796 28.4813C144.444 28.8099 144.268 29.2792 144.268 29.8893C144.268 30.6637 144.538 31.2973 145.077 31.7901C145.617 32.2829 146.368 32.5293 147.33 32.5293C148.105 32.5293 148.785 32.3533 149.372 32.0013C149.982 31.6259 150.463 31.1213 150.815 30.4877C151.167 29.8541 151.343 29.1267 151.343 28.3053V24.2573C151.343 23.084 151.085 22.2392 150.569 21.7229C150.052 21.2067 149.184 20.9485 147.964 20.9485C147.283 20.9485 146.544 21.0307 145.746 21.1949C144.972 21.3592 144.151 21.6408 143.282 22.0397C142.836 22.2509 142.437 22.3096 142.085 22.2157C141.757 22.1219 141.499 21.9341 141.311 21.6525C141.123 21.3475 141.029 21.0189 141.029 20.6669C141.029 20.3149 141.123 19.9747 141.311 19.6461C141.499 19.2941 141.816 19.036 142.261 18.8717C143.341 18.4259 144.373 18.1091 145.359 17.9213C146.368 17.7336 147.283 17.6397 148.105 17.6397C149.794 17.6397 151.179 17.8979 152.258 18.4141C153.361 18.9304 154.183 19.7165 154.722 20.7725C155.262 21.8051 155.532 23.1427 155.532 24.7853V33.2333C155.532 33.9608 155.356 34.524 155.004 34.9229C154.652 35.2984 154.147 35.4861 153.49 35.4861C152.833 35.4861 152.317 35.2984 151.941 34.9229C151.589 34.524 151.413 33.9608 151.413 33.2333V31.5437H151.695C151.531 32.3651 151.202 33.0808 150.709 33.6909C150.24 34.2776 149.642 34.7352 148.914 35.0637C148.187 35.3923 147.354 35.5565 146.415 35.5565Z" fill="white"/>
<path d="M160.667 35.4861C160.103 35.4861 159.646 35.3571 159.294 35.0989C158.965 34.8408 158.766 34.5005 158.695 34.0781C158.625 33.6323 158.707 33.1395 158.942 32.5997L168.235 12.0077C168.54 11.3272 168.903 10.8461 169.326 10.5645C169.772 10.2595 170.276 10.1069 170.839 10.1069C171.379 10.1069 171.86 10.2595 172.283 10.5645C172.729 10.8461 173.104 11.3272 173.409 12.0077L182.737 32.5997C182.995 33.1395 183.089 33.6323 183.019 34.0781C182.948 34.524 182.749 34.876 182.42 35.1341C182.092 35.3688 181.658 35.4861 181.118 35.4861C180.461 35.4861 179.945 35.3336 179.569 35.0285C179.217 34.7 178.9 34.2072 178.619 33.5501L176.331 28.2349L178.231 29.4669H163.377L165.278 28.2349L163.025 33.5501C162.72 34.2307 162.403 34.7235 162.075 35.0285C161.746 35.3336 161.277 35.4861 160.667 35.4861ZM170.769 15.2813L165.841 27.0029L164.926 25.8765H176.683L175.803 27.0029L170.839 15.2813H170.769Z" fill="white"/>
<path d="M188.867 35.4861C188.139 35.4861 187.576 35.2867 187.177 34.8877C186.802 34.4653 186.614 33.8904 186.614 33.1629V12.6765C186.614 11.9256 186.813 11.3624 187.212 10.9869C187.611 10.588 188.175 10.3885 188.902 10.3885H197.385C200.107 10.3885 202.208 11.0456 203.686 12.3597C205.164 13.6504 205.904 15.4691 205.904 17.8157C205.904 19.3411 205.563 20.6552 204.883 21.7581C204.226 22.8611 203.264 23.7059 201.996 24.2925C200.729 24.8792 199.192 25.1725 197.385 25.1725L197.702 24.6445H198.864C199.826 24.6445 200.659 24.8792 201.363 25.3485C202.09 25.8179 202.724 26.5571 203.264 27.5661L205.904 32.4589C206.185 32.9517 206.314 33.4328 206.291 33.9021C206.267 34.3715 206.091 34.7587 205.763 35.0637C205.434 35.3453 204.953 35.4861 204.32 35.4861C203.686 35.4861 203.17 35.3571 202.771 35.0989C202.372 34.8173 202.02 34.3949 201.715 33.8317L198.16 27.2845C197.737 26.4867 197.233 25.9587 196.646 25.7005C196.083 25.4189 195.355 25.2781 194.464 25.2781H191.12V33.1629C191.12 33.8904 190.932 34.4653 190.556 34.8877C190.181 35.2867 189.618 35.4861 188.867 35.4861ZM191.12 21.9341H196.611C198.23 21.9341 199.45 21.6056 200.272 20.9485C201.116 20.268 201.539 19.2589 201.539 17.9213C201.539 16.6072 201.116 15.6216 200.272 14.9645C199.45 14.284 198.23 13.9437 196.611 13.9437H191.12V21.9341Z" fill="white"/>
<path d="M218.295 35.4861C217.567 35.4861 217.004 35.2867 216.605 34.8877C216.229 34.4653 216.042 33.8904 216.042 33.1629V14.1549H209.178C208.568 14.1549 208.087 13.9907 207.735 13.6621C207.406 13.3101 207.242 12.8408 207.242 12.2541C207.242 11.644 207.406 11.1864 207.735 10.8813C208.087 10.5528 208.568 10.3885 209.178 10.3885H227.411C228.022 10.3885 228.491 10.5528 228.819 10.8813C229.171 11.1864 229.347 11.644 229.347 12.2541C229.347 12.8408 229.171 13.3101 228.819 13.6621C228.491 13.9907 228.022 14.1549 227.411 14.1549H220.547V33.1629C220.547 33.8904 220.36 34.4653 219.984 34.8877C219.609 35.2867 219.046 35.4861 218.295 35.4861Z" fill="white"/>
<defs>
<clipPath id="clip0_8811_1662">
<rect width="47.9949" height="48" fill="white"/>
</clipPath>
</defs>
</svg>
