<svg width="152" height="48" viewBox="0 0 152 48" fill="none" xmlns="http://www.w3.org/2000/svg">
<g clip-path="url(#clip0_7948_12986)">
<path d="M31.1341 30.5393C29.7594 33.5896 27.4614 36.1314 24.5927 37.8018C22.2324 39.1817 19.4934 39.965 16.5624 39.965C14.2332 39.965 12.0182 39.467 10.021 38.5644C4.58965 36.1314 0.776838 30.752 0.595275 24.4647C0.590088 24.3091 0.590088 24.1587 0.590088 24.003C0.590088 23.8474 0.590088 23.6918 0.595275 23.5414C0.771651 17.2541 4.58965 11.8747 10.0158 9.43652C9.11835 11.4337 8.62035 13.6436 8.62035 15.9728C8.62035 18.8985 9.40885 21.6427 10.7835 24.003C12.4539 26.8717 14.9958 29.1698 18.046 30.5393C20.0432 31.4367 22.2531 31.9347 24.5875 31.9347C26.9219 31.9347 29.1369 31.4367 31.1341 30.5393Z" fill="#615F6F"/>
<path d="M48.5886 24.0026C48.5886 24.1582 48.5886 24.3139 48.5834 24.4643C48.407 30.7516 44.589 36.131 39.1681 38.5691C40.0655 36.5719 40.5635 34.3569 40.5635 32.0277C40.5635 29.1019 39.775 26.3577 38.4003 23.9974C36.73 21.1287 34.1881 18.8255 31.1378 17.456C29.1406 16.5585 26.9308 16.0605 24.5964 16.0605C22.262 16.0605 20.0521 16.5585 18.0549 17.456C19.4244 14.4057 21.7277 11.869 24.5912 10.1935C26.9515 8.81359 29.6905 8.03027 32.6215 8.03027C34.9558 8.03027 37.1709 8.52827 39.1681 9.4309C44.589 11.869 48.407 17.2485 48.5834 23.5357C48.5834 23.6914 48.5886 23.847 48.5886 24.0026Z" fill="#615F6F"/>
<path d="M39.1654 9.43089C37.1682 8.53345 34.9531 8.03026 32.6187 8.03026C29.693 8.03026 26.9488 8.81876 24.5885 10.1934C21.7198 11.8638 19.4217 14.4057 18.0522 17.456C17.1548 19.4532 16.6516 21.6682 16.6516 23.9974C16.6516 26.3266 17.1496 28.5417 18.047 30.5337C14.9968 29.1642 12.4601 26.8609 10.7845 23.9974C9.40465 21.6371 8.62134 18.8981 8.62134 15.9671C8.62134 13.638 9.11934 11.4229 10.0168 9.43089C12.4549 4.00476 17.8395 0.18675 24.1268 0.00518751C24.2824 0 24.438 0 24.5937 0C24.7493 0 24.9049 0 25.0554 0.00518751C31.3478 0.18675 36.7272 4.00476 39.1654 9.43089Z" fill="#C1C1C1"/>
<path d="M40.5586 32.0281C40.5586 34.3573 40.0606 36.5724 39.1632 38.5696C36.7251 43.9957 31.3404 47.8137 25.0532 47.9901C24.8975 47.9953 24.7419 47.9953 24.5915 47.9953C24.4359 47.9953 24.2802 47.9953 24.1298 47.9901C17.8425 47.8137 12.4579 43.9957 10.0198 38.5696C12.017 39.467 14.2268 39.9702 16.5612 39.9702C19.487 39.9702 22.2312 39.1817 24.5915 37.807C27.4602 36.1366 29.7634 33.5948 31.1329 30.5445C32.0304 28.5473 32.5284 26.3374 32.5284 24.0082C32.5284 21.6791 32.0304 19.4588 31.1329 17.4668C34.1832 18.8363 36.7251 21.1396 38.3954 24.0082C39.7701 26.3582 40.5586 29.1024 40.5586 32.0281Z" fill="#C1C1C1"/>
</g>
<path d="M69.8344 37.0841C69.1774 37.0841 68.6728 36.8964 68.3208 36.5209C67.9688 36.1455 67.7928 35.6292 67.7928 34.9721V13.8169C67.7928 13.1364 67.9806 12.6201 68.356 12.2681C68.7315 11.8927 69.2478 11.7049 69.9048 11.7049C70.4915 11.7049 70.9491 11.8223 71.2776 12.0569C71.6296 12.2681 71.9464 12.6436 72.228 13.1833L80.9224 29.2697H79.796L88.4904 13.1833C88.772 12.6436 89.0771 12.2681 89.4056 12.0569C89.7342 11.8223 90.1918 11.7049 90.7784 11.7049C91.4355 11.7049 91.94 11.8927 92.292 12.2681C92.644 12.6201 92.82 13.1364 92.82 13.8169V34.9721C92.82 35.6292 92.644 36.1455 92.292 36.5209C91.9635 36.8964 91.459 37.0841 90.7784 37.0841C90.1214 37.0841 89.6168 36.8964 89.2648 36.5209C88.9128 36.1455 88.7368 35.6292 88.7368 34.9721V18.6745H89.5112L82.1192 32.1561C81.8846 32.5551 81.6382 32.8484 81.38 33.0361C81.1219 33.2239 80.7699 33.3177 80.324 33.3177C79.8782 33.3177 79.5144 33.2239 79.2328 33.0361C78.9512 32.8249 78.7048 32.5316 78.4936 32.1561L71.0312 18.6393H71.876V34.9721C71.876 35.6292 71.7 36.1455 71.348 36.5209C71.0195 36.8964 70.515 37.0841 69.8344 37.0841Z" fill="#C1C1C1"/>
<path d="M100.042 37.0489C99.3378 37.0489 98.7981 36.8377 98.4226 36.4153C98.0472 35.9929 97.8594 35.4063 97.8594 34.6553V21.7369C97.8594 20.9625 98.0472 20.3759 98.4226 19.9769C98.7981 19.5545 99.3378 19.3433 100.042 19.3433C100.746 19.3433 101.286 19.5545 101.661 19.9769C102.06 20.3759 102.259 20.9625 102.259 21.7369V34.6553C102.259 35.4063 102.072 35.9929 101.696 36.4153C101.321 36.8377 100.769 37.0489 100.042 37.0489ZM100.042 16.0697C99.2205 16.0697 98.5752 15.8703 98.1058 15.4713C97.66 15.0489 97.437 14.474 97.437 13.7465C97.437 12.9956 97.66 12.4207 98.1058 12.0217C98.5752 11.6228 99.2205 11.4233 100.042 11.4233C100.887 11.4233 101.532 11.6228 101.978 12.0217C102.424 12.4207 102.647 12.9956 102.647 13.7465C102.647 14.474 102.424 15.0489 101.978 15.4713C101.532 15.8703 100.887 16.0697 100.042 16.0697Z" fill="#C1C1C1"/>
<path d="M112.498 37.1545C111.255 37.1545 110.14 36.9199 109.154 36.4505C108.192 35.9577 107.43 35.3007 106.866 34.4793C106.327 33.658 106.057 32.7311 106.057 31.6985C106.057 30.4313 106.385 29.434 107.042 28.7065C107.7 27.9556 108.767 27.4159 110.246 27.0873C111.724 26.7588 113.707 26.5945 116.194 26.5945H117.954V29.1289H116.23C114.775 29.1289 113.613 29.1993 112.745 29.3401C111.877 29.4809 111.255 29.7273 110.879 30.0793C110.527 30.4079 110.351 30.8772 110.351 31.4873C110.351 32.2617 110.621 32.8953 111.161 33.3881C111.701 33.8809 112.452 34.1273 113.414 34.1273C114.188 34.1273 114.869 33.9513 115.455 33.5993C116.065 33.2239 116.546 32.7193 116.898 32.0857C117.25 31.4521 117.426 30.7247 117.426 29.9033V25.8553C117.426 24.682 117.168 23.8372 116.652 23.3209C116.136 22.8047 115.268 22.5465 114.047 22.5465C113.367 22.5465 112.628 22.6287 111.83 22.7929C111.055 22.9572 110.234 23.2388 109.366 23.6377C108.92 23.8489 108.521 23.9076 108.169 23.8137C107.84 23.7199 107.582 23.5321 107.394 23.2505C107.207 22.9455 107.113 22.6169 107.113 22.2649C107.113 21.9129 107.207 21.5727 107.394 21.2441C107.582 20.8921 107.899 20.634 108.345 20.4697C109.424 20.0239 110.457 19.7071 111.442 19.5193C112.452 19.3316 113.367 19.2377 114.188 19.2377C115.878 19.2377 117.262 19.4959 118.342 20.0121C119.445 20.5284 120.266 21.3145 120.806 22.3705C121.345 23.4031 121.615 24.7407 121.615 26.3833V34.8313C121.615 35.5588 121.439 36.122 121.087 36.5209C120.735 36.8964 120.231 37.0841 119.574 37.0841C118.917 37.0841 118.4 36.8964 118.025 36.5209C117.673 36.122 117.497 35.5588 117.497 34.8313V33.1417H117.778C117.614 33.9631 117.286 34.6788 116.793 35.2889C116.324 35.8756 115.725 36.3332 114.998 36.6617C114.27 36.9903 113.437 37.1545 112.498 37.1545Z" fill="#C1C1C1"/>
<path d="M128.264 37.0841C127.56 37.0841 127.02 36.8964 126.644 36.5209C126.269 36.122 126.081 35.5588 126.081 34.8313V21.5257C126.081 20.7983 126.269 20.2468 126.644 19.8713C127.02 19.4959 127.548 19.3081 128.228 19.3081C128.909 19.3081 129.437 19.4959 129.812 19.8713C130.188 20.2468 130.376 20.7983 130.376 21.5257V23.9193L129.988 23.0393C130.505 21.7956 131.303 20.8569 132.382 20.2233C133.485 19.5663 134.729 19.2377 136.113 19.2377C137.498 19.2377 138.636 19.4959 139.528 20.0121C140.419 20.5284 141.088 21.3145 141.534 22.3705C141.98 23.4031 142.203 24.7172 142.203 26.3129V34.8313C142.203 35.5588 142.015 36.122 141.64 36.5209C141.264 36.8964 140.724 37.0841 140.02 37.0841C139.316 37.0841 138.765 36.8964 138.366 36.5209C137.991 36.122 137.803 35.5588 137.803 34.8313V26.5241C137.803 25.1865 137.545 24.2127 137.028 23.6025C136.536 22.9924 135.761 22.6873 134.705 22.6873C133.415 22.6873 132.382 23.098 131.608 23.9193C130.857 24.7172 130.481 25.7849 130.481 27.1225V34.8313C130.481 36.3332 129.742 37.0841 128.264 37.0841Z" fill="#C1C1C1"/>
<path d="M148.784 36.9785C147.986 36.9785 147.341 36.7321 146.848 36.2393C146.379 35.7465 146.144 35.1129 146.144 34.3385C146.144 33.5876 146.379 32.9775 146.848 32.5081C147.341 32.0153 147.986 31.7689 148.784 31.7689C149.605 31.7689 150.239 32.0153 150.685 32.5081C151.154 32.9775 151.389 33.5876 151.389 34.3385C151.389 35.1129 151.154 35.7465 150.685 36.2393C150.239 36.7321 149.605 36.9785 148.784 36.9785Z" fill="#C1C1C1"/>
<defs>
<clipPath id="clip0_7948_12986">
<rect width="48" height="48" fill="white" transform="translate(0.590088)"/>
</clipPath>
</defs>
</svg>
