<svg width="152" height="48" viewBox="0 0 152 48" fill="none" xmlns="http://www.w3.org/2000/svg">
<g clip-path="url(#clip0_7993_5180)">
<path d="M31.1341 30.5383C29.7594 33.5886 27.4614 36.1304 24.5927 37.8008C22.2324 39.1807 19.4934 39.964 16.5624 39.964C14.2332 39.964 12.0182 39.466 10.021 38.5634C4.58965 36.1304 0.776838 30.751 0.595275 24.4637C0.590088 24.3081 0.590088 24.1577 0.590088 24.0021C0.590088 23.8464 0.590088 23.6908 0.595275 23.5404C0.771651 17.2531 4.58965 11.8737 10.0158 9.43555C9.11835 11.4327 8.62035 13.6426 8.62035 15.9718C8.62035 18.8976 9.40885 21.6417 10.7835 24.0021C12.4539 26.8708 14.9958 29.1688 18.046 30.5383C20.0432 31.4358 22.2531 31.9338 24.5875 31.9338C26.9219 31.9338 29.1369 31.4358 31.1341 30.5383Z" fill="#121215"/>
<path d="M48.5886 24.0036C48.5886 24.1592 48.5886 24.3148 48.5834 24.4653C48.407 30.7525 44.589 36.132 39.1681 38.5701C40.0655 36.5729 40.5635 34.3579 40.5635 32.0287C40.5635 29.1029 39.775 26.3587 38.4003 23.9984C36.73 21.1297 34.1881 18.8265 31.1378 17.457C29.1406 16.5595 26.9308 16.0615 24.5964 16.0615C22.262 16.0615 20.0521 16.5595 18.0549 17.457C19.4244 14.4067 21.7277 11.87 24.5912 10.1944C26.9515 8.81456 29.6905 8.03125 32.6215 8.03125C34.9558 8.03125 37.1709 8.52925 39.1681 9.43188C44.589 11.87 48.407 17.2494 48.5834 23.5367C48.5834 23.6923 48.5886 23.848 48.5886 24.0036Z" fill="#121215"/>
<path d="M39.1654 9.43089C37.1682 8.53345 34.9531 8.03026 32.6187 8.03026C29.693 8.03026 26.9488 8.81876 24.5885 10.1934C21.7198 11.8638 19.4217 14.4057 18.0522 17.456C17.1548 19.4532 16.6516 21.6682 16.6516 23.9974C16.6516 26.3266 17.1496 28.5417 18.047 30.5337C14.9968 29.1642 12.4601 26.8609 10.7845 23.9974C9.40465 21.6371 8.62134 18.8981 8.62134 15.9671C8.62134 13.638 9.11934 11.4229 10.0168 9.43089C12.4549 4.00476 17.8395 0.18675 24.1268 0.00518751C24.2824 0 24.438 0 24.5937 0C24.7493 0 24.9049 0 25.0554 0.00518751C31.3478 0.18675 36.7272 4.00476 39.1654 9.43089Z" fill="#121215"/>
<path d="M40.5586 32.0281C40.5586 34.3573 40.0606 36.5724 39.1632 38.5696C36.7251 43.9957 31.3404 47.8137 25.0532 47.9901C24.8975 47.9953 24.7419 47.9953 24.5915 47.9953C24.4359 47.9953 24.2802 47.9953 24.1298 47.9901C17.8425 47.8137 12.4579 43.9957 10.0198 38.5696C12.017 39.467 14.2268 39.9702 16.5612 39.9702C19.487 39.9702 22.2312 39.1817 24.5915 37.807C27.4602 36.1366 29.7634 33.5948 31.1329 30.5445C32.0304 28.5473 32.5284 26.3374 32.5284 24.0082C32.5284 21.6791 32.0304 19.4588 31.1329 17.4668C34.1832 18.8363 36.7251 21.1396 38.3954 24.0082C39.7701 26.3582 40.5586 29.1024 40.5586 32.0281Z" fill="#121215"/>
</g>
<path d="M69.8346 37.0844C69.1775 37.0844 68.673 36.8966 68.321 36.5212C67.969 36.1457 67.793 35.6294 67.793 34.9724V13.8172C67.793 13.1366 67.9807 12.6204 68.3562 12.2684C68.7316 11.8929 69.2479 11.7052 69.905 11.7052C70.4916 11.7052 70.9492 11.8225 71.2778 12.0572C71.6298 12.2684 71.9466 12.6439 72.2282 13.1836L80.9226 29.27H79.7962L88.4906 13.1836C88.7722 12.6439 89.0772 12.2684 89.4058 12.0572C89.7343 11.8225 90.1919 11.7052 90.7786 11.7052C91.4356 11.7052 91.9402 11.8929 92.2922 12.2684C92.6442 12.6204 92.8202 13.1366 92.8202 13.8172V34.9724C92.8202 35.6294 92.6442 36.1457 92.2922 36.5212C91.9636 36.8966 91.4591 37.0844 90.7786 37.0844C90.1215 37.0844 89.617 36.8966 89.265 36.5212C88.913 36.1457 88.737 35.6294 88.737 34.9724V18.6748H89.5114L82.1194 32.1564C81.8847 32.5553 81.6383 32.8486 81.3802 33.0364C81.122 33.2241 80.77 33.318 80.3242 33.318C79.8783 33.318 79.5146 33.2241 79.233 33.0364C78.9514 32.8252 78.705 32.5318 78.4938 32.1564L71.0314 18.6396H71.8762V34.9724C71.8762 35.6294 71.7002 36.1457 71.3482 36.5212C71.0196 36.8966 70.5151 37.0844 69.8346 37.0844Z" fill="#121215"/>
<path d="M100.042 37.0492C99.3379 37.0492 98.7982 36.838 98.4227 36.4156C98.0473 35.9932 97.8595 35.4065 97.8595 34.6556V21.7372C97.8595 20.9628 98.0473 20.3761 98.4227 19.9772C98.7982 19.5548 99.3379 19.3436 100.042 19.3436C100.746 19.3436 101.286 19.5548 101.661 19.9772C102.06 20.3761 102.26 20.9628 102.26 21.7372V34.6556C102.26 35.4065 102.072 35.9932 101.696 36.4156C101.321 36.838 100.769 37.0492 100.042 37.0492ZM100.042 16.07C99.2206 16.07 98.5753 15.8705 98.1059 15.4716C97.6601 15.0492 97.4371 14.4743 97.4371 13.7468C97.4371 12.9958 97.6601 12.4209 98.1059 12.022C98.5753 11.6231 99.2206 11.4236 100.042 11.4236C100.887 11.4236 101.532 11.6231 101.978 12.022C102.424 12.4209 102.647 12.9958 102.647 13.7468C102.647 14.4743 102.424 15.0492 101.978 15.4716C101.532 15.8705 100.887 16.07 100.042 16.07Z" fill="#121215"/>
<path d="M112.499 37.1548C111.255 37.1548 110.14 36.9201 109.155 36.4508C108.192 35.958 107.43 35.3009 106.867 34.4796C106.327 33.6582 106.057 32.7313 106.057 31.6988C106.057 30.4316 106.386 29.4342 107.043 28.7068C107.7 27.9558 108.767 27.4161 110.246 27.0876C111.724 26.759 113.707 26.5948 116.195 26.5948H117.955V29.1292H116.23C114.775 29.1292 113.613 29.1996 112.745 29.3404C111.877 29.4812 111.255 29.7276 110.879 30.0796C110.527 30.4081 110.351 30.8774 110.351 31.4876C110.351 32.262 110.621 32.8956 111.161 33.3884C111.701 33.8812 112.452 34.1276 113.414 34.1276C114.188 34.1276 114.869 33.9516 115.455 33.5996C116.066 33.2241 116.547 32.7196 116.899 32.086C117.251 31.4524 117.427 30.7249 117.427 29.9036V25.8556C117.427 24.6822 117.168 23.8374 116.652 23.3212C116.136 22.8049 115.268 22.5468 114.047 22.5468C113.367 22.5468 112.628 22.6289 111.83 22.7932C111.055 22.9574 110.234 23.239 109.366 23.638C108.92 23.8492 108.521 23.9078 108.169 23.814C107.84 23.7201 107.582 23.5324 107.395 23.2508C107.207 22.9457 107.113 22.6172 107.113 22.2652C107.113 21.9132 107.207 21.5729 107.395 21.2444C107.582 20.8924 107.899 20.6342 108.345 20.47C109.424 20.0241 110.457 19.7073 111.443 19.5196C112.452 19.3318 113.367 19.238 114.188 19.238C115.878 19.238 117.262 19.4961 118.342 20.0124C119.445 20.5286 120.266 21.3148 120.806 22.3708C121.346 23.4033 121.615 24.7409 121.615 26.3836V34.8316C121.615 35.559 121.439 36.1222 121.087 36.5212C120.735 36.8966 120.231 37.0844 119.574 37.0844C118.917 37.0844 118.4 36.8966 118.025 36.5212C117.673 36.1222 117.497 35.559 117.497 34.8316V33.142H117.779C117.614 33.9633 117.286 34.679 116.793 35.2892C116.324 35.8758 115.725 36.3334 114.998 36.662C114.27 36.9905 113.437 37.1548 112.499 37.1548Z" fill="#121215"/>
<path d="M128.264 37.0844C127.56 37.0844 127.02 36.8966 126.645 36.5212C126.269 36.1222 126.081 35.559 126.081 34.8316V21.526C126.081 20.7985 126.269 20.247 126.645 19.8716C127.02 19.4961 127.548 19.3084 128.229 19.3084C128.909 19.3084 129.437 19.4961 129.813 19.8716C130.188 20.247 130.376 20.7985 130.376 21.526V23.9196L129.989 23.0396C130.505 21.7958 131.303 20.8572 132.382 20.2236C133.485 19.5665 134.729 19.238 136.113 19.238C137.498 19.238 138.636 19.4961 139.528 20.0124C140.42 20.5286 141.088 21.3148 141.534 22.3708C141.98 23.4033 142.203 24.7174 142.203 26.3132V34.8316C142.203 35.559 142.015 36.1222 141.64 36.5212C141.264 36.8966 140.725 37.0844 140.021 37.0844C139.317 37.0844 138.765 36.8966 138.366 36.5212C137.991 36.1222 137.803 35.559 137.803 34.8316V26.5244C137.803 25.1868 137.545 24.2129 137.029 23.6028C136.536 22.9926 135.761 22.6876 134.705 22.6876C133.415 22.6876 132.382 23.0982 131.608 23.9196C130.857 24.7174 130.481 25.7852 130.481 27.1228V34.8316C130.481 36.3334 129.742 37.0844 128.264 37.0844Z" fill="#121215"/>
<path d="M148.784 36.9788C147.986 36.9788 147.341 36.7324 146.848 36.2396C146.379 35.7468 146.144 35.1132 146.144 34.3388C146.144 33.5878 146.379 32.9777 146.848 32.5084C147.341 32.0156 147.986 31.7692 148.784 31.7692C149.605 31.7692 150.239 32.0156 150.685 32.5084C151.154 32.9777 151.389 33.5878 151.389 34.3388C151.389 35.1132 151.154 35.7468 150.685 36.2396C150.239 36.7324 149.605 36.9788 148.784 36.9788Z" fill="#121215"/>
<defs>
<clipPath id="clip0_7993_5180">
<rect width="48" height="48" fill="white" transform="translate(0.590088)"/>
</clipPath>
</defs>
</svg>
