<svg width="259" height="48" viewBox="0 0 259 48" fill="none" xmlns="http://www.w3.org/2000/svg">
<g clip-path="url(#clip0_7948_13010)">
<path d="M30.9467 30.5393C29.5721 33.5896 27.274 36.1314 24.4053 37.8018C22.045 39.1817 19.306 39.965 16.375 39.965C14.0458 39.965 11.8308 39.467 9.8336 38.5644C4.40228 36.1314 0.58946 30.752 0.407897 24.4647C0.40271 24.3091 0.40271 24.1587 0.40271 24.003C0.40271 23.8474 0.40271 23.6918 0.407897 23.5414C0.584273 17.2541 4.40228 11.8747 9.82841 9.43652C8.93097 11.4337 8.43297 13.6436 8.43297 15.9728C8.43297 18.8985 9.22147 21.6427 10.5962 24.003C12.2665 26.8717 14.8084 29.1698 17.8587 30.5393C19.8559 31.4367 22.0657 31.9347 24.4001 31.9347C26.7345 31.9347 28.9496 31.4367 30.9467 30.5393Z" fill="#615F6F"/>
<path d="M48.4012 24.0026C48.4012 24.1582 48.4012 24.3139 48.396 24.4643C48.2197 30.7516 44.4017 36.131 38.9807 38.5691C39.8781 36.5719 40.3761 34.3569 40.3761 32.0277C40.3761 29.1019 39.5876 26.3577 38.213 23.9974C36.5426 21.1287 34.0007 18.8255 30.9504 17.456C28.9533 16.5585 26.7434 16.0605 24.409 16.0605C22.0746 16.0605 19.8647 16.5585 17.8676 17.456C19.2371 14.4057 21.5403 11.869 24.4038 10.1935C26.7641 8.81359 29.5031 8.03027 32.4341 8.03027C34.7685 8.03027 36.9835 8.52827 38.9807 9.4309C44.4017 11.869 48.2197 17.2485 48.396 23.5357C48.396 23.6914 48.4012 23.847 48.4012 24.0026Z" fill="#615F6F"/>
<path d="M38.978 9.43089C36.9808 8.53345 34.7657 8.03026 32.4314 8.03026C29.5056 8.03026 26.7614 8.81876 24.4011 10.1934C21.5324 11.8638 19.2343 14.4057 17.8648 17.456C16.9674 19.4532 16.4642 21.6682 16.4642 23.9974C16.4642 26.3266 16.9622 28.5417 17.8597 30.5337C14.8094 29.1642 12.2727 26.8609 10.5971 23.9974C9.21727 21.6371 8.43396 18.8981 8.43396 15.9671C8.43396 13.638 8.93196 11.4229 9.8294 9.43089C12.2675 4.00476 17.6522 0.18675 23.9394 0.00518751C24.095 0 24.2507 0 24.4063 0C24.5619 0 24.7175 0 24.868 0.00518751C31.1604 0.18675 36.5399 4.00476 38.978 9.43089Z" fill="#C1C1C1"/>
<path d="M40.3713 32.0281C40.3713 34.3573 39.8733 36.5724 38.9758 38.5696C36.5377 43.9957 31.1531 47.8137 24.8658 47.9901C24.7102 47.9953 24.5545 47.9953 24.4041 47.9953C24.2485 47.9953 24.0929 47.9953 23.9424 47.9901C17.6552 47.8137 12.2705 43.9957 9.8324 38.5696C11.8296 39.467 14.0395 39.9702 16.3738 39.9702C19.2996 39.9702 22.0438 39.1817 24.4041 37.807C27.2728 36.1366 29.5761 33.5948 30.9456 30.5445C31.843 28.5473 32.341 26.3374 32.341 24.0082C32.341 21.6791 31.843 19.4588 30.9456 17.4668C33.9958 18.8363 36.5377 21.1396 38.2081 24.0082C39.5828 26.3582 40.3713 29.1024 40.3713 32.0281Z" fill="#C1C1C1"/>
</g>
<path d="M69.6471 37.0841C68.99 37.0841 68.4855 36.8964 68.1335 36.5209C67.7815 36.1455 67.6055 35.6292 67.6055 34.9721V13.8169C67.6055 13.1364 67.7932 12.6201 68.1687 12.2681C68.5441 11.8927 69.0604 11.7049 69.7175 11.7049C70.3041 11.7049 70.7617 11.8223 71.0903 12.0569C71.4423 12.2681 71.7591 12.6436 72.0407 13.1833L80.7351 29.2697H79.6087L88.3031 13.1833C88.5847 12.6436 88.8897 12.2681 89.2183 12.0569C89.5468 11.8223 90.0044 11.7049 90.5911 11.7049C91.2481 11.7049 91.7527 11.8927 92.1047 12.2681C92.4567 12.6201 92.6327 13.1364 92.6327 13.8169V34.9721C92.6327 35.6292 92.4567 36.1455 92.1047 36.5209C91.7761 36.8964 91.2716 37.0841 90.5911 37.0841C89.934 37.0841 89.4295 36.8964 89.0775 36.5209C88.7255 36.1455 88.5495 35.6292 88.5495 34.9721V18.6745H89.3239L81.9319 32.1561C81.6972 32.5551 81.4508 32.8484 81.1927 33.0361C80.9345 33.2239 80.5825 33.3177 80.1367 33.3177C79.6908 33.3177 79.3271 33.2239 79.0455 33.0361C78.7639 32.8249 78.5175 32.5316 78.3063 32.1561L70.8439 18.6393H71.6887V34.9721C71.6887 35.6292 71.5127 36.1455 71.1607 36.5209C70.8321 36.8964 70.3276 37.0841 69.6471 37.0841Z" fill="#C1C1C1"/>
<path d="M99.8544 37.0489C99.1504 37.0489 98.6107 36.8377 98.2352 36.4153C97.8598 35.9929 97.672 35.4063 97.672 34.6553V21.7369C97.672 20.9625 97.8598 20.3759 98.2352 19.9769C98.6107 19.5545 99.1504 19.3433 99.8544 19.3433C100.558 19.3433 101.098 19.5545 101.474 19.9769C101.873 20.3759 102.072 20.9625 102.072 21.7369V34.6553C102.072 35.4063 101.884 35.9929 101.509 36.4153C101.133 36.8377 100.582 37.0489 99.8544 37.0489ZM99.8544 16.0697C99.0331 16.0697 98.3878 15.8703 97.9184 15.4713C97.4726 15.0489 97.2496 14.474 97.2496 13.7465C97.2496 12.9956 97.4726 12.4207 97.9184 12.0217C98.3878 11.6228 99.0331 11.4233 99.8544 11.4233C100.699 11.4233 101.345 11.6228 101.79 12.0217C102.236 12.4207 102.459 12.9956 102.459 13.7465C102.459 14.474 102.236 15.0489 101.79 15.4713C101.345 15.8703 100.699 16.0697 99.8544 16.0697Z" fill="#C1C1C1"/>
<path d="M112.311 37.1545C111.067 37.1545 109.953 36.9199 108.967 36.4505C108.005 35.9577 107.242 35.3007 106.679 34.4793C106.139 33.658 105.87 32.7311 105.87 31.6985C105.87 30.4313 106.198 29.434 106.855 28.7065C107.512 27.9556 108.58 27.4159 110.058 27.0873C111.537 26.7588 113.52 26.5945 116.007 26.5945H117.767V29.1289H116.042C114.587 29.1289 113.426 29.1993 112.558 29.3401C111.689 29.4809 111.067 29.7273 110.692 30.0793C110.34 30.4079 110.164 30.8772 110.164 31.4873C110.164 32.2617 110.434 32.8953 110.974 33.3881C111.513 33.8809 112.264 34.1273 113.226 34.1273C114.001 34.1273 114.681 33.9513 115.268 33.5993C115.878 33.2239 116.359 32.7193 116.711 32.0857C117.063 31.4521 117.239 30.7247 117.239 29.9033V25.8553C117.239 24.682 116.981 23.8372 116.465 23.3209C115.948 22.8047 115.08 22.5465 113.86 22.5465C113.179 22.5465 112.44 22.6287 111.642 22.7929C110.868 22.9572 110.047 23.2388 109.178 23.6377C108.732 23.8489 108.334 23.9076 107.982 23.8137C107.653 23.7199 107.395 23.5321 107.207 23.2505C107.019 22.9455 106.926 22.6169 106.926 22.2649C106.926 21.9129 107.019 21.5727 107.207 21.2441C107.395 20.8921 107.712 20.634 108.158 20.4697C109.237 20.0239 110.27 19.7071 111.255 19.5193C112.264 19.3316 113.179 19.2377 114.001 19.2377C115.69 19.2377 117.075 19.4959 118.154 20.0121C119.257 20.5284 120.079 21.3145 120.618 22.3705C121.158 23.4031 121.428 24.7407 121.428 26.3833V34.8313C121.428 35.5588 121.252 36.122 120.9 36.5209C120.548 36.8964 120.043 37.0841 119.386 37.0841C118.729 37.0841 118.213 36.8964 117.838 36.5209C117.486 36.122 117.31 35.5588 117.31 34.8313V33.1417H117.591C117.427 33.9631 117.098 34.6788 116.606 35.2889C116.136 35.8756 115.538 36.3332 114.81 36.6617C114.083 36.9903 113.25 37.1545 112.311 37.1545Z" fill="#C1C1C1"/>
<path d="M128.076 37.0841C127.372 37.0841 126.833 36.8964 126.457 36.5209C126.082 36.122 125.894 35.5588 125.894 34.8313V21.5257C125.894 20.7983 126.082 20.2468 126.457 19.8713C126.833 19.4959 127.361 19.3081 128.041 19.3081C128.722 19.3081 129.25 19.4959 129.625 19.8713C130.001 20.2468 130.188 20.7983 130.188 21.5257V23.9193L129.801 23.0393C130.317 21.7956 131.115 20.8569 132.195 20.2233C133.298 19.5663 134.541 19.2377 135.926 19.2377C137.31 19.2377 138.449 19.4959 139.34 20.0121C140.232 20.5284 140.901 21.3145 141.347 22.3705C141.793 23.4031 142.016 24.7172 142.016 26.3129V34.8313C142.016 35.5588 141.828 36.122 141.452 36.5209C141.077 36.8964 140.537 37.0841 139.833 37.0841C139.129 37.0841 138.578 36.8964 138.179 36.5209C137.803 36.122 137.616 35.5588 137.616 34.8313V26.5241C137.616 25.1865 137.357 24.2127 136.841 23.6025C136.348 22.9924 135.574 22.6873 134.518 22.6873C133.227 22.6873 132.195 23.098 131.42 23.9193C130.669 24.7172 130.294 25.7849 130.294 27.1225V34.8313C130.294 36.3332 129.555 37.0841 128.076 37.0841Z" fill="#C1C1C1"/>
<path d="M148.597 36.9785C147.799 36.9785 147.153 36.7321 146.661 36.2393C146.191 35.7465 145.957 35.1129 145.957 34.3385C145.957 33.5876 146.191 32.9775 146.661 32.5081C147.153 32.0153 147.799 31.7689 148.597 31.7689C149.418 31.7689 150.051 32.0153 150.497 32.5081C150.967 32.9775 151.201 33.5876 151.201 34.3385C151.201 35.1129 150.967 35.7465 150.497 36.2393C150.051 36.7321 149.418 36.9785 148.597 36.9785Z" fill="#C1C1C1"/>
<path d="M164.536 37.1545C163.503 37.1545 162.47 37.0724 161.438 36.9081C160.405 36.7673 159.432 36.5444 158.516 36.2393C157.601 35.9108 156.78 35.5119 156.052 35.0425C155.63 34.7609 155.337 34.4207 155.172 34.0217C155.008 33.6228 154.949 33.2356 154.996 32.8601C155.067 32.4612 155.219 32.1209 155.454 31.8393C155.712 31.5343 156.029 31.3465 156.404 31.2761C156.78 31.2057 157.19 31.3113 157.636 31.5929C158.669 32.2031 159.76 32.6489 160.91 32.9305C162.06 33.2121 163.268 33.3529 164.536 33.3529C166.389 33.3529 167.739 33.0479 168.584 32.4377C169.428 31.8041 169.851 30.9945 169.851 30.0089C169.851 29.1876 169.546 28.5423 168.936 28.0729C168.349 27.6036 167.328 27.2164 165.873 26.9113L162.001 26.1017C159.772 25.6324 158.106 24.8463 157.003 23.7433C155.923 22.6169 155.384 21.1385 155.384 19.3081C155.384 18.1583 155.618 17.114 156.088 16.1753C156.557 15.2367 157.214 14.4271 158.059 13.7465C158.927 13.066 159.948 12.5497 161.121 12.1977C162.318 11.8223 163.632 11.6345 165.064 11.6345C166.472 11.6345 167.809 11.8105 169.076 12.1625C170.344 12.5145 171.482 13.0308 172.491 13.7113C172.866 13.9695 173.113 14.2863 173.23 14.6617C173.371 15.0372 173.406 15.4127 173.336 15.7881C173.265 16.1401 173.101 16.4452 172.843 16.7033C172.585 16.9615 172.256 17.114 171.857 17.1609C171.482 17.2079 171.048 17.0905 170.555 16.8089C169.686 16.3161 168.806 15.9641 167.915 15.7529C167.023 15.5417 166.061 15.4361 165.028 15.4361C163.949 15.4361 163.022 15.5887 162.248 15.8937C161.473 16.1988 160.875 16.6329 160.452 17.1961C160.053 17.7359 159.854 18.3812 159.854 19.1321C159.854 19.9769 160.136 20.6575 160.699 21.1737C161.262 21.6665 162.224 22.0537 163.585 22.3353L167.422 23.1449C169.745 23.6377 171.47 24.4121 172.596 25.4681C173.746 26.5241 174.321 27.9321 174.321 29.6921C174.321 30.8185 174.086 31.8393 173.617 32.7545C173.171 33.6697 172.514 34.4559 171.646 35.1129C170.801 35.77 169.78 36.2745 168.584 36.6265C167.387 36.9785 166.037 37.1545 164.536 37.1545Z" fill="#C1C1C1"/>
<path d="M185.479 37.1545C183.953 37.1545 182.674 36.8964 181.642 36.3801C180.633 35.8639 179.882 35.1129 179.389 34.1273C178.896 33.1183 178.65 31.8745 178.65 30.3961V22.8985H176.82C176.256 22.8985 175.822 22.7577 175.517 22.4761C175.212 22.1711 175.06 21.7604 175.06 21.2441C175.06 20.7044 175.212 20.2937 175.517 20.0121C175.822 19.7305 176.256 19.5897 176.82 19.5897H178.65V16.3865C178.65 15.6591 178.838 15.1076 179.213 14.7321C179.612 14.3567 180.164 14.1689 180.868 14.1689C181.572 14.1689 182.111 14.3567 182.487 14.7321C182.862 15.1076 183.05 15.6591 183.05 16.3865V19.5897H186.781C187.344 19.5897 187.778 19.7305 188.084 20.0121C188.389 20.2937 188.541 20.7044 188.541 21.2441C188.541 21.7604 188.389 22.1711 188.084 22.4761C187.778 22.7577 187.344 22.8985 186.781 22.8985H183.05V30.1497C183.05 31.2761 183.296 32.1209 183.789 32.6841C184.282 33.2473 185.08 33.5289 186.183 33.5289C186.582 33.5289 186.934 33.4937 187.239 33.4233C187.544 33.3529 187.814 33.306 188.048 33.2825C188.33 33.2591 188.565 33.3529 188.752 33.5641C188.94 33.7519 189.034 34.1508 189.034 34.7609C189.034 35.2303 188.952 35.6527 188.788 36.0281C188.647 36.3801 188.377 36.6265 187.978 36.7673C187.673 36.8612 187.274 36.9433 186.781 37.0137C186.288 37.1076 185.854 37.1545 185.479 37.1545Z" fill="#C1C1C1"/>
<path d="M197.334 37.1545C195.902 37.1545 194.717 36.8964 193.778 36.3801C192.84 35.8404 192.136 35.0425 191.666 33.9865C191.221 32.9305 190.998 31.6164 190.998 30.0441V21.5257C190.998 20.7748 191.185 20.2233 191.561 19.8713C191.936 19.4959 192.476 19.3081 193.18 19.3081C193.884 19.3081 194.424 19.4959 194.799 19.8713C195.198 20.2233 195.398 20.7748 195.398 21.5257V30.1145C195.398 31.3348 195.644 32.2383 196.137 32.8249C196.63 33.4116 197.416 33.7049 198.495 33.7049C199.669 33.7049 200.631 33.306 201.382 32.5081C202.133 31.6868 202.508 30.6073 202.508 29.2697V21.5257C202.508 20.7748 202.696 20.2233 203.071 19.8713C203.447 19.4959 203.986 19.3081 204.69 19.3081C205.394 19.3081 205.934 19.4959 206.31 19.8713C206.709 20.2233 206.908 20.7748 206.908 21.5257V34.8313C206.908 36.3332 206.192 37.0841 204.761 37.0841C204.08 37.0841 203.552 36.8964 203.177 36.5209C202.801 36.122 202.614 35.5588 202.614 34.8313V32.1561L203.106 33.2121C202.614 34.4793 201.863 35.4532 200.854 36.1337C199.868 36.8143 198.695 37.1545 197.334 37.1545Z" fill="#C1C1C1"/>
<path d="M218.105 37.1545C216.603 37.1545 215.278 36.7908 214.128 36.0633C213.001 35.3359 212.121 34.3033 211.488 32.9657C210.854 31.6047 210.537 30.0089 210.537 28.1785C210.537 26.3247 210.854 24.7407 211.488 23.4265C212.121 22.0889 213.001 21.0564 214.128 20.3289C215.278 19.6015 216.603 19.2377 218.105 19.2377C219.537 19.2377 220.78 19.5897 221.836 20.2937C222.916 20.9977 223.643 21.9247 224.019 23.0745H223.632V13.9225C223.632 13.1951 223.819 12.6436 224.195 12.2681C224.57 11.8927 225.11 11.7049 225.814 11.7049C226.518 11.7049 227.058 11.8927 227.433 12.2681C227.832 12.6436 228.032 13.1951 228.032 13.9225V34.8313C228.032 35.5588 227.844 36.122 227.468 36.5209C227.093 36.8964 226.553 37.0841 225.849 37.0841C225.145 37.0841 224.606 36.8964 224.23 36.5209C223.855 36.122 223.667 35.5588 223.667 34.8313V32.0857L224.054 33.1417C223.702 34.362 222.986 35.3359 221.907 36.0633C220.827 36.7908 219.56 37.1545 218.105 37.1545ZM219.337 33.8105C220.206 33.8105 220.968 33.5993 221.625 33.1769C222.282 32.7545 222.787 32.1327 223.139 31.3113C223.514 30.4665 223.702 29.4223 223.702 28.1785C223.702 26.3012 223.303 24.9049 222.505 23.9897C221.707 23.0511 220.651 22.5817 219.337 22.5817C218.469 22.5817 217.706 22.7929 217.049 23.2153C216.392 23.6143 215.876 24.2361 215.5 25.0809C215.148 25.9023 214.972 26.9348 214.972 28.1785C214.972 30.0324 215.371 31.4404 216.169 32.4025C216.967 33.3412 218.023 33.8105 219.337 33.8105Z" fill="#C1C1C1"/>
<path d="M234.776 37.0489C234.072 37.0489 233.533 36.8377 233.157 36.4153C232.782 35.9929 232.594 35.4063 232.594 34.6553V21.7369C232.594 20.9625 232.782 20.3759 233.157 19.9769C233.533 19.5545 234.072 19.3433 234.776 19.3433C235.48 19.3433 236.02 19.5545 236.396 19.9769C236.794 20.3759 236.994 20.9625 236.994 21.7369V34.6553C236.994 35.4063 236.806 35.9929 236.431 36.4153C236.055 36.8377 235.504 37.0489 234.776 37.0489ZM234.776 16.0697C233.955 16.0697 233.31 15.8703 232.84 15.4713C232.394 15.0489 232.172 14.474 232.172 13.7465C232.172 12.9956 232.394 12.4207 232.84 12.0217C233.31 11.6228 233.955 11.4233 234.776 11.4233C235.621 11.4233 236.266 11.6228 236.712 12.0217C237.158 12.4207 237.381 12.9956 237.381 13.7465C237.381 14.474 237.158 15.0489 236.712 15.4713C236.266 15.8703 235.621 16.0697 234.776 16.0697Z" fill="#C1C1C1"/>
<path d="M249.415 37.1545C247.632 37.1545 246.083 36.7908 244.769 36.0633C243.455 35.3359 242.434 34.3033 241.707 32.9657C240.979 31.6047 240.615 30.0089 240.615 28.1785C240.615 26.794 240.815 25.562 241.214 24.4825C241.636 23.3796 242.235 22.4409 243.009 21.6665C243.783 20.8687 244.71 20.2703 245.79 19.8713C246.869 19.4489 248.078 19.2377 249.415 19.2377C251.199 19.2377 252.748 19.6015 254.062 20.3289C255.376 21.0564 256.397 22.0889 257.124 23.4265C257.852 24.7641 258.215 26.3481 258.215 28.1785C258.215 29.5631 258.004 30.8068 257.582 31.9097C257.183 33.0127 256.596 33.9631 255.822 34.7609C255.047 35.5353 254.12 36.1337 253.041 36.5561C251.962 36.9551 250.753 37.1545 249.415 37.1545ZM249.415 33.8105C250.284 33.8105 251.046 33.5993 251.703 33.1769C252.36 32.7545 252.865 32.1327 253.217 31.3113C253.592 30.4665 253.78 29.4223 253.78 28.1785C253.78 26.3012 253.381 24.9049 252.583 23.9897C251.786 23.0511 250.73 22.5817 249.415 22.5817C248.547 22.5817 247.784 22.7929 247.127 23.2153C246.47 23.6143 245.954 24.2361 245.579 25.0809C245.227 25.9023 245.051 26.9348 245.051 28.1785C245.051 30.0324 245.45 31.4404 246.247 32.4025C247.045 33.3412 248.101 33.8105 249.415 33.8105Z" fill="#C1C1C1"/>
<defs>
<clipPath id="clip0_7948_13010">
<rect width="48" height="48" fill="white" transform="translate(0.40271)"/>
</clipPath>
</defs>
</svg>
