<svg width="258" height="48" viewBox="0 0 258 48" fill="none" xmlns="http://www.w3.org/2000/svg">
<g clip-path="url(#clip0_7727_249)">
<path d="M30.6942 30.5388C29.3195 33.5891 27.0214 36.1309 24.1527 37.8013C21.7924 39.1812 19.0534 39.9645 16.1225 39.9645C13.7933 39.9645 11.5782 39.4665 9.58103 38.5639C4.14971 36.1309 0.336897 30.7515 0.155334 24.4642C0.150146 24.3086 0.150146 24.1582 0.150146 24.0026C0.150146 23.8469 0.150146 23.6913 0.155334 23.5409C0.331709 17.2536 4.14971 11.8742 9.57584 9.43604C8.67841 11.4332 8.1804 13.6431 8.1804 15.9723C8.1804 18.898 8.96891 21.6422 10.3436 24.0026C12.014 26.8712 14.5559 29.1693 17.6061 30.5388C19.6033 31.4362 21.8132 31.9342 24.1475 31.9342C26.4819 31.9342 28.697 31.4362 30.6942 30.5388Z" fill="white"/>
<path d="M48.1487 24.0026C48.1487 24.1582 48.1487 24.3139 48.1435 24.4643C47.9671 30.7516 44.1491 36.131 38.7281 38.5691C39.6256 36.5719 40.1236 34.3569 40.1236 32.0277C40.1236 29.1019 39.3351 26.3577 37.9604 23.9974C36.29 21.1287 33.7481 18.8255 30.6979 17.456C28.7007 16.5585 26.4908 16.0605 24.1564 16.0605C21.8221 16.0605 19.6122 16.5585 17.615 17.456C18.9845 14.4057 21.2877 11.869 24.1512 10.1935C26.5116 8.81359 29.2506 8.03027 32.1815 8.03027C34.5159 8.03027 36.731 8.52827 38.7281 9.4309C44.1491 11.869 47.9671 17.2485 48.1435 23.5357C48.1435 23.6914 48.1487 23.847 48.1487 24.0026Z" fill="white"/>
<path d="M38.7254 9.43089C36.7282 8.53345 34.5132 8.03026 32.1788 8.03026C29.253 8.03026 26.5089 8.81876 24.1485 10.1934C21.2798 11.8638 18.9818 14.4057 17.6123 17.456C16.7148 19.4532 16.2117 21.6682 16.2117 23.9974C16.2117 26.3266 16.7097 28.5417 17.6071 30.5337C14.5568 29.1642 12.0202 26.8609 10.3446 23.9974C8.96471 21.6371 8.1814 18.8981 8.1814 15.9671C8.1814 13.638 8.6794 11.4229 9.57684 9.43089C12.015 4.00476 17.3996 0.18675 23.6868 0.00518751C23.8425 0 23.9981 0 24.1537 0C24.3094 0 24.465 0 24.6154 0.00518751C30.9079 0.18675 36.2873 4.00476 38.7254 9.43089Z" fill="white"/>
<path d="M40.1187 32.0276C40.1187 34.3568 39.6207 36.5719 38.7233 38.5691C36.2851 43.9952 30.9005 47.8132 24.6132 47.9896C24.4576 47.9948 24.302 47.9948 24.1515 47.9948C23.9959 47.9948 23.8403 47.9948 23.6899 47.9896C17.4026 47.8132 12.018 43.9952 9.57983 38.5691C11.577 39.4665 13.7869 39.9697 16.1213 39.9697C19.047 39.9697 21.7912 39.1812 24.1515 37.8065C27.0202 36.1361 29.3235 33.5943 30.693 30.544C31.5904 28.5468 32.0884 26.3369 32.0884 24.0078C32.0884 21.6786 31.5904 19.4583 30.693 17.4663C33.7432 18.8358 36.2851 21.1391 37.9555 24.0078C39.3302 26.3577 40.1187 29.1019 40.1187 32.0276Z" fill="white"/>
</g>
<path d="M69.3945 37.0844C68.7374 37.0844 68.2329 36.8966 67.8809 36.5212C67.5289 36.1457 67.3529 35.6294 67.3529 34.9724V13.8172C67.3529 13.1366 67.5406 12.6204 67.9161 12.2684C68.2916 11.8929 68.8078 11.7052 69.4649 11.7052C70.0516 11.7052 70.5092 11.8225 70.8377 12.0572C71.1897 12.2684 71.5065 12.6439 71.7881 13.1836L80.4825 29.27H79.3561L88.0505 13.1836C88.3321 12.6439 88.6372 12.2684 88.9657 12.0572C89.2942 11.8225 89.7518 11.7052 90.3385 11.7052C90.9956 11.7052 91.5001 11.8929 91.8521 12.2684C92.2041 12.6204 92.3801 13.1366 92.3801 13.8172V34.9724C92.3801 35.6294 92.2041 36.1457 91.8521 36.5212C91.5236 36.8966 91.019 37.0844 90.3385 37.0844C89.6814 37.0844 89.1769 36.8966 88.8249 36.5212C88.4729 36.1457 88.2969 35.6294 88.2969 34.9724V18.6748H89.0713L81.6793 32.1564C81.4446 32.5553 81.1982 32.8486 80.9401 33.0364C80.682 33.2241 80.33 33.318 79.8841 33.318C79.4382 33.318 79.0745 33.2241 78.7929 33.0364C78.5113 32.8252 78.2649 32.5318 78.0537 32.1564L70.5913 18.6396H71.4361V34.9724C71.4361 35.6294 71.2601 36.1457 70.9081 36.5212C70.5796 36.8966 70.075 37.0844 69.3945 37.0844Z" fill="white"/>
<path d="M99.6019 37.0492C98.8979 37.0492 98.3581 36.838 97.9827 36.4156C97.6072 35.9932 97.4195 35.4065 97.4195 34.6556V21.7372C97.4195 20.9628 97.6072 20.3761 97.9827 19.9772C98.3581 19.5548 98.8979 19.3436 99.6019 19.3436C100.306 19.3436 100.846 19.5548 101.221 19.9772C101.62 20.3761 101.819 20.9628 101.819 21.7372V34.6556C101.819 35.4065 101.632 35.9932 101.256 36.4156C100.881 36.838 100.329 37.0492 99.6019 37.0492ZM99.6019 16.07C98.7805 16.07 98.1352 15.8705 97.6659 15.4716C97.22 15.0492 96.9971 14.4743 96.9971 13.7468C96.9971 12.9958 97.22 12.4209 97.6659 12.022C98.1352 11.6231 98.7805 11.4236 99.6019 11.4236C100.447 11.4236 101.092 11.6231 101.538 12.022C101.984 12.4209 102.207 12.9958 102.207 13.7468C102.207 14.4743 101.984 15.0492 101.538 15.4716C101.092 15.8705 100.447 16.07 99.6019 16.07Z" fill="white"/>
<path d="M112.059 37.1548C110.815 37.1548 109.7 36.9201 108.715 36.4508C107.752 35.958 106.99 35.3009 106.427 34.4796C105.887 33.6582 105.617 32.7313 105.617 31.6988C105.617 30.4316 105.945 29.4342 106.603 28.7068C107.26 27.9558 108.327 27.4161 109.806 27.0876C111.284 26.759 113.267 26.5948 115.755 26.5948H117.515V29.1292H115.79C114.335 29.1292 113.173 29.1996 112.305 29.3404C111.437 29.4812 110.815 29.7276 110.439 30.0796C110.087 30.4081 109.911 30.8774 109.911 31.4876C109.911 32.262 110.181 32.8956 110.721 33.3884C111.261 33.8812 112.012 34.1276 112.974 34.1276C113.748 34.1276 114.429 33.9516 115.015 33.5996C115.625 33.2241 116.107 32.7196 116.459 32.086C116.811 31.4524 116.987 30.7249 116.987 29.9036V25.8556C116.987 24.6822 116.728 23.8374 116.212 23.3212C115.696 22.8049 114.828 22.5468 113.607 22.5468C112.927 22.5468 112.188 22.6289 111.39 22.7932C110.615 22.9574 109.794 23.239 108.926 23.638C108.48 23.8492 108.081 23.9078 107.729 23.814C107.4 23.7201 107.142 23.5324 106.955 23.2508C106.767 22.9457 106.673 22.6172 106.673 22.2652C106.673 21.9132 106.767 21.5729 106.955 21.2444C107.142 20.8924 107.459 20.6342 107.905 20.47C108.984 20.0241 110.017 19.7073 111.003 19.5196C112.012 19.3319 112.927 19.238 113.748 19.238C115.438 19.238 116.822 19.4961 117.902 20.0124C119.005 20.5286 119.826 21.3148 120.366 22.3708C120.905 23.4033 121.175 24.7409 121.175 26.3836V34.8316C121.175 35.559 120.999 36.1222 120.647 36.5212C120.295 36.8966 119.791 37.0844 119.134 37.0844C118.477 37.0844 117.96 36.8966 117.585 36.5212C117.233 36.1222 117.057 35.559 117.057 34.8316V33.142H117.339C117.174 33.9633 116.846 34.679 116.353 35.2892C115.884 35.8758 115.285 36.3334 114.558 36.662C113.83 36.9905 112.997 37.1548 112.059 37.1548Z" fill="white"/>
<path d="M127.824 37.0844C127.12 37.0844 126.58 36.8966 126.205 36.5212C125.829 36.1222 125.641 35.559 125.641 34.8316V21.526C125.641 20.7985 125.829 20.247 126.205 19.8716C126.58 19.4961 127.108 19.3084 127.789 19.3084C128.469 19.3084 128.997 19.4961 129.373 19.8716C129.748 20.247 129.936 20.7985 129.936 21.526V23.9196L129.549 23.0396C130.065 21.7958 130.863 20.8572 131.942 20.2236C133.045 19.5665 134.289 19.238 135.673 19.238C137.058 19.238 138.196 19.4961 139.088 20.0124C139.979 20.5286 140.648 21.3148 141.094 22.3708C141.54 23.4033 141.763 24.7174 141.763 26.3132V34.8316C141.763 35.559 141.575 36.1222 141.2 36.5212C140.824 36.8966 140.285 37.0844 139.581 37.0844C138.877 37.0844 138.325 36.8966 137.926 36.5212C137.551 36.1222 137.363 35.559 137.363 34.8316V26.5244C137.363 25.1868 137.105 24.2129 136.589 23.6028C136.096 22.9926 135.321 22.6876 134.265 22.6876C132.975 22.6876 131.942 23.0982 131.168 23.9196C130.417 24.7174 130.041 25.7852 130.041 27.1228V34.8316C130.041 36.3334 129.302 37.0844 127.824 37.0844Z" fill="white"/>
<path d="M148.344 36.9788C147.546 36.9788 146.901 36.7324 146.408 36.2396C145.939 35.7468 145.704 35.1132 145.704 34.3388C145.704 33.5878 145.939 32.9777 146.408 32.5084C146.901 32.0156 147.546 31.7692 148.344 31.7692C149.165 31.7692 149.799 32.0156 150.245 32.5084C150.714 32.9777 150.949 33.5878 150.949 34.3388C150.949 35.1132 150.714 35.7468 150.245 36.2396C149.799 36.7324 149.165 36.9788 148.344 36.9788Z" fill="white"/>
<path d="M164.283 37.1548C163.25 37.1548 162.218 37.0726 161.185 36.9084C160.153 36.7676 159.179 36.5446 158.264 36.2396C157.349 35.911 156.527 35.5121 155.8 35.0428C155.377 34.7612 155.084 34.4209 154.92 34.022C154.756 33.623 154.697 33.2358 154.744 32.8604C154.814 32.4614 154.967 32.1212 155.201 31.8396C155.46 31.5345 155.776 31.3468 156.152 31.2764C156.527 31.206 156.938 31.3116 157.384 31.5932C158.416 32.2033 159.508 32.6492 160.657 32.9308C161.807 33.2124 163.016 33.3532 164.283 33.3532C166.137 33.3532 167.486 33.0481 168.331 32.438C169.176 31.8044 169.598 30.9948 169.598 30.0092C169.598 29.1878 169.293 28.5425 168.683 28.0732C168.096 27.6038 167.076 27.2166 165.621 26.9116L161.749 26.102C159.519 25.6326 157.853 24.8465 156.75 23.7436C155.671 22.6172 155.131 21.1388 155.131 19.3084C155.131 18.1585 155.366 17.1143 155.835 16.1756C156.304 15.2369 156.961 14.4273 157.806 13.7468C158.674 13.0663 159.695 12.55 160.869 12.198C162.065 11.8225 163.38 11.6348 164.811 11.6348C166.219 11.6348 167.557 11.8108 168.824 12.1628C170.091 12.5148 171.229 13.031 172.238 13.7116C172.614 13.9697 172.86 14.2865 172.977 14.662C173.118 15.0374 173.153 15.4129 173.083 15.7884C173.013 16.1404 172.848 16.4454 172.59 16.7036C172.332 16.9617 172.004 17.1143 171.605 17.1612C171.229 17.2081 170.795 17.0908 170.302 16.8092C169.434 16.3164 168.554 15.9644 167.662 15.7532C166.77 15.542 165.808 15.4364 164.776 15.4364C163.696 15.4364 162.769 15.5889 161.995 15.894C161.221 16.199 160.622 16.6332 160.2 17.1964C159.801 17.7361 159.601 18.3814 159.601 19.1324C159.601 19.9772 159.883 20.6577 160.446 21.174C161.009 21.6668 161.972 22.054 163.333 22.3356L167.169 23.1452C169.493 23.638 171.217 24.4124 172.344 25.4684C173.494 26.5244 174.069 27.9324 174.069 29.6924C174.069 30.8188 173.834 31.8396 173.365 32.7548C172.919 33.67 172.262 34.4561 171.393 35.1132C170.549 35.7702 169.528 36.2748 168.331 36.6268C167.134 36.9788 165.785 37.1548 164.283 37.1548Z" fill="white"/>
<path d="M185.226 37.1548C183.701 37.1548 182.422 36.8966 181.389 36.3804C180.38 35.8641 179.629 35.1132 179.137 34.1276C178.644 33.1185 178.397 31.8748 178.397 30.3964V22.8988H176.567C176.004 22.8988 175.57 22.758 175.265 22.4764C174.959 22.1713 174.807 21.7606 174.807 21.2444C174.807 20.7046 174.959 20.294 175.265 20.0124C175.57 19.7308 176.004 19.59 176.567 19.59H178.397V16.3868C178.397 15.6593 178.585 15.1079 178.961 14.7324C179.359 14.3569 179.911 14.1692 180.615 14.1692C181.319 14.1692 181.859 14.3569 182.234 14.7324C182.61 15.1079 182.797 15.6593 182.797 16.3868V19.59H186.529C187.092 19.59 187.526 19.7308 187.831 20.0124C188.136 20.294 188.289 20.7046 188.289 21.2444C188.289 21.7606 188.136 22.1713 187.831 22.4764C187.526 22.758 187.092 22.8988 186.529 22.8988H182.797V30.15C182.797 31.2764 183.044 32.1212 183.537 32.6844C184.029 33.2476 184.827 33.5292 185.93 33.5292C186.329 33.5292 186.681 33.494 186.986 33.4236C187.291 33.3532 187.561 33.3062 187.796 33.2828C188.077 33.2593 188.312 33.3532 188.5 33.5644C188.687 33.7521 188.781 34.151 188.781 34.7612C188.781 35.2305 188.699 35.6529 188.535 36.0284C188.394 36.3804 188.124 36.6268 187.725 36.7676C187.42 36.8614 187.021 36.9436 186.529 37.014C186.036 37.1078 185.602 37.1548 185.226 37.1548Z" fill="white"/>
<path d="M197.081 37.1548C195.65 37.1548 194.465 36.8966 193.526 36.3804C192.587 35.8406 191.883 35.0428 191.414 33.9868C190.968 32.9308 190.745 31.6166 190.745 30.0444V21.526C190.745 20.775 190.933 20.2236 191.308 19.8716C191.684 19.4961 192.224 19.3084 192.928 19.3084C193.632 19.3084 194.171 19.4961 194.547 19.8716C194.946 20.2236 195.145 20.775 195.145 21.526V30.1148C195.145 31.335 195.392 32.2385 195.884 32.8252C196.377 33.4118 197.163 33.7052 198.243 33.7052C199.416 33.7052 200.378 33.3062 201.129 32.5084C201.88 31.687 202.256 30.6076 202.256 29.27V21.526C202.256 20.775 202.443 20.2236 202.819 19.8716C203.194 19.4961 203.734 19.3084 204.438 19.3084C205.142 19.3084 205.682 19.4961 206.057 19.8716C206.456 20.2236 206.656 20.775 206.656 21.526V34.8316C206.656 36.3334 205.94 37.0844 204.508 37.0844C203.828 37.0844 203.3 36.8966 202.924 36.5212C202.549 36.1222 202.361 35.559 202.361 34.8316V32.1564L202.854 33.2124C202.361 34.4796 201.61 35.4534 200.601 36.134C199.616 36.8145 198.442 37.1548 197.081 37.1548Z" fill="white"/>
<path d="M217.853 37.1548C216.351 37.1548 215.025 36.791 213.875 36.0636C212.749 35.3361 211.869 34.3036 211.235 32.966C210.602 31.6049 210.285 30.0092 210.285 28.1788C210.285 26.3249 210.602 24.7409 211.235 23.4268C211.869 22.0892 212.749 21.0567 213.875 20.3292C215.025 19.6017 216.351 19.238 217.853 19.238C219.284 19.238 220.528 19.59 221.584 20.294C222.663 20.998 223.391 21.9249 223.766 23.0748H223.379V13.9228C223.379 13.1953 223.567 12.6438 223.942 12.2684C224.318 11.8929 224.857 11.7052 225.562 11.7052C226.266 11.7052 226.805 11.8929 227.181 12.2684C227.58 12.6438 227.779 13.1953 227.779 13.9228V34.8316C227.779 35.559 227.591 36.1222 227.216 36.5212C226.84 36.8966 226.301 37.0844 225.597 37.0844C224.893 37.0844 224.353 36.8966 223.977 36.5212C223.602 36.1222 223.414 35.559 223.414 34.8316V32.086L223.801 33.142C223.449 34.3622 222.734 35.3361 221.654 36.0636C220.575 36.791 219.308 37.1548 217.853 37.1548ZM219.085 33.8108C219.953 33.8108 220.716 33.5996 221.373 33.1772C222.03 32.7548 222.534 32.1329 222.886 31.3116C223.262 30.4668 223.45 29.4225 223.45 28.1788C223.45 26.3014 223.051 24.9052 222.253 23.99C221.455 23.0513 220.399 22.582 219.085 22.582C218.216 22.582 217.454 22.7932 216.797 23.2156C216.14 23.6145 215.623 24.2364 215.248 25.0812C214.896 25.9025 214.72 26.935 214.72 28.1788C214.72 30.0326 215.119 31.4406 215.917 32.4028C216.715 33.3414 217.771 33.8108 219.085 33.8108Z" fill="white"/>
<path d="M234.524 37.0492C233.82 37.0492 233.28 36.838 232.905 36.4156C232.529 35.9932 232.341 35.4065 232.341 34.6556V21.7372C232.341 20.9628 232.529 20.3761 232.905 19.9772C233.28 19.5548 233.82 19.3436 234.524 19.3436C235.228 19.3436 235.767 19.5548 236.143 19.9772C236.542 20.3761 236.741 20.9628 236.741 21.7372V34.6556C236.741 35.4065 236.554 35.9932 236.178 36.4156C235.803 36.838 235.251 37.0492 234.524 37.0492ZM234.524 16.07C233.702 16.07 233.057 15.8705 232.588 15.4716C232.142 15.0492 231.919 14.4743 231.919 13.7468C231.919 12.9958 232.142 12.4209 232.588 12.022C233.057 11.6231 233.702 11.4236 234.524 11.4236C235.369 11.4236 236.014 11.6231 236.46 12.022C236.906 12.4209 237.129 12.9958 237.129 13.7468C237.129 14.4743 236.906 15.0492 236.46 15.4716C236.014 15.8705 235.369 16.07 234.524 16.07Z" fill="white"/>
<path d="M249.163 37.1548C247.379 37.1548 245.831 36.791 244.516 36.0636C243.202 35.3361 242.181 34.3036 241.454 32.966C240.727 31.6049 240.363 30.0092 240.363 28.1788C240.363 26.7942 240.562 25.5622 240.961 24.4828C241.384 23.3798 241.982 22.4412 242.756 21.6668C243.531 20.8689 244.458 20.2705 245.537 19.8716C246.617 19.4492 247.825 19.238 249.163 19.238C250.946 19.238 252.495 19.6017 253.809 20.3292C255.123 21.0567 256.144 22.0892 256.872 23.4268C257.599 24.7644 257.963 26.3484 257.963 28.1788C257.963 29.5633 257.752 30.807 257.329 31.91C256.93 33.0129 256.344 33.9633 255.569 34.7612C254.795 35.5356 253.868 36.134 252.788 36.5564C251.709 36.9553 250.5 37.1548 249.163 37.1548ZM249.163 33.8108C250.031 33.8108 250.794 33.5996 251.451 33.1772C252.108 32.7548 252.612 32.1329 252.964 31.3116C253.34 30.4668 253.528 29.4225 253.528 28.1788C253.528 26.3014 253.129 24.9052 252.331 23.99C251.533 23.0513 250.477 22.582 249.163 22.582C248.295 22.582 247.532 22.7932 246.875 23.2156C246.218 23.6145 245.701 24.2364 245.326 25.0812C244.974 25.9025 244.798 26.935 244.798 28.1788C244.798 30.0326 245.197 31.4406 245.995 32.4028C246.793 33.3414 247.849 33.8108 249.163 33.8108Z" fill="white"/>
<defs>
<clipPath id="clip0_7727_249">
<rect width="48" height="48" fill="white" transform="translate(0.150146)"/>
</clipPath>
</defs>
</svg>
