<svg width="152" height="48" viewBox="0 0 152 48" fill="none" xmlns="http://www.w3.org/2000/svg">
<g clip-path="url(#clip0_7727_225)">
<path d="M30.8748 30.5388C29.5001 33.5891 27.202 36.1309 24.3333 37.8013C21.973 39.1812 19.234 39.9645 16.3031 39.9645C13.9739 39.9645 11.7588 39.4665 9.76163 38.5639C4.33032 36.1309 0.5175 30.7515 0.335937 24.4642C0.33075 24.3086 0.33075 24.1582 0.33075 24.0026C0.33075 23.8469 0.33075 23.6913 0.335937 23.5409C0.512312 17.2536 4.33032 11.8742 9.75645 9.43604C8.85901 11.4332 8.36101 13.6431 8.36101 15.9723C8.36101 18.898 9.14951 21.6422 10.5242 24.0026C12.1946 26.8712 14.7365 29.1693 17.7867 30.5388C19.7839 31.4362 21.9938 31.9342 24.3281 31.9342C26.6625 31.9342 28.8776 31.4362 30.8748 30.5388Z" fill="white"/>
<path d="M48.3293 24.0026C48.3293 24.1582 48.3293 24.3139 48.3241 24.4643C48.1477 30.7516 44.3297 36.131 38.9087 38.5691C39.8062 36.5719 40.3042 34.3569 40.3042 32.0277C40.3042 29.1019 39.5157 26.3577 38.141 23.9974C36.4706 21.1287 33.9287 18.8255 30.8785 17.456C28.8813 16.5585 26.6714 16.0605 24.337 16.0605C22.0027 16.0605 19.7928 16.5585 17.7956 17.456C19.1651 14.4057 21.4683 11.869 24.3319 10.1935C26.6922 8.81359 29.4312 8.03027 32.3621 8.03027C34.6965 8.03027 36.9116 8.52827 38.9087 9.4309C44.3297 11.869 48.1477 17.2485 48.3241 23.5357C48.3241 23.6914 48.3293 23.847 48.3293 24.0026Z" fill="white"/>
<path d="M38.906 9.43089C36.9088 8.53345 34.6938 8.03026 32.3594 8.03026C29.4336 8.03026 26.6895 8.81876 24.3291 10.1934C21.4605 11.8638 19.1624 14.4057 17.7929 17.456C16.8954 19.4532 16.3923 21.6682 16.3923 23.9974C16.3923 26.3266 16.8903 28.5417 17.7877 30.5337C14.7374 29.1642 12.2008 26.8609 10.5252 23.9974C9.14531 21.6371 8.362 18.8981 8.362 15.9671C8.362 13.638 8.86 11.4229 9.75744 9.43089C12.1956 4.00476 17.5802 0.18675 23.8675 0.00518751C24.0231 0 24.1787 0 24.3343 0C24.49 0 24.6456 0 24.796 0.00518751C31.0885 0.18675 36.4679 4.00476 38.906 9.43089Z" fill="white"/>
<path d="M40.2993 32.0276C40.2993 34.3568 39.8013 36.5719 38.9039 38.5691C36.4657 43.9952 31.0811 47.8132 24.7938 47.9896C24.6382 47.9948 24.4826 47.9948 24.3321 47.9948C24.1765 47.9948 24.0209 47.9948 23.8705 47.9896C17.5832 47.8132 12.1986 43.9952 9.76044 38.5691C11.7576 39.4665 13.9675 39.9697 16.3019 39.9697C19.2276 39.9697 21.9718 39.1812 24.3321 37.8065C27.2008 36.1361 29.5041 33.5943 30.8736 30.544C31.771 28.5468 32.269 26.3369 32.269 24.0078C32.269 21.6786 31.771 19.4583 30.8736 17.4663C33.9238 18.8358 36.4657 21.1391 38.1361 24.0078C39.5108 26.3577 40.2993 29.1019 40.2993 32.0276Z" fill="white"/>
</g>
<path d="M69.5752 37.0844C68.9181 37.0844 68.4136 36.8966 68.0616 36.5212C67.7096 36.1457 67.5336 35.6294 67.5336 34.9724V13.8172C67.5336 13.1366 67.7213 12.6204 68.0968 12.2684C68.4722 11.8929 68.9885 11.7052 69.6456 11.7052C70.2322 11.7052 70.6898 11.8225 71.0184 12.0572C71.3704 12.2684 71.6872 12.6439 71.9688 13.1836L80.6632 29.27H79.5368L88.2312 13.1836C88.5128 12.6439 88.8178 12.2684 89.1464 12.0572C89.4749 11.8225 89.9325 11.7052 90.5192 11.7052C91.1762 11.7052 91.6808 11.8929 92.0328 12.2684C92.3848 12.6204 92.5608 13.1366 92.5608 13.8172V34.9724C92.5608 35.6294 92.3848 36.1457 92.0328 36.5212C91.7042 36.8966 91.1997 37.0844 90.5192 37.0844C89.8621 37.0844 89.3576 36.8966 89.0056 36.5212C88.6536 36.1457 88.4776 35.6294 88.4776 34.9724V18.6748H89.252L81.86 32.1564C81.6253 32.5553 81.3789 32.8486 81.1208 33.0364C80.8626 33.2241 80.5106 33.318 80.0648 33.318C79.6189 33.318 79.2552 33.2241 78.9736 33.0364C78.692 32.8252 78.4456 32.5318 78.2344 32.1564L70.772 18.6396H71.6168V34.9724C71.6168 35.6294 71.4408 36.1457 71.0888 36.5212C70.7602 36.8966 70.2557 37.0844 69.5752 37.0844Z" fill="white"/>
<path d="M99.7825 37.0492C99.0785 37.0492 98.5388 36.838 98.1633 36.4156C97.7879 35.9932 97.6001 35.4065 97.6001 34.6556V21.7372C97.6001 20.9628 97.7879 20.3761 98.1633 19.9772C98.5388 19.5548 99.0785 19.3436 99.7825 19.3436C100.487 19.3436 101.026 19.5548 101.402 19.9772C101.801 20.3761 102 20.9628 102 21.7372V34.6556C102 35.4065 101.812 35.9932 101.437 36.4156C101.061 36.838 100.51 37.0492 99.7825 37.0492ZM99.7825 16.07C98.9612 16.07 98.3159 15.8705 97.8465 15.4716C97.4007 15.0492 97.1777 14.4743 97.1777 13.7468C97.1777 12.9958 97.4007 12.4209 97.8465 12.022C98.3159 11.6231 98.9612 11.4236 99.7825 11.4236C100.627 11.4236 101.273 11.6231 101.719 12.022C102.164 12.4209 102.387 12.9958 102.387 13.7468C102.387 14.4743 102.164 15.0492 101.719 15.4716C101.273 15.8705 100.627 16.07 99.7825 16.07Z" fill="white"/>
<path d="M112.239 37.1548C110.995 37.1548 109.881 36.9201 108.895 36.4508C107.933 35.958 107.17 35.3009 106.607 34.4796C106.067 33.6582 105.798 32.7313 105.798 31.6988C105.798 30.4316 106.126 29.4342 106.783 28.7068C107.44 27.9558 108.508 27.4161 109.986 27.0876C111.465 26.759 113.448 26.5948 115.935 26.5948H117.695V29.1292H115.97C114.515 29.1292 113.354 29.1996 112.486 29.3404C111.617 29.4812 110.995 29.7276 110.62 30.0796C110.268 30.4081 110.092 30.8774 110.092 31.4876C110.092 32.262 110.362 32.8956 110.902 33.3884C111.441 33.8812 112.192 34.1276 113.154 34.1276C113.929 34.1276 114.609 33.9516 115.196 33.5996C115.806 33.2241 116.287 32.7196 116.639 32.086C116.991 31.4524 117.167 30.7249 117.167 29.9036V25.8556C117.167 24.6822 116.909 23.8374 116.393 23.3212C115.877 22.8049 115.008 22.5468 113.788 22.5468C113.107 22.5468 112.368 22.6289 111.57 22.7932C110.796 22.9574 109.975 23.239 109.106 23.638C108.661 23.8492 108.262 23.9078 107.91 23.814C107.581 23.7201 107.323 23.5324 107.135 23.2508C106.947 22.9457 106.854 22.6172 106.854 22.2652C106.854 21.9132 106.947 21.5729 107.135 21.2444C107.323 20.8924 107.64 20.6342 108.086 20.47C109.165 20.0241 110.198 19.7073 111.183 19.5196C112.192 19.3318 113.107 19.238 113.929 19.238C115.618 19.238 117.003 19.4961 118.082 20.0124C119.185 20.5286 120.007 21.3148 120.546 22.3708C121.086 23.4033 121.356 24.7409 121.356 26.3836V34.8316C121.356 35.559 121.18 36.1222 120.828 36.5212C120.476 36.8966 119.971 37.0844 119.314 37.0844C118.657 37.0844 118.141 36.8966 117.766 36.5212C117.414 36.1222 117.238 35.559 117.238 34.8316V33.142H117.519C117.355 33.9633 117.026 34.679 116.534 35.2892C116.064 35.8758 115.466 36.3334 114.738 36.662C114.011 36.9905 113.178 37.1548 112.239 37.1548Z" fill="white"/>
<path d="M128.004 37.0844C127.3 37.0844 126.761 36.8966 126.385 36.5212C126.01 36.1222 125.822 35.559 125.822 34.8316V21.526C125.822 20.7985 126.01 20.247 126.385 19.8716C126.761 19.4961 127.289 19.3084 127.969 19.3084C128.65 19.3084 129.178 19.4961 129.553 19.8716C129.929 20.247 130.116 20.7985 130.116 21.526V23.9196L129.729 23.0396C130.245 21.7958 131.043 20.8572 132.123 20.2236C133.226 19.5665 134.469 19.238 135.854 19.238C137.239 19.238 138.377 19.4961 139.268 20.0124C140.16 20.5286 140.829 21.3148 141.275 22.3708C141.721 23.4033 141.944 24.7174 141.944 26.3132V34.8316C141.944 35.559 141.756 36.1222 141.38 36.5212C141.005 36.8966 140.465 37.0844 139.761 37.0844C139.057 37.0844 138.506 36.8966 138.107 36.5212C137.731 36.1222 137.544 35.559 137.544 34.8316V26.5244C137.544 25.1868 137.285 24.2129 136.769 23.6028C136.276 22.9926 135.502 22.6876 134.446 22.6876C133.155 22.6876 132.123 23.0982 131.348 23.9196C130.597 24.7174 130.222 25.7852 130.222 27.1228V34.8316C130.222 36.3334 129.483 37.0844 128.004 37.0844Z" fill="white"/>
<path d="M148.525 36.9788C147.727 36.9788 147.081 36.7324 146.589 36.2396C146.119 35.7468 145.885 35.1132 145.885 34.3388C145.885 33.5878 146.119 32.9777 146.589 32.5084C147.081 32.0156 147.727 31.7692 148.525 31.7692C149.346 31.7692 149.98 32.0156 150.425 32.5084C150.895 32.9777 151.129 33.5878 151.129 34.3388C151.129 35.1132 150.895 35.7468 150.425 36.2396C149.98 36.7324 149.346 36.9788 148.525 36.9788Z" fill="white"/>
<defs>
<clipPath id="clip0_7727_225">
<rect width="48" height="48" fill="white" transform="translate(0.33075)"/>
</clipPath>
</defs>
</svg>
