<svg width="259" height="48" viewBox="0 0 259 48" fill="none" xmlns="http://www.w3.org/2000/svg">
<g clip-path="url(#clip0_7993_5204)">
<path d="M24.4086 3.39058C22.3618 4.16822 20.4397 5.3787 18.7891 7.02935C16.7202 9.09817 15.3374 11.5962 14.6404 14.2372C13.7931 17.4468 13.9655 20.8692 15.154 23.9944C15.9316 26.0412 17.1421 27.9633 18.7891 29.6103C20.4361 31.2573 22.3545 32.4714 24.3976 33.2454C21.2724 34.4339 17.85 34.5989 14.6404 33.7589C11.9957 33.0657 9.50505 31.6828 7.43257 29.6103C5.78558 27.9633 4.57143 26.0449 3.79746 24.0017C1.68462 18.4409 2.79239 11.9336 7.10977 7.35948C7.21614 7.24577 7.32619 7.13573 7.43623 7.02568C7.54628 6.91564 7.65632 6.80559 7.76636 6.70289C12.3442 2.38184 18.8478 1.27774 24.4086 3.39058Z" fill="#121215"/>
<path d="M41.3726 18.3841C43.0196 20.0311 44.2337 21.9495 45.0114 23.9963C47.1242 29.5572 46.0164 36.0644 41.6954 40.6349C41.589 40.7486 41.479 40.8586 41.3726 40.965C41.2625 41.0751 41.1525 41.1851 41.0424 41.2878C36.472 45.6089 29.9647 46.7166 24.4038 44.6038C26.4507 43.8262 28.3691 42.6193 30.0197 40.9687C32.0886 38.8999 33.4714 36.4019 34.1684 33.7608C35.0157 30.5512 34.847 27.1252 33.6585 24C32.8809 21.9531 31.6704 20.0384 30.0234 18.3914C28.3764 16.7444 26.4543 15.5266 24.4112 14.7526C27.5364 13.5642 30.9625 13.3954 34.1721 14.2428C36.8058 14.9324 39.3038 16.3152 41.3726 18.3841Z" fill="#121215"/>
</g>
<path d="M69.6473 37.0844C68.9902 37.0844 68.4857 36.8966 68.1337 36.5212C67.7817 36.1457 67.6057 35.6294 67.6057 34.9724V13.8172C67.6057 13.1366 67.7934 12.6204 68.1689 12.2684C68.5444 11.8929 69.0606 11.7052 69.7177 11.7052C70.3044 11.7052 70.762 11.8225 71.0905 12.0572C71.4425 12.2684 71.7593 12.6439 72.0409 13.1836L80.7353 29.27H79.6089L88.3033 13.1836C88.5849 12.6439 88.89 12.2684 89.2185 12.0572C89.547 11.8225 90.0046 11.7052 90.5913 11.7052C91.2484 11.7052 91.7529 11.8929 92.1049 12.2684C92.4569 12.6204 92.6329 13.1366 92.6329 13.8172V34.9724C92.6329 35.6294 92.4569 36.1457 92.1049 36.5212C91.7764 36.8966 91.2718 37.0844 90.5913 37.0844C89.9342 37.0844 89.4297 36.8966 89.0777 36.5212C88.7257 36.1457 88.5497 35.6294 88.5497 34.9724V18.6748H89.3241L81.9321 32.1564C81.6974 32.5553 81.451 32.8486 81.1929 33.0364C80.9348 33.2241 80.5828 33.318 80.1369 33.318C79.691 33.318 79.3273 33.2241 79.0457 33.0364C78.7641 32.8252 78.5177 32.5318 78.3065 32.1564L70.8441 18.6396H71.6889V34.9724C71.6889 35.6294 71.5129 36.1457 71.1609 36.5212C70.8324 36.8966 70.3278 37.0844 69.6473 37.0844Z" fill="#121215"/>
<path d="M99.8547 37.0492C99.1507 37.0492 98.611 36.838 98.2355 36.4156C97.86 35.9932 97.6723 35.4065 97.6723 34.6556V21.7372C97.6723 20.9628 97.86 20.3761 98.2355 19.9772C98.611 19.5548 99.1507 19.3436 99.8547 19.3436C100.559 19.3436 101.098 19.5548 101.474 19.9772C101.873 20.3761 102.072 20.9628 102.072 21.7372V34.6556C102.072 35.4065 101.885 35.9932 101.509 36.4156C101.134 36.838 100.582 37.0492 99.8547 37.0492ZM99.8547 16.07C99.0334 16.07 98.388 15.8705 97.9187 15.4716C97.4728 15.0492 97.2499 14.4743 97.2499 13.7468C97.2499 12.9958 97.4728 12.4209 97.9187 12.022C98.388 11.6231 99.0334 11.4236 99.8547 11.4236C100.699 11.4236 101.345 11.6231 101.791 12.022C102.237 12.4209 102.459 12.9958 102.459 13.7468C102.459 14.4743 102.237 15.0492 101.791 15.4716C101.345 15.8705 100.699 16.07 99.8547 16.07Z" fill="#121215"/>
<path d="M112.311 37.1548C111.068 37.1548 109.953 36.9201 108.967 36.4508C108.005 35.958 107.243 35.3009 106.679 34.4796C106.14 33.6582 105.87 32.7313 105.87 31.6988C105.87 30.4316 106.198 29.4342 106.855 28.7068C107.512 27.9558 108.58 27.4161 110.059 27.0876C111.537 26.759 113.52 26.5948 116.007 26.5948H117.767V29.1292H116.043C114.588 29.1292 113.426 29.1996 112.558 29.3404C111.689 29.4812 111.068 29.7276 110.692 30.0796C110.34 30.4081 110.164 30.8774 110.164 31.4876C110.164 32.262 110.434 32.8956 110.974 33.3884C111.513 33.8812 112.264 34.1276 113.227 34.1276C114.001 34.1276 114.681 33.9516 115.268 33.5996C115.878 33.2241 116.359 32.7196 116.711 32.086C117.063 31.4524 117.239 30.7249 117.239 29.9036V25.8556C117.239 24.6822 116.981 23.8374 116.465 23.3212C115.949 22.8049 115.08 22.5468 113.86 22.5468C113.18 22.5468 112.44 22.6289 111.643 22.7932C110.868 22.9574 110.047 23.239 109.179 23.638C108.733 23.8492 108.334 23.9078 107.982 23.814C107.653 23.7201 107.395 23.5324 107.207 23.2508C107.02 22.9457 106.926 22.6172 106.926 22.2652C106.926 21.9132 107.02 21.5729 107.207 21.2444C107.395 20.8924 107.712 20.6342 108.158 20.47C109.237 20.0241 110.27 19.7073 111.255 19.5196C112.264 19.3319 113.18 19.238 114.001 19.238C115.691 19.238 117.075 19.4961 118.155 20.0124C119.257 20.5286 120.079 21.3148 120.619 22.3708C121.158 23.4033 121.428 24.7409 121.428 26.3836V34.8316C121.428 35.559 121.252 36.1222 120.9 36.5212C120.548 36.8966 120.044 37.0844 119.387 37.0844C118.729 37.0844 118.213 36.8966 117.838 36.5212C117.486 36.1222 117.31 35.559 117.31 34.8316V33.142H117.591C117.427 33.9633 117.099 34.679 116.606 35.2892C116.136 35.8758 115.538 36.3334 114.811 36.662C114.083 36.9905 113.25 37.1548 112.311 37.1548Z" fill="#121215"/>
<path d="M128.077 37.0844C127.373 37.0844 126.833 36.8966 126.457 36.5212C126.082 36.1222 125.894 35.559 125.894 34.8316V21.526C125.894 20.7985 126.082 20.247 126.457 19.8716C126.833 19.4961 127.361 19.3084 128.041 19.3084C128.722 19.3084 129.25 19.4961 129.625 19.8716C130.001 20.247 130.189 20.7985 130.189 21.526V23.9196L129.801 23.0396C130.318 21.7958 131.115 20.8572 132.195 20.2236C133.298 19.5665 134.542 19.238 135.926 19.238C137.311 19.238 138.449 19.4961 139.341 20.0124C140.232 20.5286 140.901 21.3148 141.347 22.3708C141.793 23.4033 142.016 24.7174 142.016 26.3132V34.8316C142.016 35.559 141.828 36.1222 141.453 36.5212C141.077 36.8966 140.537 37.0844 139.833 37.0844C139.129 37.0844 138.578 36.8966 138.179 36.5212C137.803 36.1222 137.616 35.559 137.616 34.8316V26.5244C137.616 25.1868 137.358 24.2129 136.841 23.6028C136.349 22.9926 135.574 22.6876 134.518 22.6876C133.227 22.6876 132.195 23.0982 131.421 23.9196C130.67 24.7174 130.294 25.7852 130.294 27.1228V34.8316C130.294 36.3334 129.555 37.0844 128.077 37.0844Z" fill="#121215"/>
<path d="M148.597 36.9788C147.799 36.9788 147.154 36.7324 146.661 36.2396C146.191 35.7468 145.957 35.1132 145.957 34.3388C145.957 33.5878 146.191 32.9777 146.661 32.5084C147.154 32.0156 147.799 31.7692 148.597 31.7692C149.418 31.7692 150.052 32.0156 150.498 32.5084C150.967 32.9777 151.202 33.5878 151.202 34.3388C151.202 35.1132 150.967 35.7468 150.498 36.2396C150.052 36.7324 149.418 36.9788 148.597 36.9788Z" fill="#121215"/>
<path d="M164.536 37.1548C163.503 37.1548 162.471 37.0726 161.438 36.9084C160.406 36.7676 159.432 36.5446 158.517 36.2396C157.601 35.911 156.78 35.5121 156.053 35.0428C155.63 34.7612 155.337 34.4209 155.173 34.022C155.008 33.623 154.95 33.2358 154.997 32.8604C155.067 32.4614 155.22 32.1212 155.454 31.8396C155.712 31.5345 156.029 31.3468 156.405 31.2764C156.78 31.206 157.191 31.3116 157.637 31.5932C158.669 32.2033 159.76 32.6492 160.91 32.9308C162.06 33.2124 163.269 33.3532 164.536 33.3532C166.39 33.3532 167.739 33.0481 168.584 32.438C169.429 31.8044 169.851 30.9948 169.851 30.0092C169.851 29.1878 169.546 28.5425 168.936 28.0732C168.349 27.6038 167.328 27.2166 165.873 26.9116L162.001 26.102C159.772 25.6326 158.106 24.8465 157.003 23.7436C155.924 22.6172 155.384 21.1388 155.384 19.3084C155.384 18.1585 155.618 17.1143 156.088 16.1756C156.557 15.2369 157.214 14.4273 158.059 13.7468C158.927 13.0663 159.948 12.55 161.121 12.198C162.318 11.8225 163.632 11.6348 165.064 11.6348C166.472 11.6348 167.809 11.8108 169.077 12.1628C170.344 12.5148 171.482 13.031 172.491 13.7116C172.866 13.9697 173.113 14.2865 173.23 14.662C173.371 15.0374 173.406 15.4129 173.336 15.7884C173.265 16.1404 173.101 16.4454 172.843 16.7036C172.585 16.9617 172.256 17.1143 171.857 17.1612C171.482 17.2081 171.048 17.0908 170.555 16.8092C169.687 16.3164 168.807 15.9644 167.915 15.7532C167.023 15.542 166.061 15.4364 165.029 15.4364C163.949 15.4364 163.022 15.5889 162.248 15.894C161.473 16.199 160.875 16.6332 160.453 17.1964C160.054 17.7361 159.854 18.3814 159.854 19.1324C159.854 19.9772 160.136 20.6577 160.699 21.174C161.262 21.6668 162.224 22.054 163.585 22.3356L167.422 23.1452C169.745 23.638 171.47 24.4124 172.597 25.4684C173.746 26.5244 174.321 27.9324 174.321 29.6924C174.321 30.8188 174.087 31.8396 173.617 32.7548C173.172 33.67 172.514 34.4561 171.646 35.1132C170.801 35.7702 169.781 36.2748 168.584 36.6268C167.387 36.9788 166.038 37.1548 164.536 37.1548Z" fill="#121215"/>
<path d="M185.479 37.1548C183.954 37.1548 182.675 36.8966 181.642 36.3804C180.633 35.8641 179.882 35.1132 179.389 34.1276C178.897 33.1185 178.65 31.8748 178.65 30.3964V22.8988H176.82C176.257 22.8988 175.822 22.758 175.517 22.4764C175.212 22.1713 175.06 21.7606 175.06 21.2444C175.06 20.7046 175.212 20.294 175.517 20.0124C175.822 19.7308 176.257 19.59 176.82 19.59H178.65V16.3868C178.65 15.6593 178.838 15.1079 179.213 14.7324C179.612 14.3569 180.164 14.1692 180.868 14.1692C181.572 14.1692 182.111 14.3569 182.487 14.7324C182.862 15.1079 183.05 15.6593 183.05 16.3868V19.59H186.781C187.345 19.59 187.779 19.7308 188.084 20.0124C188.389 20.294 188.541 20.7046 188.541 21.2444C188.541 21.7606 188.389 22.1713 188.084 22.4764C187.779 22.758 187.345 22.8988 186.781 22.8988H183.05V30.15C183.05 31.2764 183.297 32.1212 183.789 32.6844C184.282 33.2476 185.08 33.5292 186.183 33.5292C186.582 33.5292 186.934 33.494 187.239 33.4236C187.544 33.3532 187.814 33.3062 188.049 33.2828C188.33 33.2593 188.565 33.3532 188.753 33.5644C188.94 33.7521 189.034 34.151 189.034 34.7612C189.034 35.2305 188.952 35.6529 188.788 36.0284C188.647 36.3804 188.377 36.6268 187.978 36.7676C187.673 36.8614 187.274 36.9436 186.781 37.014C186.289 37.1078 185.854 37.1548 185.479 37.1548Z" fill="#121215"/>
<path d="M197.334 37.1548C195.902 37.1548 194.717 36.8966 193.779 36.3804C192.84 35.8406 192.136 35.0428 191.667 33.9868C191.221 32.9308 190.998 31.6166 190.998 30.0444V21.526C190.998 20.775 191.186 20.2236 191.561 19.8716C191.937 19.4961 192.476 19.3084 193.18 19.3084C193.884 19.3084 194.424 19.4961 194.8 19.8716C195.198 20.2236 195.398 20.775 195.398 21.526V30.1148C195.398 31.335 195.644 32.2385 196.137 32.8252C196.63 33.4118 197.416 33.7052 198.496 33.7052C199.669 33.7052 200.631 33.3062 201.382 32.5084C202.133 31.687 202.508 30.6076 202.508 29.27V21.526C202.508 20.775 202.696 20.2236 203.072 19.8716C203.447 19.4961 203.987 19.3084 204.691 19.3084C205.395 19.3084 205.934 19.4961 206.31 19.8716C206.709 20.2236 206.908 20.775 206.908 21.526V34.8316C206.908 36.3334 206.193 37.0844 204.761 37.0844C204.081 37.0844 203.553 36.8966 203.177 36.5212C202.802 36.1222 202.614 35.559 202.614 34.8316V32.1564L203.107 33.2124C202.614 34.4796 201.863 35.4534 200.854 36.134C199.868 36.8145 198.695 37.1548 197.334 37.1548Z" fill="#121215"/>
<path d="M218.106 37.1548C216.604 37.1548 215.278 36.791 214.128 36.0636C213.002 35.3361 212.122 34.3036 211.488 32.966C210.854 31.6049 210.538 30.0092 210.538 28.1788C210.538 26.3249 210.854 24.7409 211.488 23.4268C212.122 22.0892 213.002 21.0567 214.128 20.3292C215.278 19.6017 216.604 19.238 218.106 19.238C219.537 19.238 220.781 19.59 221.837 20.294C222.916 20.998 223.644 21.9249 224.019 23.0748H223.632V13.9228C223.632 13.1953 223.82 12.6438 224.195 12.2684C224.571 11.8929 225.11 11.7052 225.814 11.7052C226.518 11.7052 227.058 11.8929 227.434 12.2684C227.832 12.6438 228.032 13.1953 228.032 13.9228V34.8316C228.032 35.559 227.844 36.1222 227.469 36.5212C227.093 36.8966 226.553 37.0844 225.85 37.0844C225.146 37.0844 224.606 36.8966 224.23 36.5212C223.855 36.1222 223.667 35.559 223.667 34.8316V32.086L224.054 33.142C223.702 34.3622 222.987 35.3361 221.907 36.0636C220.828 36.791 219.56 37.1548 218.106 37.1548ZM219.338 33.8108C220.206 33.8108 220.968 33.5996 221.626 33.1772C222.283 32.7548 222.787 32.1329 223.139 31.3116C223.515 30.4668 223.702 29.4225 223.702 28.1788C223.702 26.3014 223.303 24.9052 222.506 23.99C221.708 23.0513 220.652 22.582 219.338 22.582C218.469 22.582 217.707 22.7932 217.049 23.2156C216.392 23.6145 215.876 24.2364 215.501 25.0812C215.149 25.9025 214.973 26.935 214.973 28.1788C214.973 30.0326 215.372 31.4406 216.17 32.4028C216.967 33.3414 218.023 33.8108 219.338 33.8108Z" fill="#121215"/>
<path d="M234.777 37.0492C234.073 37.0492 233.533 36.838 233.157 36.4156C232.782 35.9932 232.594 35.4065 232.594 34.6556V21.7372C232.594 20.9628 232.782 20.3761 233.157 19.9772C233.533 19.5548 234.073 19.3436 234.777 19.3436C235.481 19.3436 236.02 19.5548 236.396 19.9772C236.795 20.3761 236.994 20.9628 236.994 21.7372V34.6556C236.994 35.4065 236.806 35.9932 236.431 36.4156C236.055 36.838 235.504 37.0492 234.777 37.0492ZM234.777 16.07C233.955 16.07 233.31 15.8705 232.841 15.4716C232.395 15.0492 232.172 14.4743 232.172 13.7468C232.172 12.9958 232.395 12.4209 232.841 12.022C233.31 11.6231 233.955 11.4236 234.777 11.4236C235.621 11.4236 236.267 11.6231 236.713 12.022C237.158 12.4209 237.381 12.9958 237.381 13.7468C237.381 14.4743 237.158 15.0492 236.713 15.4716C236.267 15.8705 235.621 16.07 234.777 16.07Z" fill="#121215"/>
<path d="M249.416 37.1548C247.632 37.1548 246.083 36.791 244.769 36.0636C243.455 35.3361 242.434 34.3036 241.707 32.966C240.979 31.6049 240.616 30.0092 240.616 28.1788C240.616 26.7942 240.815 25.5622 241.214 24.4828C241.636 23.3798 242.235 22.4412 243.009 21.6668C243.784 20.8689 244.711 20.2705 245.79 19.8716C246.869 19.4492 248.078 19.238 249.416 19.238C251.199 19.238 252.748 19.6017 254.062 20.3292C255.376 21.0567 256.397 22.0892 257.124 23.4268C257.852 24.7644 258.216 26.3484 258.216 28.1788C258.216 29.5633 258.004 30.807 257.582 31.91C257.183 33.0129 256.596 33.9633 255.822 34.7612C255.048 35.5356 254.121 36.134 253.041 36.5564C251.962 36.9553 250.753 37.1548 249.416 37.1548ZM249.416 33.8108C250.284 33.8108 251.047 33.5996 251.704 33.1772C252.361 32.7548 252.865 32.1329 253.217 31.3116C253.593 30.4668 253.78 29.4225 253.78 28.1788C253.78 26.3014 253.382 24.9052 252.584 23.99C251.786 23.0513 250.73 22.582 249.416 22.582C248.547 22.582 247.785 22.7932 247.128 23.2156C246.471 23.6145 245.954 24.2364 245.579 25.0812C245.227 25.9025 245.051 26.935 245.051 28.1788C245.051 30.0326 245.45 31.4406 246.248 32.4028C247.046 33.3414 248.101 33.8108 249.416 33.8108Z" fill="#121215"/>
<defs>
<clipPath id="clip0_7993_5204">
<rect width="48" height="48" fill="white" transform="translate(0.402832)"/>
</clipPath>
</defs>
</svg>
